<svg width="15" height="15" viewBox="0 0 15 15" fill="none" xmlns="http://www.w3.org/2000/svg">
<g clip-path="url(#clip0_981_2326)">
<path d="M14.2383 13.368H13.7196V4.10174C13.7196 3.84328 13.5093 3.63299 13.2508 3.63299H10.7304V2.64803C10.7304 2.38957 10.5201 2.17928 10.2616 2.17928H9.54316V1.66061C9.54316 1.40215 9.33287 1.19186 9.07441 1.19186H7.67578V0.46875C7.67578 0.371689 7.59706 0.292969 7.5 0.292969C7.40294 0.292969 7.32422 0.371689 7.32422 0.46875V1.19186H5.92559C5.66713 1.19186 5.45684 1.40215 5.45684 1.66061V2.17928H4.73839C4.47993 2.17928 4.26964 2.38957 4.26964 2.64803V3.63299H1.74917C1.49071 3.63299 1.28042 3.84328 1.28042 4.10174V13.368H0.761719C0.503262 13.368 0.292969 13.5783 0.292969 13.8368V14.2383C0.292969 14.4967 0.503262 14.707 0.761719 14.707H14.2383C14.4967 14.707 14.707 14.4967 14.707 14.2383V13.8368C14.707 13.5783 14.4968 13.368 14.2383 13.368ZM13.2509 3.98455C13.3155 3.98455 13.368 4.03711 13.368 4.10174V13.368H10.7304V3.98455H13.2509ZM5.8084 1.66061C5.8084 1.59598 5.86096 1.54342 5.92559 1.54342H9.07444C9.13907 1.54342 9.19163 1.59598 9.19163 1.66061V2.17928H5.8084V1.66061ZM4.73839 2.53084H10.2616C10.3263 2.53084 10.3788 2.5834 10.3788 2.64803V13.368H9.71379V10.2988C9.71379 10.2017 9.63507 10.123 9.53801 10.123H5.46202C5.36496 10.123 5.28624 10.2017 5.28624 10.2988V13.368H4.6212V2.64803C4.6212 2.5834 4.67376 2.53084 4.73839 2.53084ZM5.6378 13.368V10.4746H7.32422V13.368H5.6378ZM7.67578 10.4746H9.3622V13.368H7.67578V10.4746ZM1.63198 4.10174C1.63198 4.03711 1.68454 3.98455 1.74917 3.98455H4.26964V13.368H1.63198V4.10174ZM14.3555 14.2383C14.3555 14.3029 14.3029 14.3555 14.2383 14.3555H0.761719C0.69709 14.3555 0.644531 14.3029 0.644531 14.2383V13.8368C0.644531 13.7721 0.69709 13.7196 0.761719 13.7196H14.2383C14.3029 13.7196 14.3555 13.7721 14.3555 13.8368V14.2383ZM3.45911 6.878H2.44251C2.34545 6.878 2.26673 6.95672 2.26673 7.05378V8.07038C2.26673 8.16744 2.34545 8.24616 2.44251 8.24616H3.45911C3.55617 8.24616 3.63489 8.16744 3.63489 8.07038V7.05378C3.63489 6.95669 3.55617 6.878 3.45911 6.878ZM3.28333 7.8946H2.61829V7.22956H3.28333V7.8946ZM3.45911 11.3348H2.44251C2.34545 11.3348 2.26673 11.4136 2.26673 11.5106V12.5272C2.26673 12.6243 2.34545 12.703 2.44251 12.703H3.45911C3.55617 12.703 3.63489 12.6243 3.63489 12.5272V11.5106C3.63489 11.4135 3.55617 11.3348 3.45911 11.3348ZM3.28333 12.3514H2.61829V11.6864H3.28333V12.3514ZM3.45911 9.10641H2.44251C2.34545 9.10641 2.26673 9.18513 2.26673 9.28219V10.2988C2.26673 10.3959 2.34545 10.4746 2.44251 10.4746H3.45911C3.55617 10.4746 3.63489 10.3959 3.63489 10.2988V9.28219C3.63489 9.18513 3.55617 9.10641 3.45911 9.10641ZM3.28333 10.123H2.61829V9.45797H3.28333V10.123ZM3.45911 4.64959H2.44251C2.34545 4.64959 2.26673 4.72831 2.26673 4.82537V5.84194C2.26673 5.939 2.34545 6.01772 2.44251 6.01772H3.45911C3.55617 6.01772 3.63489 5.939 3.63489 5.84194V4.82537C3.63489 4.72831 3.55617 4.64959 3.45911 4.64959ZM3.28333 5.66616H2.61829V5.00115H3.28333V5.66616ZM11.5409 10.4746H12.5575C12.6546 10.4746 12.7333 10.3959 12.7333 10.2988V9.28219C12.7333 9.18513 12.6546 9.10641 12.5575 9.10641H11.5409C11.4439 9.10641 11.3651 9.18513 11.3651 9.28219V10.2988C11.3651 10.3959 11.4438 10.4746 11.5409 10.4746ZM11.7167 9.45797H12.3817V10.123H11.7167V9.45797ZM11.5409 8.24616H12.5575C12.6546 8.24616 12.7333 8.16744 12.7333 8.07038V7.05378C12.7333 6.95672 12.6546 6.878 12.5575 6.878H11.5409C11.4439 6.878 11.3651 6.95672 11.3651 7.05378V8.07038C11.3651 8.16744 11.4438 8.24616 11.5409 8.24616ZM11.7167 7.22956H12.3817V7.8946H11.7167V7.22956ZM11.5409 6.01772H12.5575C12.6546 6.01772 12.7333 5.939 12.7333 5.84194V4.82537C12.7333 4.72831 12.6546 4.64959 12.5575 4.64959H11.5409C11.4439 4.64959 11.3651 4.72831 11.3651 4.82537V5.84194C11.3651 5.93903 11.4438 6.01772 11.5409 6.01772ZM11.7167 5.00115H12.3817V5.66616H11.7167V5.00115ZM11.5409 12.703H12.5575C12.6546 12.703 12.7333 12.6243 12.7333 12.5272V11.5106C12.7333 11.4136 12.6546 11.3348 12.5575 11.3348H11.5409C11.4439 11.3348 11.3651 11.4136 11.3651 11.5106V12.5272C11.3651 12.6243 11.4438 12.703 11.5409 12.703ZM11.7167 11.6864H12.3817V12.3514H11.7167V11.6864ZM5.46202 9.00249H9.53798C9.63504 9.00249 9.71376 8.92377 9.71376 8.82671V7.83929C9.71376 7.74223 9.63504 7.66351 9.53798 7.66351H5.46202C5.36496 7.66351 5.28624 7.74223 5.28624 7.83929V8.82671C5.28624 8.9238 5.36496 9.00249 5.46202 9.00249ZM5.6378 8.01507H9.3622V8.65093H5.6378V8.01507ZM5.46202 4.54567H9.53798C9.63504 4.54567 9.71376 4.46695 9.71376 4.36989V3.38244C9.71376 3.28538 9.63504 3.20666 9.53798 3.20666H5.46202C5.36496 3.20666 5.28624 3.28538 5.28624 3.38244V4.36989C5.28624 4.46698 5.36496 4.54567 5.46202 4.54567ZM5.6378 3.55822H9.3622V4.19411H5.6378V3.55822ZM5.46202 6.77411H9.53798C9.63504 6.77411 9.71376 6.69539 9.71376 6.59833V5.61088C9.71376 5.51382 9.63504 5.4351 9.53798 5.4351H5.46202C5.36496 5.4351 5.28624 5.51382 5.28624 5.61088V6.59833C5.28624 6.69539 5.36496 6.77411 5.46202 6.77411ZM5.6378 5.78666H9.3622V6.42255H5.6378V5.78666Z" fill="#515151"/>
</g>
<defs>
<clipPath id="clip0_981_2326">
<rect width="15" height="15" fill="white"/>
</clipPath>
</defs>
</svg>
