<svg width="50" height="42" viewBox="0 0 50 42" fill="none" xmlns="http://www.w3.org/2000/svg">
<path fill-rule="evenodd" clip-rule="evenodd" d="M48.2143 14.2857C48.2143 14.2857 48.2143 8.43172 48.2143 4.46432C48.2143 3.28034 47.7441 2.14473 46.9067 1.30757C46.0696 0.470411 44.9341 0 43.75 0C35.1018 0 13.1125 0 4.46432 0C3.28034 0 2.14473 0.470411 1.30757 1.30757C0.470411 2.14473 0 3.28034 0 4.46432V30.3572C0 31.5412 0.470411 32.6766 1.30757 33.5139C2.14473 34.3511 3.28034 34.8215 4.46432 34.8215H34.8215C35.3142 34.8215 35.7143 34.4213 35.7143 33.9286C35.7143 33.4358 35.3142 33.0358 34.8215 33.0358C34.8215 33.0358 13.1784 33.0358 4.46432 33.0358C3.75397 33.0358 3.07254 32.7536 2.5703 32.2512C2.06791 31.7488 1.7857 31.0675 1.7857 30.3572C1.7857 24.0053 1.7857 10.8162 1.7857 4.46432C1.7857 3.75397 2.06791 3.07254 2.5703 2.5703C3.07254 2.06791 3.75397 1.7857 4.46432 1.7857H43.75C44.4605 1.7857 45.1418 2.06791 45.6442 2.5703C46.1464 3.07254 46.4286 3.75397 46.4286 4.46432V14.2857C46.4286 14.7785 46.8286 15.1785 47.3215 15.1785C47.8143 15.1785 48.2143 14.7785 48.2143 14.2857Z" fill="#FF5B22"/>
<path fill-rule="evenodd" clip-rule="evenodd" d="M0.892929 29.4642H34.8215C35.3142 29.4642 35.7143 29.0642 35.7143 28.5715C35.7143 28.0787 35.3142 27.6785 34.8215 27.6785H0.892929C0.400179 27.6785 0 28.0787 0 28.5715C0 29.0642 0.400179 29.4642 0.892929 29.4642Z" fill="#FF5B22"/>
<path fill-rule="evenodd" clip-rule="evenodd" d="M27.6221 33.615C27.4914 33.2666 27.1582 33.0358 26.786 33.0358H21.4289C21.0567 33.0358 20.7236 33.2666 20.5929 33.615L17.9143 40.758C17.8114 41.0321 17.8497 41.3393 18.0165 41.58C18.1832 41.8208 18.4575 41.9643 18.7503 41.9643H29.4647C29.7575 41.9643 30.0317 41.8208 30.1985 41.58C30.3653 41.3393 30.4034 41.0321 30.3005 40.758L27.6221 33.615ZM26.1673 34.8215L28.1762 40.1786H20.0388L22.0477 34.8215H26.1673Z" fill="#FF5B22"/>
<path fill-rule="evenodd" clip-rule="evenodd" d="M16.071 41.9643H32.1424C32.6352 41.9643 33.0354 41.5643 33.0354 41.0715C33.0354 40.5786 32.6352 40.1786 32.1424 40.1786H16.071C15.5782 40.1786 15.1782 40.5786 15.1782 41.0715C15.1782 41.5643 15.5782 41.9643 16.071 41.9643Z" fill="#FF5B22"/>
<path fill-rule="evenodd" clip-rule="evenodd" d="M49.9997 16.9642C49.9997 14.9919 48.4007 13.3928 46.4283 13.3928H37.4996C35.5273 13.3928 33.9282 14.9919 33.9282 16.9642V36.6072C33.9282 38.5797 35.5273 40.1786 37.4996 40.1786H46.4283C48.4007 40.1786 49.9997 38.5797 49.9997 36.6072V16.9642ZM48.214 16.9642V36.6072C48.214 37.5933 47.4146 38.3929 46.4283 38.3929H37.4998C36.5135 38.3929 35.7141 37.5933 35.7139 36.6072V16.9642C35.7141 15.9781 36.5135 15.1787 37.4996 15.1785H46.4283C47.4146 15.1787 48.214 15.9781 48.214 16.9642Z" fill="#FF5B22"/>
<path fill-rule="evenodd" clip-rule="evenodd" d="M40.6254 36.6072H43.304C43.7967 36.6072 44.1967 36.207 44.1967 35.7142C44.1967 35.2215 43.7967 34.8215 43.304 34.8215H40.6254C40.1326 34.8215 39.7324 35.2215 39.7324 35.7142C39.7324 36.207 40.1326 36.6072 40.6254 36.6072Z" fill="#FF5B22"/>
</svg>
