<svg width="20" height="17" viewBox="0 0 20 17" fill="none" xmlns="http://www.w3.org/2000/svg">
<path opacity="0.2" d="M6.15415 0.769226V16.1538H1.53876C1.33475 16.1538 1.13909 16.0728 0.994834 15.9285C0.850575 15.7843 0.769531 15.5886 0.769531 15.3846V1.53846C0.769531 1.33444 0.850575 1.13879 0.994834 0.994529C1.13909 0.85027 1.33475 0.769226 1.53876 0.769226H6.15415Z" fill="black"/>
<path d="M18.4615 0H1.53846C1.13044 0 0.739122 0.162087 0.450605 0.450605C0.162087 0.739122 0 1.13044 0 1.53846V15.3846C0 15.7926 0.162087 16.184 0.450605 16.4725C0.739122 16.761 1.13044 16.9231 1.53846 16.9231H18.4615C18.8696 16.9231 19.2609 16.761 19.5494 16.4725C19.8379 16.184 20 15.7926 20 15.3846V1.53846C20 1.13044 19.8379 0.739122 19.5494 0.450605C19.2609 0.162087 18.8696 0 18.4615 0ZM1.53846 10.7692H3.07692C3.28094 10.7692 3.47659 10.6882 3.62085 10.5439C3.76511 10.3997 3.84615 10.204 3.84615 10C3.84615 9.79599 3.76511 9.60033 3.62085 9.45607C3.47659 9.31181 3.28094 9.23077 3.07692 9.23077H1.53846V7.69231H3.07692C3.28094 7.69231 3.47659 7.61126 3.62085 7.46701C3.76511 7.32275 3.84615 7.12709 3.84615 6.92308C3.84615 6.71906 3.76511 6.52341 3.62085 6.37915C3.47659 6.23489 3.28094 6.15385 3.07692 6.15385H1.53846V4.61538H3.07692C3.28094 4.61538 3.47659 4.53434 3.62085 4.39008C3.76511 4.24582 3.84615 4.05017 3.84615 3.84615C3.84615 3.64214 3.76511 3.44648 3.62085 3.30223C3.47659 3.15797 3.28094 3.07692 3.07692 3.07692H1.53846V1.53846H5.38462V15.3846H1.53846V10.7692ZM18.4615 15.3846H6.92308V1.53846H18.4615V15.3846Z" fill="black"/>
</svg>
