<svg width="20" height="21" viewBox="0 0 20 21" fill="none" xmlns="http://www.w3.org/2000/svg">
<path d="M9.99366 9.42159C10.1109 9.42168 10.2261 9.39124 10.328 9.33326L12.6561 7.98941C12.7575 7.93012 12.8417 7.84539 12.9004 7.74359C12.959 7.64179 12.9901 7.52645 12.9905 7.40897V4.71497H11.653V7.0178L9.99366 7.9768L7.99997 6.82222L7.32489 7.98941L9.65927 9.33326C9.76118 9.39124 9.87642 9.42168 9.99366 9.42159Z" fill="#515151"/>
<path d="M19.653 10.8602L15.3249 8.3365V3.36489C15.3245 3.24741 15.2934 3.13207 15.2348 3.03027C15.1762 2.92847 15.092 2.84374 14.9905 2.78445L10.3281 0.0904435C10.2255 0.0311929 10.109 0 9.99054 0C9.87204 0 9.75562 0.0311929 9.653 0.0904435L4.99685 2.78445C4.89542 2.84374 4.81122 2.92847 4.75258 3.03027C4.69394 3.13207 4.66287 3.24741 4.66246 3.36489V8.36174L0.334385 10.8854C0.23296 10.9447 0.148764 11.0294 0.0901195 11.1312C0.0314746 11.233 0.000411324 11.3484 0 11.4658V16.8475C0.000411324 16.965 0.0314746 17.0804 0.0901195 17.1822C0.148764 17.284 0.23296 17.3687 0.334385 17.428L4.99685 20.122C5.09968 20.1806 5.21601 20.2115 5.33438 20.2115C5.45276 20.2115 5.56909 20.1806 5.67192 20.122L10 17.5983L14.3281 20.122C14.4309 20.1806 14.5472 20.2115 14.6656 20.2115C14.784 20.2115 14.9003 20.1806 15.0032 20.122L19.6656 17.428C19.767 17.3687 19.8512 17.284 19.9099 17.1822C19.9685 17.0804 19.9996 16.965 20 16.8475V11.4406C19.9983 11.3219 19.9653 11.2057 19.9044 11.1038C19.8435 11.0019 19.7568 10.9178 19.653 10.8602ZM9.99369 1.45322L13.9811 3.75606V8.36174L9.99369 10.6646L6.00631 8.36174V3.75606L9.99369 1.45322ZM5.33123 18.7403L1.34385 16.4374V11.8318L5.33123 9.52893L9.31861 11.8318V16.4374L5.33123 18.7403ZM18.6435 16.4374L14.6562 18.7403L10.6688 16.4374V11.8318L14.6562 9.52893L18.6435 11.8318V16.4374Z" fill="#515151"/>
<path d="M14.6561 16.0526L12.9968 15.0936V12.7908H11.653V15.4848C11.6534 15.6023 11.6844 15.7176 11.7431 15.8194C11.8017 15.9212 11.8859 16.0059 11.9873 16.0652L14.3154 17.4091C14.4182 17.4677 14.5346 17.4985 14.653 17.4985C14.7713 17.4985 14.8877 17.4677 14.9905 17.4091L17.3186 16.0652L16.6435 14.898L14.6561 16.0526Z" fill="#515151"/>
<path d="M7.99998 12.2041L5.67191 10.8602C5.56928 10.801 5.45287 10.7698 5.33437 10.7698C5.21587 10.7698 5.09945 10.801 4.99683 10.8602L2.66245 12.2041L3.33752 13.3713L5.33121 12.2167L6.99052 13.1757V15.4785H8.33437V12.7908C8.33506 12.6723 8.30452 12.5556 8.24582 12.4526C8.18712 12.3496 8.10233 12.2639 7.99998 12.2041Z" fill="#515151"/>
</svg>
