<svg width="25" height="25" viewBox="0 0 25 25" fill="none" xmlns="http://www.w3.org/2000/svg">
<g clip-path="url(#clip0_52_414)">
<path d="M24.3017 10.2855L24.302 10.2863C24.3843 10.5401 24.308 10.8167 24.107 10.9925L24.1065 10.993L18.6523 15.7754L18.3544 16.0366L18.4421 16.423L20.0503 23.5073C20.1094 23.7681 20.0083 24.0367 19.7921 24.1934L19.792 24.1934C19.5762 24.3499 19.291 24.3616 19.0651 24.2257L19.0635 24.2248L12.8416 20.5048L12.5002 20.3007L12.1588 20.5047L5.93455 24.2247L5.93426 24.2249C5.82688 24.2891 5.7105 24.3201 5.59478 24.3201C5.45994 24.3201 5.32467 24.2783 5.20636 24.1929C4.99136 24.0375 4.88962 23.7696 4.94882 23.5072C4.94884 23.5071 4.94885 23.5071 4.94887 23.507L6.55703 16.423L6.64474 16.0367L6.34689 15.7755L0.892684 10.9921L0.891422 10.991C0.692189 10.8171 0.615614 10.5406 0.69819 10.2866C0.780696 10.0329 1.00401 9.85436 1.26929 9.82979C1.26932 9.82979 1.26936 9.82978 1.26939 9.82978L8.48513 9.17469L8.88074 9.13877L9.03683 8.77349L11.8898 2.09706C11.8898 2.09696 11.8899 2.09687 11.8899 2.09678C11.9959 1.84978 12.2352 1.69279 12.5001 1.69279C12.7652 1.69279 13.0045 1.84996 13.1105 2.0959C13.1106 2.09608 13.1106 2.09625 13.1107 2.09643L15.9634 8.77345L16.1195 9.13876L16.5151 9.17469L23.7308 9.82988L23.7312 9.82992C23.9965 9.85382 24.22 10.0328 24.3017 10.2855Z" stroke="#E2E8F0" stroke-width="1.33076"/>
</g>
<defs>
<clipPath id="clip0_52_414">
<rect width="25" height="25" fill="white"/>
</clipPath>
</defs>
</svg>
