<svg width="25" height="25" viewBox="0 0 25 25" fill="none" xmlns="http://www.w3.org/2000/svg">
<g clip-path="url(#clip0_68_3788)">
<path d="M24.9348 10.0809C24.7712 9.57464 24.3222 9.2151 23.791 9.16722L16.5753 8.51203L13.722 1.83366C13.5116 1.34422 13.0325 1.0274 12.5001 1.0274C11.9678 1.0274 11.4886 1.34422 11.2782 1.83481L8.42497 8.51203L1.20814 9.16722C0.677886 9.21624 0.230029 9.57464 0.0654206 10.0809C-0.0991879 10.5871 0.0528318 11.1423 0.453958 11.4923L5.90816 16.2757L4.29984 23.3604C4.18216 23.8813 4.38434 24.4197 4.81656 24.7322C5.04888 24.9 5.32068 24.9855 5.59478 24.9855C5.8311 24.9855 6.06552 24.9218 6.27591 24.7959L12.5001 21.0759L18.7221 24.7959C19.1774 25.0698 19.7513 25.0448 20.1826 24.7322C20.615 24.4188 20.817 23.8801 20.6993 23.3604L19.091 16.2757L24.5452 11.4933C24.9463 11.1423 25.0994 10.588 24.9348 10.0809Z" fill="#FFC107"/>
</g>
<defs>
<clipPath id="clip0_68_3788">
<rect width="25" height="25" fill="white"/>
</clipPath>
</defs>
</svg>
