<svg width="30" height="30" viewBox="0 0 30 30" fill="none" xmlns="http://www.w3.org/2000/svg">
<path d="M28.2422 11.7773H24.5508V3.33984C24.5508 2.37059 23.7622 1.58203 22.793 1.58203H7.20703C6.23777 1.58203 5.44922 2.37059 5.44922 3.33984V8.61328H1.75781C0.788555 8.61328 0 9.40184 0 10.3711V21.1523C0 22.1216 0.788555 22.9102 1.75781 22.9102H6.96434L9.13646 25.0823C9.2509 25.1967 9.40084 25.2539 9.55078 25.2539C9.70072 25.2539 9.85072 25.1967 9.9651 25.0823L10.8984 24.1489V24.3164C10.8984 25.2857 11.687 26.0742 12.6562 26.0742H17.8628L20.0349 28.2463C20.1493 28.3608 20.2993 28.418 20.4492 28.418C20.5992 28.418 20.7492 28.3608 20.8635 28.2463L23.0357 26.0742H28.2422C29.2114 26.0742 30 25.2857 30 24.3164V13.5352C30 12.5659 29.2114 11.7773 28.2422 11.7773ZM6.62109 3.33984C6.62109 3.01676 6.88395 2.75391 7.20703 2.75391H22.793C23.1161 2.75391 23.3789 3.01676 23.3789 3.33984V14.1211C23.3789 14.4442 23.1161 14.707 22.793 14.707H17.3438C17.1884 14.707 17.0393 14.7688 16.9294 14.8787L15 16.8081L13.0706 14.8787C12.9607 14.7688 12.8116 14.707 12.6562 14.707H7.20703C6.88395 14.707 6.62109 14.4442 6.62109 14.1211V3.33984ZM11.4802 21.9099L9.55078 23.8393L7.62135 21.9099C7.51148 21.8 7.36242 21.7383 7.20703 21.7383H1.75781C1.43473 21.7383 1.17188 21.4754 1.17188 21.1523V10.3711C1.17188 10.048 1.43473 9.78516 1.75781 9.78516H5.44922V14.1211C5.44922 15.0904 6.23777 15.8789 7.20703 15.8789H12.4136L14.5857 18.051C14.7001 18.1655 14.8501 18.2227 15 18.2227C15.1499 18.2227 15.2999 18.1655 15.4143 18.051L17.5864 15.8789H17.9297V21.1523C17.9297 21.4754 17.6668 21.7383 17.3438 21.7383H11.8945C11.7391 21.7383 11.5901 21.8 11.4802 21.9099ZM28.8281 24.3164C28.8281 24.6395 28.5653 24.9023 28.2422 24.9023H22.793C22.6376 24.9023 22.4885 24.9641 22.3787 25.074L20.4492 27.0034L18.5198 25.074C18.4099 24.9641 18.2609 24.9023 18.1055 24.9023H12.6562C12.3332 24.9023 12.0703 24.6395 12.0703 24.3164V22.9771L12.1372 22.9102H17.3438C18.313 22.9102 19.1016 22.1216 19.1016 21.1523V15.8789H22.793C23.7622 15.8789 24.5508 15.0904 24.5508 14.1211V12.9492H28.2422C28.5653 12.9492 28.8281 13.2121 28.8281 13.5352V24.3164Z" fill="#9DA5B0"/>
<path d="M20.4493 4.86328H9.55957C9.23596 4.86328 8.97363 5.12561 8.97363 5.44922C8.97363 5.77283 9.23596 6.03516 9.55957 6.03516H20.4493C20.7729 6.03516 21.0353 5.77283 21.0353 5.44922C21.0353 5.12561 20.7729 4.86328 20.4493 4.86328Z" fill="#9DA5B0"/>
<path d="M20.8635 8.31621C20.7545 8.20723 20.6033 8.14453 20.4492 8.14453C20.2951 8.14453 20.1439 8.20723 20.035 8.31621C19.926 8.42519 19.8633 8.57637 19.8633 8.73047C19.8633 8.88457 19.926 9.03574 20.035 9.14473C20.1439 9.25371 20.2951 9.31641 20.4492 9.31641C20.6033 9.31641 20.7545 9.25371 20.8635 9.14473C20.9725 9.03574 21.0352 8.88457 21.0352 8.73047C21.0352 8.57637 20.9725 8.42519 20.8635 8.31621Z" fill="#9DA5B0"/>
<path d="M17.5399 8.14453H9.55957C9.23596 8.14453 8.97363 8.40686 8.97363 8.73047C8.97363 9.05408 9.23596 9.31641 9.55957 9.31641H17.5399C17.8635 9.31641 18.1258 9.05408 18.1258 8.73047C18.1258 8.40686 17.8635 8.14453 17.5399 8.14453Z" fill="#9DA5B0"/>
<path d="M20.4495 11.4258H12.4263C12.1027 11.4258 11.8403 11.6881 11.8403 12.0117C11.8403 12.3353 12.1027 12.5977 12.4263 12.5977H20.4495C20.7731 12.5977 21.0354 12.3353 21.0354 12.0117C21.0354 11.6881 20.7731 11.4258 20.4495 11.4258Z" fill="#9DA5B0"/>
<path d="M9.59982 11.4258H9.55078C9.22717 11.4258 8.96484 11.6881 8.96484 12.0117C8.96484 12.3353 9.22717 12.5977 9.55078 12.5977H9.59982C9.92344 12.5977 10.1858 12.3353 10.1858 12.0117C10.1858 11.6881 9.92344 11.4258 9.59982 11.4258Z" fill="#9DA5B0"/>
</svg>
