<svg width="30" height="30" viewBox="0 0 30 30" fill="none" xmlns="http://www.w3.org/2000/svg">
<g clip-path="url(#clip0_16_311)">
<path fill-rule="evenodd" clip-rule="evenodd" d="M14.9996 -0.000305176C6.72854 -0.000305176 -0.000488281 6.72878 -0.000488281 14.9998C-0.000488281 23.2709 6.72859 29.9997 14.9996 29.9997C23.2707 29.9997 29.9997 23.2709 29.9997 14.9998C29.9997 6.72878 23.2707 -0.000305176 14.9996 -0.000305176Z" fill="#F44336"/>
<path fill-rule="evenodd" clip-rule="evenodd" d="M21.6036 12.0376C21.3294 11.7635 20.8839 11.7635 20.6091 12.0376C20.335 12.3124 20.335 12.7576 20.6091 13.0318L21.8742 14.2968H13.9787C13.5901 14.2968 13.2755 14.6116 13.2755 14.9999C13.2755 15.3885 13.5901 15.7031 13.9787 15.7031H21.8742L20.6091 16.9682C20.335 17.2423 20.335 17.6876 20.6091 17.9624C20.7471 18.0997 20.9267 18.1683 21.1067 18.1683C21.2866 18.1683 21.4665 18.0997 21.6037 17.9624L24.0685 15.4975C24.2006 15.3652 24.275 15.1863 24.275 15C24.275 14.8137 24.2006 14.6343 24.0685 14.5025L21.6036 12.0376ZM19.841 19.809C20.1177 20.0818 20.1199 20.527 19.8468 20.8031C18.2844 22.3833 16.2007 23.2533 13.9787 23.2533C9.42793 23.2533 5.7251 19.551 5.7251 14.9999C5.7251 10.4488 9.42793 6.74631 13.9787 6.74631C16.2007 6.74631 18.2844 7.61666 19.8468 9.19681C20.1199 9.47267 20.1177 9.91816 19.841 10.1913C19.5649 10.4644 19.1199 10.4619 18.8469 10.1855C17.5506 8.87455 15.8215 8.15262 13.9788 8.15262C10.2029 8.15262 7.13141 11.2242 7.13141 15C7.13141 18.7758 10.2029 21.8474 13.9788 21.8474C15.8215 21.8474 17.5506 21.1254 18.8469 19.8148C19.1199 19.5381 19.5649 19.5359 19.841 19.809Z" fill="white"/>
</g>
<defs>
<clipPath id="clip0_16_311">
<rect width="30" height="30" fill="white"/>
</clipPath>
</defs>
</svg>
