<svg width="15" height="15" viewBox="0 0 15 15" fill="none" xmlns="http://www.w3.org/2000/svg">
<path d="M7.5 0C5.44018 0 3.57232 0.946325 2.21554 2.47444C2.20964 2.48031 2.20214 2.48233 2.19661 2.4886C2.19107 2.49488 2.18929 2.50337 2.18411 2.51005C0.835357 4.04687 0 6.16285 0 8.49629C0 10.5488 0.654464 12.5298 1.84357 14.0755C1.98821 14.2643 2.23893 14.2845 2.40589 14.1241L3.97321 12.6198C4.14518 12.4558 4.16393 12.1622 4.015 11.9715C3.26786 11.0114 2.85679 9.77681 2.85679 8.49609C2.85679 5.59562 4.93946 3.23628 7.49982 3.23628C8.56554 3.23628 9.60714 3.65583 10.4316 4.41686C10.8418 4.79616 11.3513 4.09198 10.9391 3.71167C10.0757 2.91403 9.00964 2.43925 7.90161 2.34579V0.933176C11.407 1.17067 14.1964 4.46703 14.1964 8.49629C14.1964 10.1759 13.7052 11.8034 12.8054 13.1256L11.8486 12.2116C12.5595 11.1449 12.9466 9.84275 12.9466 8.49629C12.9466 7.89771 12.8707 7.30499 12.7211 6.73432C12.5679 6.15314 11.8009 6.42198 11.9509 6.99387C12.078 7.47977 12.1429 7.9853 12.1429 8.49629C12.1429 9.7764 11.7321 11.0104 10.9861 11.9699C10.838 12.1594 10.8546 12.4529 11.0284 12.6188L12.5984 14.1188C12.7659 14.2794 13.017 14.257 13.1602 14.0697C14.3466 12.5252 15 10.5457 15 8.49629C15 3.8114 11.6355 0 7.5 0ZM3.94821 3.82859L3.06482 2.82805C4.15321 1.73385 5.55482 1.03776 7.09821 0.933176V2.34902C5.89875 2.44916 4.8075 2.98827 3.94821 3.82859ZM3.15357 12.214L2.19821 13.1308C1.37804 11.9274 0.900714 10.4703 0.820179 8.95145H2.06982C2.14696 10.1351 2.52214 11.2673 3.15357 12.214ZM2.07375 8.04113H0.823929C0.91625 6.29252 1.53071 4.70472 2.49661 3.47175L3.38 4.47208C2.63804 5.44572 2.16196 6.68213 2.07375 8.04113Z" fill="#515151"/>
<path d="M8.40925 10.8128C8.78747 10.3838 11.9171 5.73489 12.2728 5.20629C12.5478 4.79726 12.1016 4.26847 11.7303 4.55208C10.9235 5.16078 6.87908 8.22066 6.49979 8.65033C5.97354 9.24649 5.97354 10.2167 6.49979 10.8128C7.02497 11.4078 7.88175 11.4102 8.40925 10.8128ZM7.06783 9.29382C7.24354 9.0976 8.67283 7.98236 10.1482 6.85154C9.06211 8.45046 8.0164 9.97009 7.84104 10.1691C7.32979 10.7485 6.5564 9.87319 7.06783 9.29382Z" fill="#515151"/>
<path d="M6.11735 13.2756H8.8827C9.41449 13.2756 9.41449 12.3652 8.8827 12.3652H6.11735C5.58556 12.3652 5.58556 13.2756 6.11735 13.2756Z" fill="#515151"/>
<path d="M10.8818 14.0896H4.11844C3.58666 14.0896 3.58666 14.9999 4.11844 14.9999H10.8818C11.4134 14.9999 11.4134 14.0896 10.8818 14.0896Z" fill="#515151"/>
</svg>
