<svg width="35" height="35" viewBox="0 0 35 35" fill="none" xmlns="http://www.w3.org/2000/svg">
<rect width="35" height="35" rx="17.5" fill="white"/>
<g clip-path="url(#clip0_603_1646)">
<path d="M27.8528 34.2367C26.671 34.4736 25.4767 34.6429 24.2756 34.7436C23.9714 34.7726 23.6528 34.7967 23.3101 34.8208C21.9873 34.9174 20.3845 34.9898 18.4825 34.9995H17.5169C15.6149 34.9898 14.0121 34.9174 12.6894 34.8208C12.3466 34.7967 12.028 34.7726 11.7238 34.7436C10.5228 34.6429 9.32839 34.4736 8.1466 34.2367C7.67068 34.1399 7.34274 33.702 7.38384 33.2181C7.7604 29.3802 10.8742 29.5346 13.1818 29.3319H22.8176C25.1252 29.5346 28.239 29.3802 28.6156 33.2181C28.6567 33.702 28.3287 34.1399 27.8528 34.2367Z" fill="#3B97D3"/>
<path d="M18.4821 29.9401V34.9994H17.5166V29.9401C17.5166 29.6735 17.7327 29.4573 17.9994 29.4573C18.266 29.4573 18.4821 29.6735 18.4821 29.9401Z" fill="#2980BA"/>
<path d="M12.6906 33.5511V34.8207C12.3479 34.7966 12.0292 34.7725 11.7251 34.7435V33.5511C11.7251 33.2845 11.9412 33.0683 12.2079 33.0683C12.4745 33.0683 12.6906 33.2845 12.6906 33.5511Z" fill="#2980BA"/>
<path d="M24.2775 33.5511V34.7435C23.9734 34.7725 23.6548 34.7966 23.312 34.8207V33.5511C23.312 33.2845 23.5282 33.0683 23.7948 33.0683C24.0614 33.0683 24.2775 33.2845 24.2775 33.5511Z" fill="#2980BA"/>
<path d="M10.2885 17.6144C9.60606 16.4467 9.26735 15.11 9.31143 13.7582C9.31143 11.3444 10.2769 8.93058 12.208 7.96507C14.139 6.99955 17.0356 6.99955 19.4494 6.99955C19.4142 7.37024 19.242 7.71449 18.9666 7.96507C18.9666 7.96507 22.3459 7.48231 24.2769 7.96507C24.0145 8.22527 23.8449 8.56452 23.7942 8.93058C23.7942 8.93058 26.2611 9.74644 26.6907 12.3099C26.9467 14.1354 26.6102 15.9949 25.7305 17.6149L10.2885 17.6144Z" fill="#A56A43"/>
<path d="M20.0414 13.6089C19.9184 13.6091 19.7999 13.5623 19.7102 13.4781C19.2202 13.0248 18.8533 12.4546 18.6438 11.8208C18.5722 11.5639 18.7225 11.2976 18.9793 11.226C19.2362 11.1545 19.5025 11.3047 19.5741 11.5616C19.7378 12.0247 20.0117 12.441 20.3721 12.7747C20.5161 12.9104 20.5628 13.1202 20.4899 13.3041C20.417 13.488 20.2393 13.6088 20.0414 13.6089Z" fill="#805333"/>
<path d="M10.7877 17.2389C10.5206 17.0855 10.1949 17.0741 9.91768 17.2084C9.64045 17.3427 9.4475 17.6053 9.40221 17.91C9.00635 19.31 9.95738 21.0189 11.396 20.9996L10.7877 17.2389Z" fill="#F9C795"/>
<path d="M25.2128 17.2389C25.4799 17.0855 25.8056 17.0741 26.0828 17.2084C26.36 17.3427 26.553 17.6053 26.5983 17.91C26.9941 19.31 26.0431 21.0189 24.6045 20.9996L25.2128 17.2389Z" fill="#F9C795"/>
<path d="M21.4419 29.0665L17.9999 30.2637L14.8716 28.8879C15.5426 28.4003 15.7454 27.512 15.7743 26.7155C15.7855 26.4418 15.779 26.1676 15.755 25.8948H20.2447C20.2231 26.1678 20.2167 26.4417 20.2254 26.7155C20.264 27.623 20.5199 28.661 21.4419 29.0665Z" fill="#FDD7AD"/>
<path d="M20.2257 26.7155C19.5074 26.9581 18.7579 27.0963 18.0002 27.1258C17.2425 27.0963 16.493 26.9581 15.7747 26.7155C15.7858 26.4418 15.7794 26.1676 15.7554 25.8948H20.245C20.2235 26.1678 20.217 26.4417 20.2257 26.7155Z" fill="#F9C795"/>
<path d="M25.2425 15.6894C25.2425 15.8101 25.2329 16.9397 25.2184 17.1376C25.117 18.5473 24.6391 21.7238 23.7942 23.4135C22.8287 25.3445 19.4494 26.3101 18.0011 26.3101C16.5529 26.3101 13.1736 25.3445 12.208 23.4135C11.2425 21.4825 10.7598 17.6204 10.7598 16.6549V15.2066C11.1589 13.31 12.5215 11.7607 14.3515 11.1225C14.9642 10.9043 15.6457 11.0116 16.1618 11.4073C17.3914 12.2921 18.8663 12.7714 20.3811 12.7783C20.9293 13.2856 21.611 13.6256 22.346 13.7583C24.7598 14.2411 25.2425 15.6894 25.2425 15.6894Z" fill="#FDD7AD"/>
<path d="M15.3146 28.151C16.0606 29.0268 16.9733 29.7456 17.9997 30.2655C17.4114 30.6279 16.9524 31.1666 16.688 31.805C16.6341 31.9299 16.5307 32.0269 16.4026 32.0727C16.2744 32.1184 16.133 32.1089 16.0121 32.0464C14.9112 31.502 13.9628 30.6926 13.2522 29.691C13.1031 29.4611 13.1619 29.1546 13.3854 28.9963C13.7287 28.7573 14.2366 28.3948 14.6213 28.0829C14.7223 28 14.852 27.9605 14.982 27.9733C15.1121 27.9861 15.2317 28.05 15.3146 28.151Z" fill="#67B9CC"/>
<path d="M20.6861 28.151C19.94 29.0268 19.0273 29.7456 18.001 30.2655C18.5892 30.6279 19.0482 31.1666 19.3126 31.805C19.3665 31.9299 19.4699 32.0269 19.5981 32.0727C19.7262 32.1184 19.8676 32.1089 19.9885 32.0464C21.0895 31.5022 22.038 30.6928 22.7484 29.691C22.8975 29.4611 22.8387 29.1546 22.6152 28.9963C22.2719 28.7573 21.7641 28.3948 21.3793 28.0829C21.2784 28 21.1486 27.9605 21.0186 27.9733C20.8886 27.9861 20.769 28.05 20.6861 28.151Z" fill="#67B9CC"/>
<path d="M14.6202 20.0342C15.42 20.0342 16.0684 19.3858 16.0684 18.5859C16.0684 17.7861 15.42 17.1376 14.6202 17.1376C13.8203 17.1376 13.1719 17.7861 13.1719 18.5859C13.1719 19.3858 13.8203 20.0342 14.6202 20.0342Z" fill="#ECF0F1"/>
<path d="M14.8609 19.3098C15.2608 19.3098 15.585 18.9856 15.585 18.5857C15.585 18.1857 15.2608 17.8615 14.8609 17.8615C14.4609 17.8615 14.1367 18.1857 14.1367 18.5857C14.1367 18.9856 14.4609 19.3098 14.8609 19.3098Z" fill="#35495E"/>
<path d="M21.3804 20.0342C22.1803 20.0342 22.8287 19.3858 22.8287 18.5859C22.8287 17.7861 22.1803 17.1376 21.3804 17.1376C20.5805 17.1376 19.9321 17.7861 19.9321 18.5859C19.9321 19.3858 20.5805 20.0342 21.3804 20.0342Z" fill="#ECF0F1"/>
<path d="M12.6893 16.6547C12.4954 16.6535 12.3211 16.5365 12.2466 16.3576C12.1721 16.1786 12.2118 15.9724 12.3475 15.834C13.4073 14.8316 14.9822 14.6021 16.2839 15.2605C16.5225 15.3797 16.6194 15.6697 16.5002 15.9084C16.381 16.147 16.0909 16.2438 15.8523 16.1246C14.9216 15.6513 13.7943 15.8085 13.0287 16.5186C12.9378 16.6067 12.8159 16.6556 12.6893 16.6547Z" fill="#805333"/>
<path d="M23.3092 16.6548C23.1825 16.6543 23.0612 16.604 22.9712 16.5148C22.2055 15.8048 21.0782 15.6477 20.1476 16.1214C19.909 16.2406 19.6189 16.1437 19.4997 15.9051C19.3805 15.6665 19.4774 15.3764 19.716 15.2572C21.0176 14.5983 22.5929 14.8278 23.6524 15.8308C23.7907 15.9691 23.8319 16.1772 23.7567 16.3577C23.6815 16.5382 23.5048 16.6556 23.3092 16.6548Z" fill="#805333"/>
<path d="M18.4844 20.9996H17.5189C17.2523 20.9996 17.0361 20.7835 17.0361 20.5169C17.0361 20.2503 17.2523 20.0341 17.5189 20.0341H18.4844C18.751 20.0341 18.9672 20.2503 18.9672 20.5169C18.9672 20.7835 18.751 20.9996 18.4844 20.9996Z" fill="#F09372"/>
<path d="M15.5857 20.2754H13.6546C13.388 20.2754 13.1719 20.0593 13.1719 19.7927C13.1719 19.5261 13.388 19.3099 13.6546 19.3099H15.5857C15.8523 19.3099 16.0684 19.5261 16.0684 19.7927C16.0684 20.0593 15.8523 20.2754 15.5857 20.2754Z" fill="#F9C795"/>
<path d="M22.3459 20.2754H20.4149C20.1483 20.2754 19.9321 20.0593 19.9321 19.7927C19.9321 19.5261 20.1483 19.3099 20.4149 19.3099H22.3459C22.6125 19.3099 22.8287 19.5261 22.8287 19.7927C22.8287 20.0593 22.6125 20.2754 22.3459 20.2754Z" fill="#F9C795"/>
<path d="M19.4473 22.4478V22.9306C19.4473 23.7304 18.7989 24.3789 17.9991 24.3789C17.1992 24.3789 16.5508 23.7304 16.5508 22.9306V22.4478H19.4473Z" fill="#802D40"/>
<path d="M21.1372 19.3098C21.5372 19.3098 21.8614 18.9856 21.8614 18.5857C21.8614 18.1857 21.5372 17.8615 21.1372 17.8615C20.7373 17.8615 20.4131 18.1857 20.4131 18.5857C20.4131 18.9856 20.7373 19.3098 21.1372 19.3098Z" fill="#35495E"/>
<path d="M19.1576 23.7996C18.8841 24.1643 18.4548 24.3789 17.999 24.3789C17.5431 24.3789 17.1138 24.1643 16.8403 23.7996C17.5269 23.2846 18.471 23.2846 19.1576 23.7996Z" fill="#FB7B76"/>
</g>
<defs>
<clipPath id="clip0_603_1646">
<rect width="28" height="28" fill="white" transform="translate(4 7)"/>
</clipPath>
</defs>
</svg>
