<svg width="15" height="15" viewBox="0 0 15 15" fill="none" xmlns="http://www.w3.org/2000/svg">
<g clip-path="url(#clip0_981_2004)">
<path d="M14.3725 6.75H13.5V5.183C13.5 4.8065 13.1935 4.5 12.817 4.5H12V3.8965L11.8763 3.77275L11.876 3.77225L10.052 1.94825L8.1035 0H2V2.75H0.683C0.3065 2.75 0 3.0565 0 3.433V14.3547H0.0015C0.00025 14.4955 0.044 14.6333 0.132 14.7485C0.2545 14.9085 0.44 15 0.64125 15H11.831C12.12 15 12.3745 14.8053 12.4435 14.5468L15 7.53725V7.493C15 7.0625 14.736 6.75 14.3725 6.75ZM12.817 5C12.9178 5 13 5.082 13 5.183V6.75H12V5H12.817ZM8.25 0.85375L11.1465 3.75H8.25V0.85375ZM2.5 0.5H7.75V4.25H11.5V4.5V6.75H3.18275C3.147 6.75 3.11175 6.753 3.07725 6.75875C2.83375 6.79925 2.63075 6.97675 2.57025 7.20325L2.5 7.39625V2.75V0.5ZM0.5 3.433C0.5 3.332 0.58225 3.25 0.683 3.25H2V8.75875L0.5 12.8497V3.433ZM11.9672 14.3958C11.9507 14.457 11.8948 14.5 11.831 14.5H0.64125C0.5805 14.5 0.545 14.4653 0.52925 14.4445C0.5135 14.424 0.48925 14.3805 0.4985 14.3425L2 10.2245V10.2257L3.04 7.37475L3.0465 7.35425C3.063 7.293 3.11925 7.25 3.18275 7.25H11.5H12H13.5H14.3725C14.4675 7.25 14.4917 7.3865 14.498 7.45475L11.9672 14.3958Z" fill="#515151"/>
<path d="M4 4.25H6.5C6.638 4.25 6.75 4.13825 6.75 4C6.75 3.86175 6.638 3.75 6.5 3.75H4C3.862 3.75 3.75 3.86175 3.75 4C3.75 4.13825 3.862 4.25 4 4.25Z" fill="#515151"/>
<path d="M4 2.5H6.5C6.638 2.5 6.75 2.38825 6.75 2.25C6.75 2.11175 6.638 2 6.5 2H4C3.862 2 3.75 2.11175 3.75 2.25C3.75 2.38825 3.862 2.5 4 2.5Z" fill="#515151"/>
<path d="M4 6H10C10.138 6 10.25 5.88825 10.25 5.75C10.25 5.61175 10.138 5.5 10 5.5H4C3.862 5.5 3.75 5.61175 3.75 5.75C3.75 5.88825 3.862 6 4 6Z" fill="#515151"/>
</g>
<defs>
<clipPath id="clip0_981_2004">
<rect width="15" height="15" fill="white"/>
</clipPath>
</defs>
</svg>
