<svg width="16" height="15" viewBox="0 0 16 15" fill="none" xmlns="http://www.w3.org/2000/svg">
<path d="M7.59871 0C3.88844 0 0.866089 3.02235 0.866089 6.73263C0.866089 10.4429 3.88844 13.4711 7.59871 13.4711C9.18348 13.4711 10.641 12.9157 11.7929 11.9936L14.5973 14.7966C14.7388 14.9322 14.9278 15.0071 15.1239 15.0051C15.3199 15.0031 15.5074 14.9244 15.6461 14.7859C15.7848 14.6473 15.8638 14.46 15.866 14.264C15.8683 14.068 15.7937 13.8788 15.6583 13.7371L12.8539 10.9327C13.7767 9.77902 14.3328 8.31923 14.3328 6.73263C14.3328 3.02235 11.309 0 7.59871 0ZM7.59871 1.49649C10.5002 1.49649 12.8349 3.83111 12.8349 6.73263C12.8349 9.63414 10.5002 11.9746 7.59871 11.9746C4.69719 11.9746 2.36255 9.63414 2.36255 6.73263C2.36255 3.83111 4.69719 1.49649 7.59871 1.49649Z" fill="#9DA5B0"/>
</svg>
