<svg width="64" height="64" viewBox="0 0 64 64" fill="none" xmlns="http://www.w3.org/2000/svg">
<g id="Celebration_Microspot">
<g id="Celebration_Microspot_2">
<g id="Microspot">
<g id="Clip_path_group">
<mask id="mask0_13216_228522" style="mask-type:luminance" maskUnits="userSpaceOnUse" x="12" y="52" width="40" height="8">
<g id="clippath">
<path id="Vector" d="M15 52H49C50.66 52 52 53.34 52 55V60H12V55C12 53.34 13.34 52 15 52Z" fill="white"><animate attributeName="d" dur="3000ms" repeatCount="indefinite" values="M15 52C49 52 49 52 49 52C50.66 52 52 53.34 52 55C52 60 52 60 52 60C12 60 12 60 12 60C12 55 12 55 12 55C12 53.34 13.34 52 15 52Z;M15 52C49 52 49 52 49 52C50.66 52 52 53.34 52 55C52 60 52 60 52 60C12 60 12 60 12 60C12 55 12 55 12 55C12 53.34 13.34 52 15 52Z;M15 52C49 52 49 52 49 52C50.66 52 52 53.34 52 55C52 60 52 60 52 60C12 60 12 60 12 60C12 55 12 55 12 55C12 53.34 13.34 52 15 52Z" calcMode="spline" keyTimes="0; 0.50; 1" keySplines="0.25 0.1 0.25 1;0.25 0.1 0.25 1"></animate></path>
</g>
</mask>
<g mask="url(#mask0_13216_228522)">
<g id="Group">
<path id="Vector_2" d="M15 52H49C50.66 52 52 53.34 52 55V60H12V55C12 53.34 13.34 52 15 52Z" fill="#FFBB00"><animate attributeName="d" dur="3000ms" repeatCount="indefinite" values="M15 52C49 52 49 52 49 52C50.66 52 52 53.34 52 55C52 60 52 60 52 60C12 60 12 60 12 60C12 55 12 55 12 55C12 53.34 13.34 52 15 52Z;M15 52C49 52 49 52 49 52C50.66 52 52 53.34 52 55C52 60 52 60 52 60C12 60 12 60 12 60C12 55 12 55 12 55C12 53.34 13.34 52 15 52Z;M15 52C49 52 49 52 49 52C50.66 52 52 53.34 52 55C52 60 52 60 52 60C12 60 12 60 12 60C12 55 12 55 12 55C12 53.34 13.34 52 15 52Z" calcMode="spline" keyTimes="0; 0.50; 1" keySplines="0.25 0.1 0.25 1;0.25 0.1 0.25 1"></animate></path>
<path id="Vector_3" d="M49.0011 52H43.6211C45.2811 52 46.6211 53.34 46.6211 55V60H52.0011V55C52.0011 53.34 50.6611 52 49.0011 52Z" fill="#E69900"><animate attributeName="d" dur="3000ms" repeatCount="indefinite" values="M49.0011 52C43.6211 52 43.6211 52 43.6211 52C45.2811 52 46.6211 53.34 46.6211 55C46.6211 60 46.6211 60 46.6211 60C52.0011 60 52.0011 60 52.0011 60C52.0011 55 52.0011 55 52.0011 55C52.0011 53.34 50.6611 52 49.0011 52Z;M49.0011 52C43.6211 52 43.6211 52 43.6211 52C45.2811 52 46.6211 53.34 46.6211 55C46.6211 60 46.6211 60 46.6211 60C52.0011 60 52.0011 60 52.0011 60C52.0011 55 52.0011 55 52.0011 55C52.0011 53.34 50.6611 52 49.0011 52Z;M49.0011 52C43.6211 52 43.6211 52 43.6211 52C45.2811 52 46.6211 53.34 46.6211 55C46.6211 60 46.6211 60 46.6211 60C52.0011 60 52.0011 60 52.0011 60C52.0011 55 52.0011 55 52.0011 55C52.0011 53.34 50.6611 52 49.0011 52Z" calcMode="spline" keyTimes="0; 0.50; 1" keySplines="0.25 0.1 0.25 1;0.25 0.1 0.25 1"></animate></path>
<path id="Vector_4" d="M20.5186 52H17.5586C15.8986 52 14.5586 53.34 14.5586 55V60H17.5186V55C17.5186 53.34 18.8586 52 20.5186 52Z" fill="#FFD321"><animate attributeName="d" dur="3000ms" repeatCount="indefinite" values="M20.5186 52C17.5586 52 17.5586 52 17.5586 52C15.8986 52 14.5586 53.34 14.5586 55C14.5586 60 14.5586 60 14.5586 60C17.5186 60 17.5186 60 17.5186 60C17.5186 55 17.5186 55 17.5186 55C17.5186 53.34 18.8586 52 20.5186 52Z;M20.5186 52C17.5586 52 17.5586 52 17.5586 52C15.8986 52 14.5586 53.34 14.5586 55C14.5586 60 14.5586 60 14.5586 60C17.5186 60 17.5186 60 17.5186 60C17.5186 55 17.5186 55 17.5186 55C17.5186 53.34 18.8586 52 20.5186 52Z;M20.5186 52C17.5586 52 17.5586 52 17.5586 52C15.8986 52 14.5586 53.34 14.5586 55C14.5586 60 14.5586 60 14.5586 60C17.5186 60 17.5186 60 17.5186 60C17.5186 55 17.5186 55 17.5186 55C17.5186 53.34 18.8586 52 20.5186 52Z" calcMode="spline" keyTimes="0; 0.50; 1" keySplines="0.25 0.1 0.25 1;0.25 0.1 0.25 1"></animate></path>
</g>
</g>
</g>
<g id="Group_2">
<path id="Vector_5" d="M32 49H14.4C13 49 11.78 48.03 11.47 46.66L5 18L23 31L32 9V49Z" fill="#FFBB00"><animate attributeName="d" dur="3000ms" repeatCount="indefinite" values="M32 49C14.4 49 14.4 49 14.4 49C13 49 11.78 48.03 11.47 46.66C5 18 5 18 5 18C23 31 23 31 23 31C32 9 32 9 32 9C32 49 32 49 32 49Z;M32 49C14.4 49 14.4 49 14.4 49C13 49 11.78 48.03 11.47 46.66C5 18 5 18 5 18C23 31 23 31 23 31C32 9 32 9 32 9C32 49 32 49 32 49Z;M32 49C14.4 49 14.4 49 14.4 49C13 49 11.78 48.03 11.47 46.66C5 18 5 18 5 18C23 31 23 31 23 31C32 9 32 9 32 9C32 49 32 49 32 49Z" calcMode="spline" keyTimes="0; 0.50; 1" keySplines="0.25 0.1 0.25 1;0.25 0.1 0.25 1"></animate></path>
<path id="Vector_6" d="M5 18L11.47 46.66C11.78 48.03 12.99 49 14.4 49H15.23L19 40L5 18Z" fill="#FFD321"><animate attributeName="d" dur="3000ms" repeatCount="indefinite" values="M5 18C11.47 46.66 11.47 46.66 11.47 46.66C11.78 48.03 12.99 49 14.4 49C15.23 49 15.23 49 15.23 49C19 40 19 40 19 40C5 18 5 18 5 18Z;M5 18C11.47 46.66 11.47 46.66 11.47 46.66C11.78 48.03 12.99 49 14.4 49C15.23 49 15.23 49 15.23 49C19 40 19 40 19 40C5 18 5 18 5 18Z;M5 18C11.47 46.66 11.47 46.66 11.47 46.66C11.78 48.03 12.99 49 14.4 49C15.23 49 15.23 49 15.23 49C19 40 19 40 19 40C5 18 5 18 5 18Z" calcMode="spline" keyTimes="0; 0.50; 1" keySplines="0.25 0.1 0.25 1;0.25 0.1 0.25 1"></animate></path>
<path id="Vector_7" d="M23 31L19 40L5 18L23 31Z" fill="#E69900"><animate attributeName="d" dur="3000ms" repeatCount="indefinite" values="M23 31C19 40 19 40 19 40C5 18 5 18 5 18C23 31 23 31 23 31Z;M23 31C19 40 19 40 19 40C5 18 5 18 5 18C23 31 23 31 23 31Z;M23 31C19 40 19 40 19 40C5 18 5 18 5 18C23 31 23 31 23 31Z" calcMode="spline" keyTimes="0; 0.50; 1" keySplines="0.25 0.1 0.25 1;0.25 0.1 0.25 1"></animate></path>
</g>
<g id="Group_3">
<path id="Vector_8" d="M32 49H49.6C51 49 52.22 48.03 52.53 46.66L59 18L41 31L32 9V49Z" fill="#E69900"><animate attributeName="d" dur="3000ms" repeatCount="indefinite" values="M32 49C49.6 49 49.6 49 49.6 49C51 49 52.22 48.03 52.53 46.66C59 18 59 18 59 18C41 31 41 31 41 31C32 9 32 9 32 9C32 49 32 49 32 49Z;M32 49C49.6 49 49.6 49 49.6 49C51 49 52.22 48.03 52.53 46.66C59 18 59 18 59 18C41 31 41 31 41 31C32 9 32 9 32 9C32 49 32 49 32 49Z;M32 49C49.6 49 49.6 49 49.6 49C51 49 52.22 48.03 52.53 46.66C59 18 59 18 59 18C41 31 41 31 41 31C32 9 32 9 32 9C32 49 32 49 32 49Z" calcMode="spline" keyTimes="0; 0.50; 1" keySplines="0.25 0.1 0.25 1;0.25 0.1 0.25 1"></animate></path>
<path id="Vector_9" d="M59 18L52.53 46.66C52.22 48.03 51.01 49 49.6 49H48.77L45 40L59 18Z" fill="#E69900"><animate attributeName="d" dur="3000ms" repeatCount="indefinite" values="M59 18C52.53 46.66 52.53 46.66 52.53 46.66C52.22 48.03 51.01 49 49.6 49C48.77 49 48.77 49 48.77 49C45 40 45 40 45 40C59 18 59 18 59 18Z;M59 18C52.53 46.66 52.53 46.66 52.53 46.66C52.22 48.03 51.01 49 49.6 49C48.77 49 48.77 49 48.77 49C45 40 45 40 45 40C59 18 59 18 59 18Z;M59 18C52.53 46.66 52.53 46.66 52.53 46.66C52.22 48.03 51.01 49 49.6 49C48.77 49 48.77 49 48.77 49C45 40 45 40 45 40C59 18 59 18 59 18Z" calcMode="spline" keyTimes="0; 0.50; 1" keySplines="0.25 0.1 0.25 1;0.25 0.1 0.25 1"></animate></path>
<path id="Vector_10" d="M41 31L45 40L59 18L41 31Z" fill="#FFD321"><animate attributeName="d" dur="3000ms" repeatCount="indefinite" values="M41 31C45 40 45 40 45 40C59 18 59 18 59 18C41 31 41 31 41 31Z;M41 31C45 40 45 40 45 40C59 18 59 18 59 18C41 31 41 31 41 31Z;M41 31C45 40 45 40 45 40C59 18 59 18 59 18C41 31 41 31 41 31Z" calcMode="spline" keyTimes="0; 0.50; 1" keySplines="0.25 0.1 0.25 1;0.25 0.1 0.25 1"></animate></path>
</g>
<path id="Vector_11" d="M5 23C7.76142 23 10 20.7614 10 18C10 15.2386 7.76142 13 5 13C2.23858 13 0 15.2386 0 18C0 20.7614 2.23858 23 5 23Z" fill="#FFBB00"><animate attributeName="d" dur="3000ms" repeatCount="indefinite" values="M5 23C7.76142 23 10 20.7614 10 18C10 15.2386 7.76142 13 5 13C2.23858 13 0 15.2386 0 18C0 20.7614 2.23858 23 5 23Z;M5 23C7.76142 23 10 20.7614 10 18C10 15.2386 7.76142 13 5 13C2.23858 13 0 15.2386 0 18C0 20.7614 2.23858 23 5 23Z;M5 23C7.76142 23 10 20.7614 10 18C10 15.2386 7.76142 13 5 13C2.23858 13 0 15.2386 0 18C0 20.7614 2.23858 23 5 23Z" calcMode="spline" keyTimes="0; 0.50; 1" keySplines="0.25 0.1 0.25 1;0.25 0.1 0.25 1"></animate></path>
<g id="Group_4">
<path id="Vector_12" d="M2.71 18C2.71 15.24 3.73 13 5 13C2.24 13 0 15.24 0 18C0 20.76 2.24 23 5 23C3.74 23 2.71 20.76 2.71 18Z" fill="#FFD321"><animate attributeName="d" dur="3000ms" repeatCount="indefinite" values="M2.71 18C2.71 15.24 3.73 13 5 13C2.24 13 0 15.24 0 18C0 20.76 2.24 23 5 23C3.74 23 2.71 20.76 2.71 18Z;M2.71 18C2.71 15.24 3.73 13 5 13C2.24 13 0 15.24 0 18C0 20.76 2.24 23 5 23C3.74 23 2.71 20.76 2.71 18Z;M2.71 18C2.71 15.24 3.73 13 5 13C2.24 13 0 15.24 0 18C0 20.76 2.24 23 5 23C3.74 23 2.71 20.76 2.71 18Z" calcMode="spline" keyTimes="0; 0.50; 1" keySplines="0.25 0.1 0.25 1;0.25 0.1 0.25 1"></animate></path>
<path id="Vector_13" d="M5 13C6.26 13 7.29 15.24 7.29 18C7.29 20.76 6.27 23 5 23C7.76 23 10 20.76 10 18C10 15.24 7.76 13 5 13Z" fill="#FFBB00"><animate attributeName="d" dur="3000ms" repeatCount="indefinite" values="M5 13C6.26 13 7.29 15.24 7.29 18C7.29 20.76 6.27 23 5 23C7.76 23 10 20.76 10 18C10 15.24 7.76 13 5 13Z;M5 13C6.26 13 7.29 15.24 7.29 18C7.29 20.76 6.27 23 5 23C7.76 23 10 20.76 10 18C10 15.24 7.76 13 5 13Z;M5 13C6.26 13 7.29 15.24 7.29 18C7.29 20.76 6.27 23 5 23C7.76 23 10 20.76 10 18C10 15.24 7.76 13 5 13Z" calcMode="spline" keyTimes="0; 0.50; 1" keySplines="0.25 0.1 0.25 1;0.25 0.1 0.25 1"></animate></path>
<path id="Vector_14" d="M5.00094 23C6.26567 23 7.29094 20.7614 7.29094 18C7.29094 15.2386 6.26567 13 5.00094 13C3.73621 13 2.71094 15.2386 2.71094 18C2.71094 20.7614 3.73621 23 5.00094 23Z" fill="#FFBB00"><animate attributeName="d" dur="3000ms" repeatCount="indefinite" values="M5.00094 23C6.26567 23 7.29094 20.7614 7.29094 18C7.29094 15.2386 6.26567 13 5.00094 13C3.73621 13 2.71094 15.2386 2.71094 18C2.71094 20.7614 3.73621 23 5.00094 23Z;M5.00094 23C6.26567 23 7.29094 20.7614 7.29094 18C7.29094 15.2386 6.26567 13 5.00094 13C3.73621 13 2.71094 15.2386 2.71094 18C2.71094 20.7614 3.73621 23 5.00094 23Z;M5.00094 23C6.26567 23 7.29094 20.7614 7.29094 18C7.29094 15.2386 6.26567 13 5.00094 13C3.73621 13 2.71094 15.2386 2.71094 18C2.71094 20.7614 3.73621 23 5.00094 23Z" calcMode="spline" keyTimes="0; 0.50; 1" keySplines="0.25 0.1 0.25 1;0.25 0.1 0.25 1"></animate></path>
</g>
<g id="Group_5">
<path id="Vector_15" d="M56.71 18C56.71 15.24 57.73 13 59 13C56.24 13 54 15.24 54 18C54 20.76 56.24 23 59 23C57.74 23 56.71 20.76 56.71 18Z" fill="#FFD321"><animate attributeName="d" dur="3000ms" repeatCount="indefinite" values="M56.71 18C56.71 15.24 57.73 13 59 13C56.24 13 54 15.24 54 18C54 20.76 56.24 23 59 23C57.74 23 56.71 20.76 56.71 18Z;M56.71 18C56.71 15.24 57.73 13 59 13C56.24 13 54 15.24 54 18C54 20.76 56.24 23 59 23C57.74 23 56.71 20.76 56.71 18Z;M56.71 18C56.71 15.24 57.73 13 59 13C56.24 13 54 15.24 54 18C54 20.76 56.24 23 59 23C57.74 23 56.71 20.76 56.71 18Z" calcMode="spline" keyTimes="0; 0.50; 1" keySplines="0.25 0.1 0.25 1;0.25 0.1 0.25 1"></animate></path>
<path id="Vector_16" d="M59 13C60.26 13 61.29 15.24 61.29 18C61.29 20.76 60.27 23 59 23C61.76 23 64 20.76 64 18C64 15.24 61.76 13 59 13Z" fill="#FFBB00"><animate attributeName="d" dur="3000ms" repeatCount="indefinite" values="M59 13C60.26 13 61.29 15.24 61.29 18C61.29 20.76 60.27 23 59 23C61.76 23 64 20.76 64 18C64 15.24 61.76 13 59 13Z;M59 13C60.26 13 61.29 15.24 61.29 18C61.29 20.76 60.27 23 59 23C61.76 23 64 20.76 64 18C64 15.24 61.76 13 59 13Z;M59 13C60.26 13 61.29 15.24 61.29 18C61.29 20.76 60.27 23 59 23C61.76 23 64 20.76 64 18C64 15.24 61.76 13 59 13Z" calcMode="spline" keyTimes="0; 0.50; 1" keySplines="0.25 0.1 0.25 1;0.25 0.1 0.25 1"></animate></path>
<path id="Vector_17" d="M59.0009 23C60.2657 23 61.2909 20.7614 61.2909 18C61.2909 15.2386 60.2657 13 59.0009 13C57.7362 13 56.7109 15.2386 56.7109 18C56.7109 20.7614 57.7362 23 59.0009 23Z" fill="#FFBB00"><animate attributeName="d" dur="3000ms" repeatCount="indefinite" values="M59.0009 23C60.2657 23 61.2909 20.7614 61.2909 18C61.2909 15.2386 60.2657 13 59.0009 13C57.7362 13 56.7109 15.2386 56.7109 18C56.7109 20.7614 57.7362 23 59.0009 23Z;M59.0009 23C60.2657 23 61.2909 20.7614 61.2909 18C61.2909 15.2386 60.2657 13 59.0009 13C57.7362 13 56.7109 15.2386 56.7109 18C56.7109 20.7614 57.7362 23 59.0009 23Z;M59.0009 23C60.2657 23 61.2909 20.7614 61.2909 18C61.2909 15.2386 60.2657 13 59.0009 13C57.7362 13 56.7109 15.2386 56.7109 18C56.7109 20.7614 57.7362 23 59.0009 23Z" calcMode="spline" keyTimes="0; 0.50; 1" keySplines="0.25 0.1 0.25 1;0.25 0.1 0.25 1"></animate></path>
</g>
<g id="Group_6">
<path id="Vector_18" d="M29.7491 9C29.7491 6.24 30.7691 4 32.0391 4C29.2791 4 27.0391 6.24 27.0391 9C27.0391 11.76 29.2791 14 32.0391 14C30.7791 14 29.7491 11.76 29.7491 9Z" fill="#FFD321"><animate attributeName="d" dur="3000ms" repeatCount="indefinite" values="M29.7491 9C29.7491 6.24 30.7691 4 32.0391 4C29.2791 4 27.0391 6.24 27.0391 9C27.0391 11.76 29.2791 14 32.0391 14C30.7791 14 29.7491 11.76 29.7491 9Z;M29.7491 9C29.7491 6.24 30.7691 4 32.0391 4C29.2791 4 27.0391 6.24 27.0391 9C27.0391 11.76 29.2791 14 32.0391 14C30.7791 14 29.7491 11.76 29.7491 9Z;M29.7491 9C29.7491 6.24 30.7691 4 32.0391 4C29.2791 4 27.0391 6.24 27.0391 9C27.0391 11.76 29.2791 14 32.0391 14C30.7791 14 29.7491 11.76 29.7491 9Z" calcMode="spline" keyTimes="0; 0.50; 1" keySplines="0.25 0.1 0.25 1;0.25 0.1 0.25 1"></animate></path>
<path id="Vector_19" d="M32.0391 4C33.2991 4 34.3291 6.24 34.3291 9C34.3291 11.76 33.3091 14 32.0391 14C34.7991 14 37.0391 11.76 37.0391 9C37.0391 6.24 34.7991 4 32.0391 4Z" fill="#FFBB00"><animate attributeName="d" dur="3000ms" repeatCount="indefinite" values="M32.0391 4C33.2991 4 34.3291 6.24 34.3291 9C34.3291 11.76 33.3091 14 32.0391 14C34.7991 14 37.0391 11.76 37.0391 9C37.0391 6.24 34.7991 4 32.0391 4Z;M32.0391 4C33.2991 4 34.3291 6.24 34.3291 9C34.3291 11.76 33.3091 14 32.0391 14C34.7991 14 37.0391 11.76 37.0391 9C37.0391 6.24 34.7991 4 32.0391 4Z;M32.0391 4C33.2991 4 34.3291 6.24 34.3291 9C34.3291 11.76 33.3091 14 32.0391 14C34.7991 14 37.0391 11.76 37.0391 9C37.0391 6.24 34.7991 4 32.0391 4Z" calcMode="spline" keyTimes="0; 0.50; 1" keySplines="0.25 0.1 0.25 1;0.25 0.1 0.25 1"></animate></path>
<path id="Vector_20" d="M32.04 14C33.3047 14 34.33 11.7614 34.33 9C34.33 6.23858 33.3047 4 32.04 4C30.7753 4 29.75 6.23858 29.75 9C29.75 11.7614 30.7753 14 32.04 14Z" fill="#FFBB00"><animate attributeName="d" dur="3000ms" repeatCount="indefinite" values="M32.04 14C33.3047 14 34.33 11.7614 34.33 9C34.33 6.23858 33.3047 4 32.04 4C30.7753 4 29.75 6.23858 29.75 9C29.75 11.7614 30.7753 14 32.04 14Z;M32.04 14C33.3047 14 34.33 11.7614 34.33 9C34.33 6.23858 33.3047 4 32.04 4C30.7753 4 29.75 6.23858 29.75 9C29.75 11.7614 30.7753 14 32.04 14Z;M32.04 14C33.3047 14 34.33 11.7614 34.33 9C34.33 6.23858 33.3047 4 32.04 4C30.7753 4 29.75 6.23858 29.75 9C29.75 11.7614 30.7753 14 32.04 14Z" calcMode="spline" keyTimes="0; 0.50; 1" keySplines="0.25 0.1 0.25 1;0.25 0.1 0.25 1"></animate></path>
</g>
<path id="Vector_21" opacity="0.01" d="M45.065 37.1249C45.41 34.9949 47.095 33.3099 49.225 32.9649C49.3 32.9499 49.3 32.8449 49.225 32.8349C47.095 32.4899 45.41 30.8049 45.065 28.6749C45.05 28.5999 44.945 28.5999 44.935 28.6749C44.59 30.8049 42.905 32.4899 40.775 32.8349C40.7 32.8499 40.7 32.9549 40.775 32.9649C42.905 33.3099 44.59 34.9949 44.935 37.1249C44.95 37.1999 45.055 37.1999 45.065 37.1249Z" fill="#FDEBB9"><animate attributeName="d" dur="3000ms" repeatCount="indefinite" values="M45.065 37.1249C45.41 34.9949 47.095 33.3099 49.225 32.9649C49.3 32.9499 49.3 32.8449 49.225 32.8349C47.095 32.4899 45.41 30.8049 45.065 28.6749C45.05 28.5999 44.945 28.5999 44.935 28.6749C44.59 30.8049 42.905 32.4899 40.775 32.8349C40.7 32.8499 40.7 32.9549 40.775 32.9649C42.905 33.3099 44.59 34.9949 44.935 37.1249C44.95 37.1999 45.055 37.1999 45.065 37.1249Z;M53.45 32.7699C49.19 32.0799 45.82 28.7099 45.13 24.4499C45.1 24.2999 44.89 24.2999 44.87 24.4499C44.18 28.7099 40.81 32.0799 36.55 32.7699C36.4 32.7999 36.4 33.0099 36.55 33.0299C40.81 33.7199 44.18 37.0899 44.87 41.3499C44.9 41.4999 45.11 41.4999 45.13 41.3499C45.82 37.0899 49.19 33.7199 53.45 33.0299C53.6 32.9999 53.6 32.7899 53.45 32.7699Z;M45.065 37.1249C45.41 34.9949 47.095 33.3099 49.225 32.9649C49.3 32.9499 49.3 32.8449 49.225 32.8349C47.095 32.4899 45.41 30.8049 45.065 28.6749C45.05 28.5999 44.945 28.5999 44.935 28.6749C44.59 30.8049 42.905 32.4899 40.775 32.8349C40.7 32.8499 40.7 32.9549 40.775 32.9649C42.905 33.3099 44.59 34.9949 44.935 37.1249C44.95 37.1999 45.055 37.1999 45.065 37.1249Z" calcMode="spline" keyTimes="0; 0.50; 1" keySplines="0.25 0.1 0.25 1;0.25 0.1 0.25 1"></animate><animate attributeName="opacity" dur="3000ms" repeatCount="indefinite" values="0.01;1;0.01" calcMode="spline" keyTimes="0; 0.50; 1" keySplines="0.25 0.1 0.25 1;0.25 0.1 0.25 1"></animate></path>
<path id="Vector_22" opacity="0.01" d="M24.2127 52.5796C23.8277 54.9316 21.9727 56.7866 19.6207 57.1716C19.5367 57.1856 19.5367 57.3046 19.6207 57.3186C21.9727 57.7036 23.8277 59.5586 24.2127 61.9106C24.2267 61.9946 24.3457 61.9946 24.3597 61.9106C24.7447 59.5586 26.5997 57.7036 28.9517 57.3186C29.0357 57.3046 29.0357 57.1856 28.9517 57.1716C26.5997 56.7866 24.7447 54.9316 24.3597 52.5796C24.3457 52.4956 24.2267 52.4956 24.2127 52.5796Z" fill="#FDEBB9"><animate attributeName="d" dur="3000ms" repeatCount="indefinite" values="M24.2127 52.5796C23.8277 54.9316 21.9727 56.7866 19.6207 57.1716C19.5367 57.1856 19.5367 57.3046 19.6207 57.3186C21.9727 57.7036 23.8277 59.5586 24.2127 61.9106C24.2267 61.9946 24.3457 61.9946 24.3597 61.9106C24.7447 59.5586 26.5997 57.7036 28.9517 57.3186C29.0357 57.3046 29.0357 57.1856 28.9517 57.1716C26.5997 56.7866 24.7447 54.9316 24.3597 52.5796C24.3457 52.4956 24.2267 52.4956 24.2127 52.5796Z;M30.9513 57.1402C27.5913 56.5902 24.9412 53.9402 24.3912 50.5802C24.3712 50.4602 24.2012 50.4602 24.1812 50.5802C23.6312 53.9402 20.9812 56.5902 17.6212 57.1402C17.5012 57.1602 17.5012 57.3302 17.6212 57.3502C20.9812 57.9002 23.6312 60.5502 24.1812 63.9102C24.2012 64.0302 24.3712 64.0302 24.3912 63.9102C24.9412 60.5502 27.5913 57.9002 30.9513 57.3502C31.0713 57.3302 31.0713 57.1602 30.9513 57.1402Z;M24.2127 52.5796C23.8277 54.9316 21.9727 56.7866 19.6207 57.1716C19.5367 57.1856 19.5367 57.3046 19.6207 57.3186C21.9727 57.7036 23.8277 59.5586 24.2127 61.9106C24.2267 61.9946 24.3457 61.9946 24.3597 61.9106C24.7447 59.5586 26.5997 57.7036 28.9517 57.3186C29.0357 57.3046 29.0357 57.1856 28.9517 57.1716C26.5997 56.7866 24.7447 54.9316 24.3597 52.5796C24.3457 52.4956 24.2267 52.4956 24.2127 52.5796Z" calcMode="spline" keyTimes="0; 0.50; 1" keySplines="0.25 0.1 0.25 1;0.25 0.1 0.25 1"></animate><animate attributeName="opacity" dur="3000ms" repeatCount="indefinite" values="0.01;1;0.01" calcMode="spline" keyTimes="0; 0.50; 1" keySplines="0.25 0.1 0.25 1;0.25 0.1 0.25 1"></animate></path>
<path id="Vector_23" opacity="0.01" d="M29.7062 2.1421C29.4758 3.5605 28.3598 4.6765 26.9414 4.9069C26.891 4.9141 26.891 4.9861 26.9414 4.9933C28.3598 5.2237 29.4758 6.3397 29.7062 7.7581C29.7134 7.8085 29.7854 7.8085 29.7926 7.7581C30.023 6.3397 31.139 5.2237 32.5574 4.9933C32.6078 4.9861 32.6078 4.9141 32.5574 4.9069C31.139 4.6765 30.023 3.5605 29.7926 2.1421C29.7854 2.0917 29.7134 2.0917 29.7062 2.1421Z" fill="#FDEBB9"><animate attributeName="d" dur="3000ms" repeatCount="indefinite" values="M29.7062 2.1421C29.4758 3.5605 28.3598 4.6765 26.9414 4.9069C26.891 4.9141 26.891 4.9861 26.9414 4.9933C28.3598 5.2237 29.4758 6.3397 29.7062 7.7581C29.7134 7.8085 29.7854 7.8085 29.7926 7.7581C30.023 6.3397 31.139 5.2237 32.5574 4.9933C32.6078 4.9861 32.6078 4.9141 32.5574 4.9069C31.139 4.6765 30.023 3.5605 29.7926 2.1421C29.7854 2.0917 29.7134 2.0917 29.7062 2.1421Z;M33.6494 3.89006C31.6794 3.57006 30.1294 2.02006 29.8094 0.0500586C29.7994 -0.0199414 29.6994 -0.0199414 29.6894 0.0500586C29.3694 2.02006 27.8194 3.57006 25.8494 3.89006C25.7794 3.90006 25.7794 4.00006 25.8494 4.01006C27.8194 4.33006 29.3694 5.88006 29.6894 7.85006C29.6994 7.92006 29.7994 7.92006 29.8094 7.85006C30.1294 5.88006 31.6794 4.33006 33.6494 4.01006C33.7194 4.00006 33.7194 3.90006 33.6494 3.89006Z;M29.7062 2.1421C29.4758 3.5605 28.3598 4.6765 26.9414 4.9069C26.891 4.9141 26.891 4.9861 26.9414 4.9933C28.3598 5.2237 29.4758 6.3397 29.7062 7.7581C29.7134 7.8085 29.7854 7.8085 29.7926 7.7581C30.023 6.3397 31.139 5.2237 32.5574 4.9933C32.6078 4.9861 32.6078 4.9141 32.5574 4.9069C31.139 4.6765 30.023 3.5605 29.7926 2.1421C29.7854 2.0917 29.7134 2.0917 29.7062 2.1421Z" calcMode="spline" keyTimes="0; 0.50; 1" keySplines="0.25 0.1 0.25 1;0.25 0.1 0.25 1"></animate><animate attributeName="opacity" dur="3000ms" repeatCount="indefinite" values="0.01;1;0.01" calcMode="spline" keyTimes="0; 0.50; 1" keySplines="0.25 0.1 0.25 1;0.25 0.1 0.25 1"></animate></path>
</g>
</g>
</g>
</svg>