<svg width="400" height="40" viewBox="0 0 400 40" fill="none" xmlns="http://www.w3.org/2000/svg">
<path d="M43.5 24.415V34.75H38.25V25.66C38.25 22.885 36.6975 21.73 35.25 21.73C34.2566 21.7017 33.2926 22.069 32.5698 22.751C31.8469 23.433 31.4244 24.3741 31.395 25.3675C31.3875 25.4949 31.3875 25.6226 31.395 25.75V34.75H26.25V17.5H31.2V19.9375H31.2675C31.785 18.88 33.9975 17.125 37.0125 17.125C40.0275 17.125 43.5 19.165 43.5 24.415ZM18 34.75H23.25V17.5H18V34.75ZM20.625 8.8375C20.0259 8.8449 19.4424 9.02931 18.9478 9.36754C18.4532 9.70577 18.0698 10.1827 17.8456 10.7383C17.6214 11.294 17.5666 11.9035 17.688 12.4902C17.8094 13.077 18.1016 13.6147 18.5279 14.0357C18.9541 14.4568 19.4954 14.7424 20.0836 14.8566C20.6717 14.9708 21.2805 14.9085 21.8334 14.6775C22.3862 14.4466 22.8584 14.0573 23.1906 13.5586C23.5227 13.0599 23.7 12.4742 23.7 11.875C23.7 11.0794 23.3839 10.3163 22.8213 9.75368C22.2587 9.19107 21.4956 8.875 20.7 8.875L20.625 8.8375ZM142.5 6.625V37.375C142.5 38.0712 142.223 38.7389 141.731 39.2312C141.239 39.7234 140.571 40 139.875 40H109.125C108.429 40 107.761 39.7234 107.269 39.2312C106.777 38.7389 106.5 38.0712 106.5 37.375V6.625C106.5 5.92881 106.777 5.26113 107.269 4.76884C107.761 4.27656 108.429 4 109.125 4H139.875C140.571 4 141.239 4.27656 141.731 4.76884C142.223 5.26113 142.5 5.92881 142.5 6.625ZM117 17.5H111.75V34.75H117V17.5ZM117.45 11.875C117.457 11.2669 117.284 10.6702 116.953 10.1605C116.621 9.65079 116.145 9.25086 115.586 9.01132C115.027 8.77177 114.41 8.70336 113.812 8.81474C113.214 8.92611 112.663 9.21227 112.228 9.63703C111.792 10.0618 111.493 10.6061 111.367 11.201C111.241 11.796 111.294 12.415 111.52 12.9796C111.746 13.5443 112.134 14.0293 112.636 14.3734C113.137 14.7174 113.729 14.905 114.337 14.9125H114.375C114.769 14.9225 115.161 14.8547 115.529 14.7131C115.897 14.5715 116.233 14.3588 116.519 14.0871C116.804 13.8155 117.033 13.4903 117.193 13.13C117.353 12.7697 117.44 12.3815 117.45 11.9875V11.875ZM137.25 24.415C137.25 19.165 133.778 17.125 130.763 17.125C127.748 17.125 125.513 18.88 125.018 19.9375H124.95V17.5H120V34.75H125.25V25.75C125.25 22.9825 127.132 21.7525 128.962 21.7525C130.462 21.7525 132 22.9075 132 25.6825V34.75H137.25V24.415ZM6 9.25H0V34.75H15.75V29.5H6V9.25ZM81 26.3275V27.8275H68.25C68.2592 27.9389 68.2871 28.0479 68.3325 28.15C68.7675 29.5975 70.335 30.82 72.645 30.82C73.3737 30.8566 74.1009 30.724 74.7697 30.4325C75.4385 30.141 76.0308 29.6986 76.5 29.14L80.325 31.525C79.3931 32.6984 78.198 33.6358 76.8363 34.2613C75.4747 34.8867 73.9848 35.1826 72.4875 35.125C67.455 35.125 63 32.065 63 26.1925C63 20.32 67.5 17.125 72.33 17.125C77.16 17.125 81 20.3575 81 26.3275ZM75.75 24.25C75.75 22.45 74.58 20.965 72.1875 20.965C69.9375 20.965 68.37 22.465 68.25 24.25H75.75ZM63.945 17.5H57.51L51.855 24.5275H51.75V9.25H46.5V34.75H51.75V26.5H51.855L57.645 34.75H64.2225L57.15 25.3225L63.945 17.5ZM96 9.25H101.25V34.75H96.3V32.5H96.2325C95.5725 33.64 93.8025 35.1175 90.6825 35.1175C86.9325 35.1175 82.5 32.395 82.5 26.1175C82.5 20.47 86.325 17.155 90.615 17.155C91.609 17.1405 92.595 17.3331 93.5105 17.7204C94.426 18.1078 95.2508 18.6815 95.9325 19.405H96V9.25ZM96.225 26.1175C96.24 25.5521 96.1434 24.9893 95.9408 24.4613C95.7381 23.9332 95.4334 23.4503 95.0441 23.04C94.6547 22.6298 94.1884 22.3003 93.6716 22.0704C93.1549 21.8404 92.5979 21.7146 92.0325 21.7H91.92C90.8192 21.6738 89.753 22.0857 88.9557 22.845C88.1583 23.6044 87.695 24.6492 87.6675 25.75C87.6675 25.8625 87.6675 25.9675 87.6675 26.08C87.634 26.6316 87.7094 27.1843 87.8896 27.7067C88.0697 28.2291 88.3509 28.7109 88.7173 29.1246C89.0836 29.5383 89.5278 29.8758 90.0246 30.1178C90.5214 30.3598 91.0609 30.5015 91.6125 30.535H91.9125C93.0696 30.5192 94.1732 30.0454 94.9815 29.2173C95.7899 28.3893 96.237 27.2746 96.225 26.1175Z" fill="#0A66C2"/>
<path d="M184.849 32H181.025L179.136 26.6533H170.874L169.058 32H165.249L173.115 10.9941H177.041L184.849 32ZM178.213 23.8115L175.298 15.4326C175.21 15.1592 175.117 14.7197 175.02 14.1143H174.961C174.873 14.6709 174.775 15.1104 174.668 15.4326L171.782 23.8115H178.213ZM190.781 32H187.368V9.79297H190.781V32ZM198.633 32H195.22V9.79297H198.633V32ZM220.371 32.3516C218.857 32.3516 217.485 32.0928 216.255 31.5752C215.024 31.0576 213.975 30.335 213.105 29.4072C212.236 28.4697 211.562 27.3516 211.084 26.0527C210.605 24.7539 210.366 23.3184 210.366 21.7461C210.366 20.0664 210.605 18.543 211.084 17.1758C211.572 15.8086 212.261 14.6416 213.149 13.6748C214.048 12.708 215.137 11.9609 216.416 11.4336C217.695 10.9062 219.126 10.6426 220.708 10.6426C222.173 10.6426 223.511 10.9014 224.722 11.4189C225.933 11.9365 226.968 12.6641 227.827 13.6016C228.687 14.5293 229.351 15.6426 229.819 16.9414C230.298 18.2402 230.537 19.6709 230.537 21.2334C230.537 23.3037 230.19 25.1201 229.497 26.6826C228.804 28.2354 227.827 29.4854 226.567 30.4326L232.661 34.8271H227.358L223.608 31.9121C223.11 32.0488 222.593 32.1562 222.056 32.2344C221.519 32.3125 220.957 32.3516 220.371 32.3516ZM220.532 13.7041C219.575 13.7041 218.696 13.8945 217.896 14.2754C217.104 14.6465 216.421 15.1787 215.845 15.8721C215.269 16.5557 214.819 17.376 214.497 18.333C214.185 19.29 214.028 20.3545 214.028 21.5264C214.028 22.6885 214.18 23.748 214.482 24.7051C214.795 25.6621 215.229 26.4824 215.786 27.166C216.343 27.8398 217.012 28.3672 217.793 28.748C218.574 29.1191 219.438 29.3047 220.386 29.3047C221.392 29.3047 222.295 29.1289 223.096 28.7773C223.896 28.4258 224.575 27.9229 225.132 27.2686C225.698 26.6045 226.133 25.7939 226.436 24.8369C226.738 23.8799 226.89 22.791 226.89 21.5703C226.89 20.3203 226.743 19.207 226.45 18.2305C226.157 17.2539 225.737 16.4336 225.19 15.7695C224.644 15.0957 223.975 14.583 223.184 14.2314C222.402 13.8799 221.519 13.7041 220.532 13.7041ZM247.09 32H243.691V29.627H243.633C242.646 31.4434 241.113 32.3516 239.033 32.3516C235.488 32.3516 233.716 30.2227 233.716 25.9648V17H237.114V25.6133C237.114 28.3086 238.154 29.6562 240.234 29.6562C241.24 29.6562 242.065 29.2852 242.71 28.543C243.364 27.8008 243.691 26.8291 243.691 25.6279V17H247.09V32ZM264.229 25.4229H254.004C254.043 26.8096 254.468 27.8789 255.278 28.6309C256.099 29.3828 257.222 29.7588 258.647 29.7588C260.249 29.7588 261.719 29.2803 263.057 28.3232V31.0625C261.689 31.9219 259.883 32.3516 257.637 32.3516C255.43 32.3516 253.696 31.6729 252.437 30.3154C251.187 28.9482 250.562 27.0293 250.562 24.5586C250.562 22.2246 251.25 20.3252 252.627 18.8604C254.014 17.3857 255.732 16.6484 257.783 16.6484C259.834 16.6484 261.421 17.3076 262.544 18.626C263.667 19.9443 264.229 21.7754 264.229 24.1191V25.4229ZM260.947 23.0205C260.938 21.7998 260.649 20.8525 260.083 20.1787C259.517 19.4951 258.735 19.1533 257.739 19.1533C256.763 19.1533 255.933 19.5098 255.249 20.2227C254.575 20.9355 254.16 21.8682 254.004 23.0205H260.947ZM280.166 25.4229H269.941C269.98 26.8096 270.405 27.8789 271.216 28.6309C272.036 29.3828 273.159 29.7588 274.585 29.7588C276.187 29.7588 277.656 29.2803 278.994 28.3232V31.0625C277.627 31.9219 275.82 32.3516 273.574 32.3516C271.367 32.3516 269.634 31.6729 268.374 30.3154C267.124 28.9482 266.499 27.0293 266.499 24.5586C266.499 22.2246 267.188 20.3252 268.564 18.8604C269.951 17.3857 271.67 16.6484 273.721 16.6484C275.771 16.6484 277.358 17.3076 278.481 18.626C279.604 19.9443 280.166 21.7754 280.166 24.1191V25.4229ZM276.885 23.0205C276.875 21.7998 276.587 20.8525 276.021 20.1787C275.454 19.4951 274.673 19.1533 273.677 19.1533C272.7 19.1533 271.87 19.5098 271.187 20.2227C270.513 20.9355 270.098 21.8682 269.941 23.0205H276.885ZM296.763 32H293.364V23.5479C293.364 20.7451 292.373 19.3438 290.391 19.3438C289.355 19.3438 288.501 19.7344 287.827 20.5156C287.153 21.2871 286.816 22.2637 286.816 23.4453V32H283.403V17H286.816V19.4902H286.875C287.998 17.5957 289.619 16.6484 291.738 16.6484C293.369 16.6484 294.614 17.1807 295.474 18.2451C296.333 19.2998 296.763 20.8281 296.763 22.8301V32ZM299.985 31.5312V28.3818C301.255 29.3486 302.656 29.832 304.189 29.832C306.24 29.832 307.266 29.2266 307.266 28.0156C307.266 27.6738 307.178 27.3857 307.002 27.1514C306.826 26.9072 306.587 26.6924 306.284 26.5068C305.991 26.3213 305.64 26.1553 305.229 26.0088C304.829 25.8623 304.38 25.6963 303.882 25.5107C303.267 25.2666 302.71 25.0078 302.212 24.7344C301.724 24.4609 301.313 24.1533 300.981 23.8115C300.659 23.46 300.415 23.0645 300.249 22.625C300.083 22.1855 300 21.6729 300 21.0869C300 20.3643 300.171 19.7295 300.513 19.1826C300.854 18.626 301.313 18.1621 301.89 17.791C302.466 17.4102 303.12 17.127 303.853 16.9414C304.585 16.7461 305.342 16.6484 306.123 16.6484C307.51 16.6484 308.75 16.8584 309.844 17.2783V20.252C308.789 19.5293 307.578 19.168 306.211 19.168C305.781 19.168 305.391 19.2119 305.039 19.2998C304.697 19.3877 304.404 19.5098 304.16 19.666C303.916 19.8223 303.726 20.0127 303.589 20.2373C303.452 20.4521 303.384 20.6914 303.384 20.9551C303.384 21.2773 303.452 21.5508 303.589 21.7754C303.726 22 303.926 22.2002 304.189 22.376C304.463 22.542 304.785 22.6982 305.156 22.8447C305.537 22.9814 305.972 23.1328 306.46 23.2988C307.104 23.5625 307.681 23.8311 308.188 24.1045C308.706 24.3779 309.146 24.6904 309.507 25.042C309.868 25.3838 310.146 25.7842 310.342 26.2432C310.537 26.6924 310.635 27.2295 310.635 27.8545C310.635 28.6162 310.459 29.2803 310.107 29.8467C309.756 30.4131 309.287 30.8818 308.701 31.2529C308.115 31.624 307.437 31.8975 306.665 32.0732C305.903 32.2588 305.098 32.3516 304.248 32.3516C302.607 32.3516 301.187 32.0781 299.985 31.5312ZM338.906 30.5645C336.719 31.7559 334.282 32.3516 331.597 32.3516C328.491 32.3516 325.977 31.3848 324.053 29.4512C322.129 27.5176 321.167 24.959 321.167 21.7754C321.167 18.5234 322.217 15.8574 324.316 13.7773C326.426 11.6875 329.102 10.6426 332.344 10.6426C334.678 10.6426 336.641 10.9844 338.232 11.668V15.2568C336.621 14.1826 334.702 13.6455 332.476 13.6455C330.239 13.6455 328.403 14.3828 326.968 15.8574C325.542 17.332 324.829 19.2412 324.829 21.585C324.829 23.9971 325.444 25.8965 326.675 27.2832C327.905 28.6602 329.575 29.3486 331.685 29.3486C333.13 29.3486 334.38 29.0703 335.435 28.5137V23.5186H331.011V20.5889H338.906V30.5645ZM354.565 32H351.27V29.6562H351.211C350.176 31.4531 348.657 32.3516 346.655 32.3516C345.181 32.3516 344.023 31.9512 343.184 31.1504C342.354 30.3496 341.938 29.29 341.938 27.9717C341.938 25.1396 343.569 23.4893 346.831 23.0205L351.284 22.3906C351.284 20.252 350.269 19.1826 348.237 19.1826C346.45 19.1826 344.839 19.7979 343.403 21.0283V18.0547C344.985 17.1172 346.812 16.6484 348.882 16.6484C352.671 16.6484 354.565 18.5137 354.565 22.2441V32ZM351.284 24.6318L348.135 25.0713C347.158 25.1982 346.421 25.4375 345.923 25.7891C345.435 26.1309 345.19 26.7363 345.19 27.6055C345.19 28.2402 345.415 28.7627 345.864 29.1729C346.323 29.5732 346.934 29.7734 347.695 29.7734C348.73 29.7734 349.585 29.4121 350.259 28.6895C350.942 27.957 351.284 27.0391 351.284 25.9355V24.6318ZM381.152 32H377.754V23.8262C377.754 22.2539 377.529 21.1162 377.08 20.4131C376.641 19.71 375.894 19.3584 374.839 19.3584C373.95 19.3584 373.193 19.8027 372.568 20.6914C371.953 21.5801 371.646 22.6445 371.646 23.8848V32H368.232V23.5479C368.232 20.7549 367.246 19.3584 365.273 19.3584C364.355 19.3584 363.599 19.7783 363.003 20.6182C362.417 21.458 362.124 22.5469 362.124 23.8848V32H358.726V17H362.124V19.373H362.183C363.267 17.5566 364.844 16.6484 366.914 16.6484C367.949 16.6484 368.853 16.9365 369.624 17.5127C370.405 18.0791 370.938 18.8262 371.221 19.7539C372.334 17.6836 373.994 16.6484 376.201 16.6484C379.502 16.6484 381.152 18.6846 381.152 22.7568V32ZM397.998 25.4229H387.773C387.812 26.8096 388.237 27.8789 389.048 28.6309C389.868 29.3828 390.991 29.7588 392.417 29.7588C394.019 29.7588 395.488 29.2803 396.826 28.3232V31.0625C395.459 31.9219 393.652 32.3516 391.406 32.3516C389.199 32.3516 387.466 31.6729 386.206 30.3154C384.956 28.9482 384.331 27.0293 384.331 24.5586C384.331 22.2246 385.02 20.3252 386.396 18.8604C387.783 17.3857 389.502 16.6484 391.553 16.6484C393.604 16.6484 395.19 17.3076 396.313 18.626C397.437 19.9443 397.998 21.7754 397.998 24.1191V25.4229ZM394.717 23.0205C394.707 21.7998 394.419 20.8525 393.853 20.1787C393.286 19.4951 392.505 19.1533 391.509 19.1533C390.532 19.1533 389.702 19.5098 389.019 20.2227C388.345 20.9355 387.93 21.8682 387.773 23.0205H394.717Z" fill="black" fill-opacity="0.9"/>
</svg>
