<svg width="32" height="31" viewBox="0 0 32 31" fill="none" xmlns="http://www.w3.org/2000/svg">
<path d="M4.88887 0C2.20465 0 0 2.08065 0 4.61388V25.5862C0 28.1194 2.20465 30.2 4.88887 30.2H27.1111C29.7953 30.2 32 28.1194 32 25.5862V4.61388C32 2.08065 29.7953 0 27.1111 0H4.88887ZM4.88887 2.51662H27.1111C28.354 2.51662 29.3334 3.44088 29.3334 4.61388V25.5862C29.3334 26.7592 28.354 27.6834 27.1111 27.6834H4.88887C3.64596 27.6834 2.66662 26.7592 2.66662 25.5862V4.61388C2.66662 3.44088 3.64596 2.51662 4.88887 2.51662ZM25.3073 8.37749C24.961 8.38697 24.6323 8.52328 24.3907 8.7576L12.8889 19.6123L8.49833 15.4687C8.37542 15.3479 8.22822 15.2514 8.06545 15.1851C7.90255 15.1187 7.72727 15.0836 7.54996 15.0819C7.37251 15.0801 7.19665 15.1118 7.03229 15.1751C6.86807 15.2384 6.71898 15.332 6.59345 15.4503C6.46807 15.5688 6.36887 15.7097 6.30182 15.8646C6.23476 16.0196 6.20116 16.1857 6.20305 16.3531C6.2048 16.5205 6.24204 16.6858 6.31229 16.8395C6.38269 16.9932 6.48495 17.1321 6.6128 17.2481L11.9462 22.2813C12.1962 22.5173 12.5353 22.6498 12.8889 22.6498C13.2425 22.6498 13.5815 22.5173 13.8316 22.2813L26.2761 10.5369C26.4684 10.3601 26.5997 10.1327 26.6528 9.8842C26.7059 9.63587 26.6783 9.37808 26.5737 9.14471C26.4689 8.91135 26.2921 8.71326 26.0662 8.5764C25.8401 8.43954 25.5757 8.37008 25.3073 8.37749Z" fill="#FF5B22"/>
</svg>
