<svg width="32" height="31" viewBox="0 0 32 31" fill="none" xmlns="http://www.w3.org/2000/svg">
<path d="M9.93746 21.514C9.93746 20.3258 8.94876 19.3625 7.72914 19.3625C6.50951 19.3625 5.52081 20.3258 5.52081 21.514C5.52081 22.7021 6.50951 23.6654 7.72914 23.6654C8.94876 23.6654 9.93746 22.7021 9.93746 21.514Z" fill="#FF5B22"/>
<path d="M16.5624 21.514C16.5624 20.3258 15.5737 19.3625 14.3541 19.3625C13.1345 19.3625 12.1458 20.3258 12.1458 21.514C12.1458 22.7021 13.1345 23.6654 14.3541 23.6654C15.5737 23.6654 16.5624 22.7021 16.5624 21.514Z" fill="#FF5B22"/>
<path fill-rule="evenodd" clip-rule="evenodd" d="M1.76666 4.99749C1.76666 3.18773 3.27207 1.72112 5.12972 1.72112H24.6628C26.5204 1.72112 28.0258 3.18773 28.0258 4.99749V16.1403C28.6631 16.4139 29.2563 16.7669 29.7925 17.1863V4.99749C29.7925 2.23714 27.4962 0 24.6628 0H5.12972C2.29633 0 0 2.23714 0 4.99749V24.0271C0 26.7874 2.29633 29.0246 5.12972 29.0246H19.6C19.0175 28.5265 18.5106 27.9467 18.0981 27.3035H5.12972C3.27207 27.3035 1.76666 25.8368 1.76666 24.0271V4.99749Z" fill="#FF5B22"/>
<path d="M0.883377 7.47949H28.9092" stroke="#FF5B22" stroke-width="1.6" stroke-miterlimit="10"/>
<path d="M23.8986 14.0987C23.8986 15.2396 22.9465 16.1672 21.7754 16.1672C20.6044 16.1672 19.6523 15.2396 19.6523 14.0987C19.6523 12.9578 20.6044 12.0303 21.7754 12.0303C22.9465 12.0303 23.8986 12.9578 23.8986 14.0987Z" fill="#FF5B22"/>
<path d="M15.3208 12.0303H7.67742C6.50482 12.0303 5.55424 12.9563 5.55424 14.0987C5.55424 15.2411 6.50482 16.1672 7.67742 16.1672H15.3208C16.4934 16.1672 17.444 15.2411 17.444 14.0987C17.444 12.9563 16.4934 12.0303 15.3208 12.0303Z" fill="#FF5B22" fill-opacity="0.25"/>
<path d="M24.9495 16.4624C21.0621 16.4624 17.899 19.544 17.899 23.3312C17.899 27.1184 21.0621 30.2 24.9495 30.2C28.8369 30.2 32 27.1184 32 23.3312C32 19.544 28.8369 16.4624 24.9495 16.4624ZM24.9495 17.4927C28.2655 17.4927 30.9424 20.1007 30.9424 23.3312C30.9424 26.5616 28.2655 29.1697 24.9495 29.1697C21.6336 29.1697 18.9566 26.5616 18.9566 23.3312C18.9566 20.1007 21.6336 17.4927 24.9495 17.4927ZM24.765 19.2032C24.473 19.2073 24.2404 19.4407 24.2445 19.7251V23.8463C24.2445 24.1308 24.4813 24.3615 24.7733 24.3615H27.5935C27.7835 24.3642 27.9612 24.2663 28.0576 24.1067C28.154 23.9456 28.154 23.7471 28.0576 23.5861C27.9612 23.4264 27.7835 23.3285 27.5935 23.3312H25.302V19.7251C25.3035 19.5856 25.2484 19.4513 25.1465 19.3535C25.0459 19.2542 24.9082 19.2005 24.765 19.2032Z" fill="#FF5B22" fill-opacity="0.25"/>
</svg>
