<svg width="32" height="31" viewBox="0 0 32 31" fill="none" xmlns="http://www.w3.org/2000/svg">
<path d="M0.911232 7.28418H28.9914" stroke="#FF5B22" stroke-width="1.6" stroke-miterlimit="10"/>
<path d="M9.84592 13.7089C9.84592 14.8162 8.89203 15.7165 7.71866 15.7165C6.5453 15.7165 5.59141 14.8162 5.59141 13.7089C5.59141 12.6015 6.5453 11.7012 7.71866 11.7012C8.89203 11.7012 9.84592 12.6015 9.84592 13.7089Z" fill="#FF5B22"/>
<path d="M17.0785 13.7089C17.0785 14.8162 16.1246 15.7165 14.9512 15.7165C13.7779 15.7165 12.824 14.8162 12.824 13.7089C12.824 12.6015 13.7779 11.7012 14.9512 11.7012C16.1246 11.7012 17.0785 12.6015 17.0785 13.7089Z" fill="#FF5B22"/>
<path d="M9.84592 20.9363C9.84592 22.0437 8.89203 22.9439 7.71866 22.9439C6.5453 22.9439 5.59141 22.0437 5.59141 20.9363C5.59141 19.8289 6.5453 18.9287 7.71866 18.9287C8.89203 18.9287 9.84592 19.8289 9.84592 20.9363Z" fill="#FF5B22"/>
<path fill-rule="evenodd" clip-rule="evenodd" d="M1.82235 4.87521C1.82235 3.13226 3.31896 1.71984 5.1658 1.71984H24.7368C26.5835 1.71984 28.0802 3.13226 28.0802 4.87521V15.0393C28.7386 15.357 29.3501 15.7487 29.9025 16.2028V4.87521C29.9025 2.18248 27.5901 0 24.7368 0H5.1658C2.31256 0 0 2.18248 0 4.87521V23.3453C0 26.0381 2.31256 28.2204 5.1658 28.2204H17.1686C16.6874 27.6991 16.2723 27.122 15.9357 26.5006H5.1658C3.31896 26.5006 1.82235 25.0882 1.82235 23.3453V4.87521Z" fill="#FF5B22"/>
<path d="M23.9771 15.0566C19.5536 15.0566 15.9542 18.4535 15.9542 22.6282C15.9542 26.803 19.5536 30.1999 23.9771 30.1999C28.4007 30.1999 32 26.803 32 22.6282C32 18.4535 28.4007 15.0566 23.9771 15.0566ZM23.9771 16.1924C27.7504 16.1924 30.7966 19.0673 30.7966 22.6282C30.7966 26.1893 27.7504 29.0642 23.9771 29.0642C20.2038 29.0642 17.1576 26.1893 17.1576 22.6282C17.1576 19.0673 20.2038 16.1924 23.9771 16.1924ZM23.7672 18.078C23.4349 18.0824 23.1701 18.3397 23.1748 18.6532V23.1961C23.1748 23.5097 23.4444 23.764 23.7765 23.764H26.9857C27.202 23.767 27.4041 23.6591 27.5138 23.483C27.6235 23.3056 27.6235 23.0867 27.5138 22.9092C27.4041 22.7333 27.202 22.6253 26.9857 22.6282H24.3782V18.6532C24.3798 18.4994 24.3172 18.3515 24.2012 18.2435C24.0868 18.1341 23.9301 18.075 23.7672 18.078Z" fill="#FF5B22"/>
</svg>
