<svg width="34" height="32" viewBox="0 0 34 32" fill="none" xmlns="http://www.w3.org/2000/svg">
<path d="M28.1515 31.2001H5.84846C3.17046 31.2001 1 29.1517 1 26.6243V5.57574C1 3.04837 3.17046 1 5.84846 1H28.1515C30.8296 1 33 3.04837 33 5.57574V26.6243C33 29.1517 30.8296 31.2001 28.1515 31.2001Z" stroke="#FF5B22" stroke-width="1.6" stroke-miterlimit="10"/>
<path d="M1 8.32129H33" stroke="#FF5B22" stroke-width="1.6" stroke-miterlimit="10"/>
<path d="M11.1819 15.6425C11.1819 16.9043 10.0948 17.9303 8.75766 17.9303C7.42051 17.9303 6.33343 16.9043 6.33343 15.6425C6.33343 14.3805 7.42051 13.3545 8.75766 13.3545C10.0948 13.3545 11.1819 14.3805 11.1819 15.6425Z" fill="#FF5B22"/>
<path d="M19.4244 15.6425C19.4244 16.9043 18.3373 17.9303 17.0001 17.9303C15.663 17.9303 14.5759 16.9043 14.5759 15.6425C14.5759 14.3805 15.663 13.3545 17.0001 13.3545C18.3373 13.3545 19.4244 14.3805 19.4244 15.6425Z" fill="#FF5B22"/>
<path d="M11.1819 23.8787C11.1819 25.1406 10.0948 26.1666 8.75766 26.1666C7.42051 26.1666 6.33343 25.1406 6.33343 23.8787C6.33343 22.6168 7.42051 21.5908 8.75766 21.5908C10.0948 21.5908 11.1819 22.6168 11.1819 23.8787Z" fill="#FF5B22"/>
<path d="M19.4244 23.8787C19.4244 25.1406 18.3373 26.1666 17.0001 26.1666C15.663 26.1666 14.5759 25.1406 14.5759 23.8787C14.5759 22.6168 15.663 21.5908 17.0001 21.5908C18.3373 21.5908 19.4244 22.6168 19.4244 23.8787Z" fill="#FF5B22"/>
<path d="M27.6665 15.6425C27.6665 16.9043 26.5795 17.9303 25.2423 17.9303C23.9052 17.9303 22.8181 16.9043 22.8181 15.6425C22.8181 14.3805 23.9052 13.3545 25.2423 13.3545C26.5795 13.3545 27.6665 14.3805 27.6665 15.6425Z" fill="#FF5B22"/>
</svg>
