<svg width="34" height="32" viewBox="0 0 34 32" fill="none" xmlns="http://www.w3.org/2000/svg">
<path d="M25.2425 13.3545H16.5152C15.1763 13.3545 14.091 14.3788 14.091 15.6424C14.091 16.9059 15.1763 17.9303 16.5152 17.9303H25.2425C26.5814 17.9303 27.6667 16.9059 27.6667 15.6424C27.6667 14.3788 26.5814 13.3545 25.2425 13.3545Z" fill="#FF5B22"/>
<path d="M17.4847 21.5908H8.75739C7.41851 21.5908 6.33315 22.6151 6.33315 23.8787C6.33315 25.1423 7.41851 26.1666 8.75739 26.1666H17.4847C18.8235 26.1666 19.9089 25.1423 19.9089 23.8787C19.9089 22.6151 18.8235 21.5908 17.4847 21.5908Z" fill="#FF5B22"/>
<path d="M28.1515 31.2001H5.84846C3.17046 31.2001 1 29.1517 1 26.6243V5.57574C1 3.04837 3.17046 1 5.84846 1H28.1515C30.8296 1 33 3.04837 33 5.57574V26.6243C33 29.1517 30.8296 31.2001 28.1515 31.2001Z" stroke="#FF5B22" stroke-opacity="0.25" stroke-width="1.6" stroke-miterlimit="10"/>
<path d="M1 8.32129H33" stroke="#FF5B22" stroke-opacity="0.25" stroke-width="1.6" stroke-miterlimit="10"/>
<path d="M11.1817 15.6425C11.1817 16.9043 10.0945 17.9303 8.75737 17.9303C7.42034 17.9303 6.33315 16.9043 6.33315 15.6425C6.33315 14.3805 7.42034 13.3545 8.75737 13.3545C10.0945 13.3545 11.1817 14.3805 11.1817 15.6425Z" fill="#FF5B22" fill-opacity="0.25"/>
<path d="M27.5627 23.7808C27.5627 25.0427 26.4757 26.0687 25.1385 26.0687C23.8014 26.0687 22.7143 25.0427 22.7143 23.7808C22.7143 22.5189 23.8014 21.4929 25.1385 21.4929C26.4757 21.4929 27.5627 22.5189 27.5627 23.7808Z" fill="#FF5B22" fill-opacity="0.25"/>
</svg>
