<svg width="34" height="32" viewBox="0 0 34 32" fill="none" xmlns="http://www.w3.org/2000/svg">
<path d="M12.7895 29.0429L12.7895 3.15715C12.7895 1.96579 11.6584 1 10.2632 1L3.52632 1C2.13107 1 1 1.96579 1 3.15715L1 29.0429C1 30.2343 2.13107 31.2001 3.52632 31.2001H10.2632C11.6584 31.2001 12.7895 30.2343 12.7895 29.0429Z" stroke="#FF5B22" stroke-opacity="0.25"/>
<path d="M33 29.0429V3.15715C33 1.96579 31.8689 1 30.4737 1L23.7368 1C22.3416 1 21.2105 1.96579 21.2105 3.15715V29.0429C21.2105 30.2343 22.3416 31.2001 23.7368 31.2001H30.4737C31.8689 31.2001 33 30.2343 33 29.0429Z" stroke="#FF5B22" stroke-opacity="0.25"/>
<path d="M17.7664 25.6675V6.97222C17.7664 6.5751 17.3894 6.25317 16.9243 6.25317C16.4593 6.25317 16.0822 6.5751 16.0822 6.97222V25.6675C16.0822 26.0646 16.4593 26.3865 16.9243 26.3865C17.3894 26.3865 17.7664 26.0646 17.7664 25.6675Z" stroke="#FF5B22"/>
</svg>
