<svg width="34" height="32" viewBox="0 0 34 32" fill="none" xmlns="http://www.w3.org/2000/svg">
<path d="M2.26316 31.2L31.7368 31.2C32.4345 31.2 33 30.4046 33 29.4235V2.77637C33 1.79525 32.4345 0.999899 31.7368 0.999899L2.26316 0.999899C1.56553 0.999899 1 1.79525 1 2.77637L1 29.4235C1 30.4046 1.56553 31.2 2.26316 31.2Z" stroke="#FF5B22" stroke-opacity="0.25" stroke-width="1.6"/>
<path d="M8.3171 7.22447C8.2111 7.23705 8.10468 7.2677 8.00163 7.31625L5.29468 8.58525C4.58552 8.9176 4.20186 9.99429 4.43826 10.9918C4.67468 11.9891 5.44384 12.5326 6.15121 12.1962L7.07636 11.7625V23.0791C7.07636 24.131 7.68184 24.9825 8.42984 24.9825C9.17784 24.9825 9.78331 24.131 9.78331 23.0791V9.12056C9.78331 8.50886 9.57394 7.93432 9.2211 7.57651C8.95584 7.30811 8.635 7.18687 8.3171 7.22447ZM12.9413 21.1286C12.5824 21.1286 12.238 21.3291 11.9843 21.6861C11.7305 22.0431 11.5878 22.5272 11.5878 23.032C11.5878 23.5368 11.7305 24.021 11.9843 24.378C12.238 24.7349 12.5824 24.9355 12.9413 24.9355C13.3003 24.9355 13.6445 24.7349 13.8984 24.378C14.1522 24.021 14.2948 23.5368 14.2948 23.032C14.2948 22.5272 14.1522 22.0431 13.8984 21.6861C13.6445 21.3291 13.3003 21.1286 12.9413 21.1286ZM17.4528 21.1286C17.0938 21.1286 16.7495 21.3291 16.4957 21.6861C16.2419 22.0431 16.0993 22.5272 16.0993 23.032C16.0993 23.5368 16.2419 24.021 16.4957 24.378C16.7495 24.7349 17.0938 24.9355 17.4528 24.9355C17.8117 24.9355 18.1559 24.7349 18.4098 24.378C18.6636 24.021 18.8062 23.5368 18.8062 23.032C18.8062 22.5272 18.6636 22.0431 18.4098 21.6861C18.1559 21.3291 17.8117 21.1286 17.4528 21.1286Z" fill="#FF5B22"/>
</svg>
