<svg width="32" height="31" viewBox="0 0 32 31" fill="none" xmlns="http://www.w3.org/2000/svg">
<path d="M30 0H2C0.89543 0 0 0.872324 0 1.94839V28.2517C0 29.3277 0.89543 30.2001 2 30.2001H30C31.1046 30.2001 32 29.3277 32 28.2517V1.94839C32 0.872324 31.1046 0 30 0Z" fill="#FF5B22" fill-opacity="0.25"/>
<path d="M25 3.89673H7C5.8954 3.89673 5 4.76902 5 5.84512C5 6.87231 5.9651 7.71918 7 7.79351H14V25.329C14 26.4051 14.8954 27.2774 16 27.2774C17.0544 27.2774 17.9237 26.3372 18 25.329V7.79351H25C26.1046 7.79351 27 6.92122 27 5.84512C27 4.81793 26.0349 3.97106 25 3.89673Z" fill="#FF5B22"/>
</svg>
