<svg width="34" height="32" viewBox="0 0 34 32" fill="none" xmlns="http://www.w3.org/2000/svg">
<path d="M2.26316 31.2L31.7368 31.2C32.4345 31.2 33 30.4046 33 29.4235V2.77637C33 1.79525 32.4345 0.999899 31.7368 0.999899L2.26316 0.999899C1.56553 0.999899 1 1.79525 1 2.77637L1 29.4235C1 30.4046 1.56553 31.2 2.26316 31.2Z" stroke="#FF5B22" stroke-opacity="0.25" stroke-width="1.6"/>
<path d="M17 5.7373C12.9397 5.7373 9.63162 10.3897 9.63162 16.1001C9.63162 21.8104 12.9397 26.4628 17 26.4628C17.9091 26.4628 18.7833 26.2309 19.5895 25.8051C19.6877 25.7551 19.7778 25.6781 19.8548 25.5786C19.9317 25.4793 19.9938 25.3593 20.0376 25.226C20.0813 25.0926 20.1058 24.9482 20.1096 24.8014C20.1134 24.6545 20.0965 24.5081 20.0597 24.3706C20.023 24.2331 19.9672 24.1072 19.8956 24.0002C19.824 23.8932 19.7381 23.8072 19.6428 23.7472C19.5474 23.6872 19.4445 23.6545 19.34 23.651C19.2356 23.6473 19.1317 23.6729 19.0344 23.7262C18.4026 24.0599 17.7184 24.2422 17 24.2422C13.793 24.2422 11.2106 20.6104 11.2106 16.1001C11.2106 11.5898 13.793 7.9579 17 7.9579C20.2071 7.9579 22.7895 11.5898 22.7895 16.1001V17.2104C22.7895 18.2453 22.2096 19.0609 21.4737 19.0609C20.7378 19.0609 20.1579 18.2453 20.1579 17.2104V12.029C20.1595 11.7563 20.0896 11.4923 19.9616 11.2875C19.8337 11.0826 19.6566 10.951 19.4642 10.9179C19.2716 10.8849 19.0772 10.9526 18.9179 11.1082C18.7588 11.2638 18.6457 11.4963 18.6006 11.7615C18.0677 11.2327 17.4304 10.9187 16.7369 10.9187C14.8149 10.9187 13.3158 13.3076 13.3158 16.1001C13.3158 18.8925 14.8149 21.2815 16.7369 21.2815C17.711 21.2815 18.5749 20.6658 19.1916 19.697C19.723 20.6567 20.5491 21.2815 21.4737 21.2815C23.0631 21.2815 24.3685 19.4456 24.3685 17.2104V16.1001C24.3685 10.3897 21.0604 5.7373 17 5.7373ZM16.7369 13.1393C17.717 13.1393 18.579 14.4025 18.579 16.1001C18.579 17.7976 17.717 19.0609 16.7369 19.0609C15.7568 19.0609 14.8948 17.7976 14.8948 16.1001C14.8948 14.4025 15.7568 13.1393 16.7369 13.1393Z" fill="#FF5B22"/>
</svg>
