<svg width="34" height="32" viewBox="0 0 34 32" fill="none" xmlns="http://www.w3.org/2000/svg">
<path d="M28.1515 31.2001H5.84846C3.17046 31.2001 1 29.1517 1 26.6243V5.57574C1 3.04837 3.17046 1 5.84846 1H28.1515C30.8296 1 33 3.04837 33 5.57574V26.6243C33 29.1517 30.8296 31.2001 28.1515 31.2001Z" stroke="#FF5B22" stroke-opacity="0.25" stroke-width="1.6" stroke-miterlimit="10"/>
<path d="M1 8.32129H33" stroke="#FF5B22" stroke-opacity="0.25" stroke-width="1.6" stroke-miterlimit="10"/>
<path d="M25 12.8643H7.85714C6.59478 12.8643 5.57143 13.83 5.57143 15.0214C5.57143 16.2128 6.59478 17.1786 7.85714 17.1786H25C26.2624 17.1786 27.2857 16.2128 27.2857 15.0214C27.2857 13.83 26.2624 12.8643 25 12.8643Z" fill="#FF5B22"/>
<path d="M17 21.4929H7.85714C6.59478 21.4929 5.57143 22.4587 5.57143 23.6501C5.57143 24.8414 6.59478 25.8072 7.85714 25.8072H17C18.2624 25.8072 19.2857 24.8414 19.2857 23.6501C19.2857 22.4587 18.2624 21.4929 17 21.4929Z" fill="#FF5B22"/>
</svg>
