<svg width="34" height="32" viewBox="0 0 34 32" fill="none" xmlns="http://www.w3.org/2000/svg">
<path d="M2.35948 12.7261L31.6405 12.7261C32.3913 12.7261 33 12.0822 33 11.288V2.43812C33 1.64388 32.3913 1.00003 31.6405 1.00003L2.35948 1.00003C1.60866 1.00003 1 1.64388 1 2.43812V11.288C1 12.0822 1.60866 12.7261 2.35948 12.7261Z" stroke="#FF5B22" stroke-opacity="0.25" stroke-width="1.4"/>
<path d="M5.49668 9.07544L17 9.07544C18.1551 9.07544 19.0915 8.08489 19.0915 6.86298C19.0915 5.64107 18.1551 4.65052 17 4.65052L5.49668 4.65052C4.34158 4.65052 3.40518 5.64107 3.40518 6.86298C3.40518 8.08489 4.34158 9.07544 5.49668 9.07544Z" fill="#FF5B22" fill-opacity="0.25"/>
<path d="M24.3202 5.75684L26.4117 7.9693L28.5032 5.75684" stroke="#FF5B22" stroke-width="1.6" stroke-miterlimit="10" stroke-linecap="round" stroke-linejoin="round"/>
<path d="M10.2026 20.1377L29.0261 20.1377C29.8924 20.1377 30.5947 19.3948 30.5947 18.4783C30.5947 17.5619 29.8924 16.819 29.0261 16.819L10.2026 16.819C9.33624 16.819 8.63394 17.5619 8.63394 18.4783C8.63394 19.3948 9.33624 20.1377 10.2026 20.1377Z" fill="#FF5B22"/>
<path d="M4.45093 19.5847H5.49669C5.78546 19.5847 6.01956 19.3371 6.01956 19.0316V17.9254C6.01956 17.6199 5.78546 17.3723 5.49669 17.3723H4.45093C4.16216 17.3723 3.92806 17.6199 3.92806 17.9254V19.0316C3.92806 19.3371 4.16216 19.5847 4.45093 19.5847Z" fill="#FF5B22" stroke="#FF5B22"/>
<path d="M10.2026 25.6689H21.7058C22.5722 25.6689 23.2745 24.926 23.2745 24.0096C23.2745 23.0932 22.5722 22.3503 21.7058 22.3503H10.2026C9.33624 22.3503 8.63394 23.0932 8.63394 24.0096C8.63394 24.926 9.33624 25.6689 10.2026 25.6689Z" fill="#FF5B22"/>
<path d="M4.45093 25.1157H5.49669C5.78546 25.1157 6.01956 24.8681 6.01956 24.5626V23.4564C6.01956 23.1509 5.78546 22.9033 5.49669 22.9033H4.45093C4.16216 22.9033 3.92806 23.1509 3.92806 23.4564V24.5626C3.92806 24.8681 4.16216 25.1157 4.45093 25.1157Z" fill="#FF5B22" stroke="#FF5B22"/>
<path d="M10.2026 31.2L23.7973 31.2C24.6637 31.2 25.366 30.457 25.366 29.5406C25.366 28.6242 24.6637 27.8813 23.7973 27.8813H10.2026C9.33624 27.8813 8.63394 28.6242 8.63394 29.5406C8.63394 30.457 9.33624 31.2 10.2026 31.2Z" fill="#FF5B22" fill-opacity="0.25"/>
<path d="M4.45093 30.647H5.49669C5.78546 30.647 6.01956 30.3993 6.01956 30.0939V28.9876C6.01956 28.6821 5.78546 28.4345 5.49669 28.4345H4.45093C4.16216 28.4345 3.92806 28.6821 3.92806 28.9876V30.0939C3.92806 30.3993 4.16216 30.647 4.45093 30.647Z" fill="#FF5B22" fill-opacity="0.25" stroke="#FF5B22" stroke-opacity="0.25"/>
</svg>
