<svg width="34" height="32" viewBox="0 0 34 32" fill="none" xmlns="http://www.w3.org/2000/svg">
<path d="M2.26316 31.2L31.7368 31.2C32.4345 31.2 33 30.4046 33 29.4235V2.77637C33 1.79525 32.4345 0.999899 31.7368 0.999899L2.26316 0.999899C1.56553 0.999899 1 1.79525 1 2.77637L1 29.4235C1 30.4046 1.56553 31.2 2.26316 31.2Z" stroke="#FF5B22" stroke-opacity="0.25" stroke-width="1.6"/>
<path d="M15.7975 21.3928C15.4395 21.3928 15.0962 21.5928 14.843 21.949C14.5898 22.305 14.4476 22.7878 14.4476 23.2914C14.4476 23.7949 14.5898 24.2778 14.843 24.6339C15.0962 24.9899 15.4395 25.1899 15.7975 25.1899C16.1555 25.1899 16.4989 24.9899 16.752 24.6339C17.0052 24.2778 17.1474 23.7949 17.1474 23.2914C17.1474 22.7878 17.0052 22.305 16.752 21.949C16.4989 21.5928 16.1555 21.3928 15.7975 21.3928ZM20.2973 21.3928C19.9393 21.3928 19.5959 21.5928 19.3428 21.949C19.0896 22.305 18.9474 22.7878 18.9474 23.2914C18.9474 23.7949 19.0896 24.2778 19.3428 24.6339C19.5959 24.9899 19.9393 25.1899 20.2973 25.1899C20.6553 25.1899 20.9987 24.9899 21.2518 24.6339C21.505 24.2778 21.6472 23.7949 21.6472 23.2914C21.6472 22.7878 21.505 22.305 21.2518 21.949C20.9987 21.5928 20.6553 21.3928 20.2973 21.3928Z" fill="#FF5B22"/>
<path d="M14.8675 7.21777H5.41836C4.83857 7.21777 4.36847 7.87892 4.36847 8.69432C4.36847 9.47271 4.8751 10.1145 5.41836 10.1709H9.093V23.4599C9.093 24.2755 9.5631 24.9365 10.143 24.9365C10.6965 24.9365 11.1528 24.224 11.1929 23.4599V10.1709H14.8675C15.4473 10.1709 15.9174 9.50987 15.9174 8.69432C15.9174 7.91593 15.4108 7.27418 14.8675 7.21777Z" fill="#FF5B22"/>
</svg>
