<svg width="34" height="32" viewBox="0 0 34 32" fill="none" xmlns="http://www.w3.org/2000/svg">
<path d="M3.32326 12.1036L30.6945 12.1693C31.9543 12.1724 32.9778 11.1101 32.9807 9.79662L32.9947 3.45479C32.9976 2.14136 31.9788 1.07415 30.7191 1.07113L3.34779 1.00538C2.08806 1.00235 1.06449 2.06465 1.06159 3.37809L1.04758 9.71991C1.04467 11.0333 2.06353 12.1006 3.32326 12.1036Z" stroke="#FF5B22" stroke-opacity="0.25"/>
<path d="M3.28094 31.1287L30.6522 31.1945C31.9119 31.1975 32.9355 30.1352 32.9384 28.8218L32.9524 22.4799C32.9553 21.1665 31.9365 20.0993 30.6767 20.0963L3.30546 20.0305C2.04573 20.0275 1.02217 21.0898 1.01927 22.4032L1.00525 28.7451C1.00235 30.0585 2.02121 31.1257 3.28094 31.1287Z" stroke="#FF5B22" stroke-opacity="0.25"/>
<path d="M6.88164 16.7971L26.6498 16.8446C27.0697 16.8456 27.4109 16.4915 27.4118 16.0537C27.4128 15.6159 27.0732 15.2602 26.6533 15.2592L6.88514 15.2117C6.46523 15.2107 6.12404 15.5648 6.12308 16.0026C6.12211 16.4404 6.46173 16.7961 6.88164 16.7971Z" stroke="#FF5B22"/>
</svg>
