<svg width="20" height="20" viewBox="0 0 20 20" fill="none" xmlns="http://www.w3.org/2000/svg">
<g clip-path="url(#clip0_124_452)">
<path d="M4.78274 6.95658H3.04361C2.32448 6.95658 1.73926 7.54179 1.73926 8.26093V12.6088C1.73926 12.8488 1.93361 13.0435 2.17404 13.0435C2.41448 13.0435 2.60882 12.8488 2.60882 12.6088V11.3044H5.21752V12.6088C5.21752 12.8488 5.41187 13.0435 5.6523 13.0435C5.89274 13.0435 6.08708 12.8488 6.08708 12.6088V8.26093C6.08708 7.54179 5.50187 6.95658 4.78274 6.95658ZM5.21752 10.4348H2.60882V8.26093C2.60882 8.02136 2.80361 7.82614 3.04361 7.82614H4.78274C5.02274 7.82614 5.21752 8.02136 5.21752 8.26093V10.4348Z" fill="#515151"/>
<path d="M10.4347 6.95658H8.69552C8.45509 6.95658 8.26074 7.15136 8.26074 7.39136V12.6088C8.26074 12.8488 8.45509 13.0435 8.69552 13.0435C8.93596 13.0435 9.13031 12.8488 9.13031 12.6088V11.3044H10.4347C11.6334 11.3044 12.6086 10.3292 12.6086 9.13049C12.6086 7.93179 11.6334 6.95658 10.4347 6.95658ZM10.4347 10.4348H9.13031V7.82614H10.4347C11.1538 7.82614 11.739 8.41136 11.739 9.13049C11.739 9.84962 11.1538 10.4348 10.4347 10.4348Z" fill="#515151"/>
<path d="M17.8261 12.174H16.5218V7.82614H17.8261C18.0666 7.82614 18.2609 7.63136 18.2609 7.39136C18.2609 7.15136 18.0666 6.95658 17.8261 6.95658H14.3479C14.1074 6.95658 13.9131 7.15136 13.9131 7.39136C13.9131 7.63136 14.1074 7.82614 14.3479 7.82614H15.6522V12.174H14.3479C14.1074 12.174 13.9131 12.3688 13.9131 12.6088C13.9131 12.8488 14.1074 13.0435 14.3479 13.0435H17.8261C18.0666 13.0435 18.2609 12.8488 18.2609 12.6088C18.2609 12.3688 18.0666 12.174 17.8261 12.174Z" fill="#515151"/>
<path d="M18.6957 2.60875H11.9191L10.3074 0.997011C10.1374 0.827011 9.86261 0.827011 9.69261 0.997011L8.08087 2.60875H1.30435C0.585217 2.60875 0 3.19397 0 3.9131V5.21745C0 5.45745 0.194348 5.65223 0.434783 5.65223C0.675217 5.65223 0.869565 5.45745 0.869565 5.21745V3.9131C0.869565 3.67353 1.06435 3.47831 1.30435 3.47831H8.26087C8.37652 3.47831 8.48696 3.43266 8.56826 3.35092L10 1.91918L11.4317 3.35092C11.513 3.43266 11.6235 3.47831 11.7391 3.47831H18.6957C18.9357 3.47831 19.1304 3.67353 19.1304 3.9131V5.21745C19.1304 5.45745 19.3248 5.65223 19.5652 5.65223C19.8057 5.65223 20 5.45745 20 5.21745V3.9131C20 3.19397 19.4148 2.60875 18.6957 2.60875Z" fill="#515151"/>
<path d="M19.5652 14.3479C19.3248 14.3479 19.1304 14.5427 19.1304 14.7827V16.087C19.1304 16.3266 18.9357 16.5218 18.6957 16.5218H11.7391C11.6235 16.5218 11.513 16.5674 11.4317 16.6492L10 18.0809L8.56826 16.6492C8.48696 16.5674 8.37652 16.5218 8.26087 16.5218H1.30435C1.06435 16.5218 0.869565 16.3266 0.869565 16.087V14.7827C0.869565 14.5427 0.675217 14.3479 0.434783 14.3479C0.194348 14.3479 0 14.5427 0 14.7827V16.087C0 16.8061 0.585217 17.3914 1.30435 17.3914H8.08087L9.69261 19.0031C9.77739 19.0879 9.8887 19.1305 10 19.1305C10.1113 19.1305 10.2226 19.0879 10.3074 19.0031L11.9191 17.3914H18.6957C19.4148 17.3914 20 16.8061 20 16.087V14.7827C20 14.5427 19.8057 14.3479 19.5652 14.3479Z" fill="#515151"/>
</g>
<defs>
<clipPath id="clip0_124_452">
<rect width="20" height="20" fill="white"/>
</clipPath>
</defs>
</svg>
