<svg width="20" height="20" viewBox="0 0 20 20" fill="none" xmlns="http://www.w3.org/2000/svg">
<g clip-path="url(#clip0_124_387)">
<path d="M12 7.33333C12 6.93777 11.8827 6.55109 11.6629 6.22219C11.4432 5.89329 11.1308 5.63695 10.7654 5.48557C10.3999 5.3342 9.99778 5.29459 9.60982 5.37176C9.22186 5.44893 8.86549 5.63941 8.58579 5.91912C8.30608 6.19882 8.1156 6.55519 8.03843 6.94315C7.96126 7.33111 8.00087 7.73325 8.15224 8.0987C8.30362 8.46415 8.55996 8.77651 8.88886 8.99627C9.21776 9.21604 9.60444 9.33333 10 9.33333C10.5303 9.3328 11.0387 9.12192 11.4136 8.74696C11.7886 8.372 11.9995 7.8636 12 7.33333ZM8.66667 7.33333C8.66667 7.06962 8.74487 6.81184 8.89138 6.59257C9.03788 6.37331 9.24612 6.20241 9.48976 6.10149C9.73339 6.00058 10.0015 5.97417 10.2601 6.02562C10.5188 6.07707 10.7563 6.20405 10.9428 6.39052C11.1293 6.57699 11.2563 6.81457 11.3077 7.07321C11.3592 7.33185 11.3328 7.59994 11.2318 7.84358C11.1309 8.08721 10.96 8.29545 10.7408 8.44196C10.5215 8.58847 10.2637 8.66667 10 8.66667C9.64638 8.66667 9.30724 8.52619 9.05719 8.27614C8.80714 8.02609 8.66667 7.68696 8.66667 7.33333Z" fill="#515151"/>
<path d="M5.00016 16H7.00016C7.17697 16 7.34654 15.9298 7.47157 15.8047C7.59659 15.6797 7.66683 15.5101 7.66683 15.3333V14C7.66683 13.8232 7.59659 13.6536 7.47157 13.5286C7.34654 13.4036 7.17697 13.3333 7.00016 13.3333H6.3335V13C6.3335 12.9116 6.36861 12.8268 6.43113 12.7643C6.49364 12.7018 6.57842 12.6667 6.66683 12.6667H9.66683V13.3333H9.00016C8.82335 13.3333 8.65378 13.4036 8.52876 13.5286C8.40373 13.6536 8.3335 13.8232 8.3335 14V15.3333C8.3335 15.5101 8.40373 15.6797 8.52876 15.8047C8.65378 15.9298 8.82335 16 9.00016 16H11.0002C11.177 16 11.3465 15.9298 11.4716 15.8047C11.5966 15.6797 11.6668 15.5101 11.6668 15.3333V14C11.6668 13.8232 11.5966 13.6536 11.4716 13.5286C11.3465 13.4036 11.177 13.3333 11.0002 13.3333H10.3335V12.6667H13.3335C13.4219 12.6667 13.5067 12.7018 13.5692 12.7643C13.6317 12.8268 13.6668 12.9116 13.6668 13V13.3333H13.0002C12.8234 13.3333 12.6538 13.4036 12.5288 13.5286C12.4037 13.6536 12.3335 13.8232 12.3335 14V15.3333C12.3335 15.5101 12.4037 15.6797 12.5288 15.8047C12.6538 15.9298 12.8234 16 13.0002 16H15.0002C15.177 16 15.3465 15.9298 15.4716 15.8047C15.5966 15.6797 15.6668 15.5101 15.6668 15.3333V14C15.6668 13.8232 15.5966 13.6536 15.4716 13.5286C15.3465 13.4036 15.177 13.3333 15.0002 13.3333H14.3335V13C14.3335 12.7348 14.2281 12.4804 14.0406 12.2929C13.8531 12.1054 13.5987 12 13.3335 12H10.3335V11.3187H10.3435C10.444 11.3095 10.5399 11.2725 10.6206 11.2119C10.7013 11.1512 10.7634 11.0693 10.8002 10.9753L10.9752 10.538C11.1829 10.4746 11.3838 10.391 11.5752 10.2883L12.0085 10.4747C12.1008 10.5148 12.2024 10.5285 12.302 10.5143C12.4017 10.5002 12.4954 10.4586 12.5728 10.3943C12.6602 10.3213 12.7452 10.243 12.8265 10.161C12.9078 10.079 12.9862 9.99433 13.0598 9.90767C13.1244 9.82995 13.1662 9.7358 13.1804 9.63573C13.1946 9.53566 13.1806 9.43361 13.1402 9.341L12.9542 8.90767C13.0568 8.71633 13.1405 8.51536 13.2038 8.30767L13.6412 8.13267C13.735 8.09601 13.8169 8.03393 13.8774 7.95339C13.938 7.87285 13.975 7.77703 13.9842 7.67667C13.9955 7.56333 14.0002 7.44867 14.0002 7.33333C14.0002 7.218 13.9955 7.10333 13.9852 6.99C13.976 6.88954 13.9391 6.79362 13.8785 6.71296C13.8179 6.63231 13.7361 6.57011 13.6422 6.53333L13.2048 6.35833C13.1415 6.15064 13.0578 5.94967 12.9552 5.75833L13.1415 5.325C13.1815 5.23269 13.1952 5.1311 13.181 5.03148C13.1669 4.93187 13.1254 4.83813 13.0612 4.76067C12.9882 4.67333 12.9098 4.58833 12.8278 4.507C12.7458 4.42567 12.6612 4.34733 12.5745 4.27367C12.4968 4.20894 12.4027 4.16714 12.3026 4.15295C12.2025 4.13876 12.1004 4.15275 12.0078 4.19333L11.5745 4.37933C11.3832 4.27666 11.1822 4.19304 10.9745 4.12967L10.8002 3.69133C10.7634 3.5975 10.7013 3.51573 10.6208 3.45515C10.5403 3.39458 10.4445 3.3576 10.3442 3.34833C10.1156 3.32733 9.88568 3.32733 9.65716 3.34833C9.55665 3.35742 9.46065 3.39432 9.37993 3.45491C9.29921 3.51549 9.23697 3.59736 9.20016 3.69133L9.02516 4.12867C8.81747 4.19204 8.6165 4.27566 8.42516 4.37833L7.99183 4.192C7.89952 4.15196 7.79793 4.13827 7.69831 4.15245C7.5987 4.16663 7.50496 4.20812 7.4275 4.27233C7.34016 4.34533 7.25516 4.42367 7.17383 4.50567C7.0925 4.58767 7.01416 4.67233 6.9405 4.759C6.87588 4.83672 6.83414 4.93087 6.81996 5.03094C6.80577 5.13101 6.81969 5.23305 6.86016 5.32567L7.04616 5.759C6.94349 5.95034 6.85987 6.1513 6.7965 6.359L6.35916 6.534C6.26533 6.57073 6.18356 6.63282 6.12299 6.71335C6.06241 6.79388 6.02543 6.88966 6.01616 6.99C6.00483 7.10333 6.00016 7.218 6.00016 7.33333C6.00016 7.44867 6.00483 7.56333 6.01516 7.67667C6.02431 7.77712 6.06124 7.87305 6.12182 7.9537C6.1824 8.03436 6.26423 8.09656 6.35816 8.13333L6.7955 8.30833C6.85887 8.51603 6.94249 8.71699 7.04516 8.90833L6.85883 9.34167C6.81879 9.43397 6.8051 9.53557 6.81928 9.63518C6.83346 9.73479 6.87495 9.82853 6.93916 9.906C7.01216 9.99333 7.0905 10.0783 7.1725 10.1597C7.2545 10.241 7.33916 10.3193 7.42583 10.393C7.50351 10.4577 7.59767 10.4995 7.69775 10.5137C7.79784 10.5278 7.8999 10.5139 7.9925 10.4733L8.42583 10.2873C8.61717 10.39 8.81814 10.4736 9.02583 10.537L9.20083 10.9743C9.23756 11.0682 9.29965 11.1499 9.38018 11.2105C9.46071 11.2711 9.55649 11.3081 9.65683 11.3173H9.66683V12H6.66683C6.40161 12 6.14726 12.1054 5.95972 12.2929C5.77219 12.4804 5.66683 12.7348 5.66683 13V13.3333H5.00016C4.82335 13.3333 4.65378 13.4036 4.52876 13.5286C4.40373 13.6536 4.3335 13.8232 4.3335 14V15.3333C4.3335 15.5101 4.40373 15.6797 4.52876 15.8047C4.65378 15.9298 4.82335 16 5.00016 16ZM11.0002 15.3333H9.00016V14H11.0002V15.3333ZM15.0002 15.3333H13.0002V14H15.0002V15.3333ZM9.58316 10.137C9.56355 10.0879 9.53253 10.0441 9.49265 10.0093C9.45277 9.97453 9.40519 9.94974 9.35383 9.937C9.09438 9.87283 8.84612 9.76977 8.6175 9.63133C8.57213 9.60381 8.52085 9.58752 8.46791 9.58381C8.41498 9.5801 8.36193 9.58908 8.31316 9.61L7.79483 9.83233C7.74316 9.78667 7.69216 9.73933 7.64316 9.69C7.59416 9.64067 7.5465 9.59 7.50083 9.53833L7.72316 9.02C7.74409 8.97124 7.75307 8.91818 7.74936 8.86525C7.74565 8.81232 7.72935 8.76103 7.70183 8.71567C7.56339 8.48704 7.46034 8.23879 7.39616 7.97933C7.38342 7.92798 7.35864 7.88039 7.32386 7.84051C7.28908 7.80063 7.24531 7.76961 7.19616 7.75L6.67316 7.54067C6.6685 7.472 6.6665 7.40267 6.6665 7.333C6.6665 7.26333 6.6685 7.19433 6.67316 7.12533L7.19616 6.916C7.24531 6.89639 7.28908 6.86536 7.32386 6.82549C7.35864 6.78561 7.38342 6.73802 7.39616 6.68667C7.46034 6.42721 7.56339 6.17896 7.70183 5.95033C7.72935 5.90497 7.74565 5.85368 7.74936 5.80075C7.75307 5.74782 7.74409 5.69476 7.72316 5.646L7.50016 5.128C7.54583 5.07633 7.59316 5.02533 7.6425 4.97633C7.69183 4.92733 7.7425 4.87967 7.79416 4.834L8.3125 5.05633C8.36126 5.07726 8.41431 5.08624 8.46725 5.08253C8.52018 5.07882 8.57146 5.06252 8.61683 5.035C8.84546 4.89656 9.09371 4.79351 9.35316 4.72933C9.40452 4.71659 9.4521 4.69181 9.49198 4.65703C9.53186 4.62225 9.56289 4.57848 9.5825 4.52933L9.79183 4.00633C9.93011 3.99683 10.0689 3.99683 10.2072 4.00633L10.4165 4.52933C10.4361 4.57848 10.4671 4.62225 10.507 4.65703C10.5469 4.69181 10.5945 4.71659 10.6458 4.72933C10.9053 4.79351 11.1535 4.89656 11.3822 5.035C11.4275 5.06252 11.4788 5.07882 11.5317 5.08253C11.5847 5.08624 11.6377 5.07726 11.6865 5.05633L12.2048 4.834C12.2565 4.87967 12.3075 4.927 12.3565 4.97633C12.4055 5.02567 12.4532 5.07633 12.4988 5.128L12.2765 5.64633C12.2556 5.6951 12.2466 5.74815 12.2503 5.80108C12.254 5.85402 12.2703 5.9053 12.2978 5.95067C12.4363 6.17929 12.5393 6.42755 12.6035 6.687C12.6162 6.73836 12.641 6.78594 12.6758 6.82582C12.7106 6.8657 12.7544 6.89672 12.8035 6.91633L13.3265 7.12567C13.3312 7.19433 13.3332 7.26367 13.3332 7.33333C13.3332 7.403 13.3312 7.472 13.3265 7.541L12.8035 7.75033C12.7544 7.76994 12.7106 7.80097 12.6758 7.84085C12.641 7.88072 12.6162 7.92831 12.6035 7.97967C12.5393 8.23912 12.4363 8.48737 12.2978 8.716C12.2703 8.76137 12.254 8.81265 12.2503 8.86558C12.2466 8.91852 12.2556 8.97157 12.2765 9.02033L12.4988 9.53867C12.4532 9.59033 12.4058 9.64133 12.3565 9.69033C12.3072 9.73933 12.2565 9.787 12.2048 9.83267L11.6865 9.61033C11.6377 9.58941 11.5847 9.58043 11.5317 9.58414C11.4788 9.58785 11.4275 9.60414 11.3822 9.63167C11.1535 9.77011 10.9053 9.87316 10.6458 9.93733C10.5945 9.95008 10.5469 9.97486 10.507 10.0096C10.4671 10.0444 10.4361 10.0882 10.4165 10.1373L10.2072 10.6603C10.0689 10.6693 9.93013 10.6693 9.79183 10.6603L9.58316 10.137ZM5.00016 14H7.00016V15.3333H5.00016V14Z" fill="#515151"/>
<path d="M12.4585 2.73967C12.4243 2.76703 12.3958 2.80085 12.3747 2.83921C12.3536 2.87757 12.3403 2.91971 12.3354 2.96323C12.3306 3.00675 12.3344 3.05079 12.3466 3.09285C12.3588 3.1349 12.3791 3.17415 12.4065 3.20833C12.4339 3.24252 12.4677 3.27098 12.506 3.2921C12.5444 3.31322 12.5865 3.32657 12.6301 3.3314C12.6736 3.33623 12.7176 3.33244 12.7597 3.32024C12.8017 3.30805 12.841 3.28769 12.8752 3.26033L14.5418 1.927C14.5809 1.89577 14.6124 1.85616 14.6341 1.81109C14.6557 1.76603 14.667 1.71667 14.667 1.66667C14.667 1.61666 14.6557 1.5673 14.6341 1.52224C14.6124 1.47717 14.5809 1.43756 14.5418 1.40633L12.8752 0.0729996C12.8061 0.0177462 12.718 -0.00781632 12.6301 0.00193557C12.5422 0.0116875 12.4618 0.0559549 12.4065 0.125C12.3512 0.194044 12.3257 0.28221 12.3354 0.370103C12.3452 0.457995 12.3895 0.538413 12.4585 0.593666L13.3832 1.33333H2.66683C2.31321 1.33333 1.97407 1.47381 1.72402 1.72386C1.47397 1.97391 1.3335 2.31304 1.3335 2.66667V3.66667C1.3335 3.75507 1.36862 3.83986 1.43113 3.90237C1.49364 3.96488 1.57842 4 1.66683 4C1.75523 4 1.84002 3.96488 1.90253 3.90237C1.96504 3.83986 2.00016 3.75507 2.00016 3.66667V2.66667C2.00016 2.48986 2.0704 2.32029 2.19542 2.19526C2.32045 2.07024 2.49002 2 2.66683 2H13.3832L12.4585 2.73967Z" fill="#515151"/>
<path d="M19.875 12.4063C19.8408 12.379 19.8016 12.3586 19.7595 12.3464C19.7175 12.3342 19.6734 12.3304 19.6299 12.3352C19.5864 12.3401 19.5442 12.3534 19.5059 12.3745C19.4675 12.3957 19.4337 12.4241 19.4063 12.4583L18.6667 13.383V2.66667C18.6667 2.31304 18.5262 1.9739 18.2761 1.72386C18.0261 1.47381 17.687 1.33333 17.3333 1.33333H16.3333C16.2449 1.33333 16.1601 1.36845 16.0976 1.43096C16.0351 1.49348 16 1.57826 16 1.66667C16 1.75507 16.0351 1.83986 16.0976 1.90237C16.1601 1.96488 16.2449 2 16.3333 2H17.3333C17.5101 2 17.6797 2.07024 17.8047 2.19526C17.9298 2.32029 18 2.48985 18 2.66667V13.383L17.2603 12.4583C17.233 12.4241 17.1992 12.3957 17.1608 12.3746C17.1224 12.3535 17.0803 12.3401 17.0368 12.3353C16.9933 12.3304 16.9492 12.3342 16.9072 12.3464C16.8651 12.3586 16.8259 12.379 16.7917 12.4063C16.7575 12.4337 16.729 12.4675 16.7079 12.5059C16.6868 12.5442 16.6734 12.5864 16.6686 12.6299C16.6638 12.6734 16.6676 12.7175 16.6798 12.7595C16.692 12.8016 16.7123 12.8408 16.7397 12.875L18.073 14.5417C18.1042 14.5807 18.1438 14.6122 18.1889 14.6339C18.234 14.6556 18.2833 14.6668 18.3333 14.6668C18.3833 14.6668 18.4327 14.6556 18.4778 14.6339C18.5228 14.6122 18.5624 14.5807 18.5937 14.5417L19.927 12.875C19.9544 12.8408 19.9747 12.8016 19.9869 12.7595C19.9991 12.7175 20.0029 12.6734 19.9981 12.6299C19.9933 12.5864 19.9799 12.5442 19.9588 12.5059C19.9377 12.4675 19.9092 12.4337 19.875 12.4063Z" fill="#515151"/>
<path d="M18.6665 17.3333V16.3333C18.6665 16.2449 18.6314 16.1601 18.5689 16.0976C18.5064 16.0351 18.4216 16 18.3332 16C18.2448 16 18.16 16.0351 18.0975 16.0976C18.0349 16.1601 17.9998 16.2449 17.9998 16.3333V17.3333C17.9998 17.5101 17.9296 17.6797 17.8046 17.8047C17.6795 17.9298 17.51 18 17.3332 18H6.61683L7.5415 17.2603C7.57569 17.233 7.60415 17.1991 7.62526 17.1608C7.64638 17.1224 7.65973 17.0803 7.66456 17.0368C7.66939 16.9933 7.6656 16.9492 7.65341 16.9072C7.64121 16.8651 7.62086 16.8259 7.5935 16.7917C7.56614 16.7575 7.53231 16.729 7.49396 16.7079C7.4556 16.6868 7.41345 16.6734 7.36993 16.6686C7.32641 16.6638 7.28237 16.6676 7.24031 16.6798C7.19826 16.692 7.15902 16.7123 7.12483 16.7397L5.45816 18.073C5.41911 18.1042 5.38759 18.1438 5.36592 18.1889C5.34426 18.234 5.33301 18.2833 5.33301 18.3333C5.33301 18.3833 5.34426 18.4327 5.36592 18.4778C5.38759 18.5228 5.41911 18.5624 5.45816 18.5937L7.12483 19.927C7.19388 19.9823 7.28204 20.0078 7.36993 19.9981C7.45783 19.9883 7.53824 19.944 7.5935 19.875C7.64875 19.806 7.67431 19.7178 7.66456 19.6299C7.65481 19.542 7.61054 19.4616 7.5415 19.4063L6.61683 18.6667H17.3332C17.6868 18.6667 18.0259 18.5262 18.276 18.2761C18.526 18.0261 18.6665 17.687 18.6665 17.3333Z" fill="#515151"/>
<path d="M2.66677 18.6667H3.66677C3.75517 18.6667 3.83996 18.6315 3.90247 18.569C3.96498 18.5065 4.0001 18.4217 4.0001 18.3333C4.0001 18.2449 3.96498 18.1601 3.90247 18.0976C3.83996 18.0351 3.75517 18 3.66677 18H2.66677C2.48995 18 2.32039 17.9298 2.19536 17.8047C2.07034 17.6797 2.0001 17.5101 2.0001 17.3333V6.617L2.73977 7.54167C2.76712 7.57585 2.80095 7.60432 2.83931 7.62543C2.87767 7.64655 2.91981 7.6599 2.96333 7.66473C3.00685 7.66956 3.05089 7.66577 3.09295 7.65358C3.135 7.64138 3.17425 7.62103 3.20843 7.59367C3.24262 7.56631 3.27108 7.53248 3.2922 7.49412C3.31331 7.45577 3.32667 7.41362 3.3315 7.3701C3.33633 7.32658 3.33253 7.28254 3.32034 7.24048C3.30815 7.19843 3.28779 7.15919 3.26043 7.125L1.9271 5.45833C1.89474 5.42104 1.85476 5.39114 1.80984 5.37065C1.76493 5.35015 1.71613 5.33955 1.66677 5.33955C1.6174 5.33955 1.5686 5.35015 1.52369 5.37065C1.47877 5.39114 1.43879 5.42104 1.40643 5.45833L0.0730988 7.125C0.0178454 7.19404 -0.00771714 7.28221 0.00203475 7.3701C0.0117866 7.458 0.0560541 7.53841 0.125099 7.59367C0.194144 7.64892 0.28231 7.67448 0.370202 7.66473C0.458094 7.65498 0.538512 7.61071 0.593766 7.54167L1.33343 6.617V17.3333C1.33343 17.687 1.47391 18.0261 1.72396 18.2761C1.97401 18.5262 2.31314 18.6667 2.66677 18.6667Z" fill="#515151"/>
</g>
<defs>
<clipPath id="clip0_124_387">
<rect width="20" height="20" fill="white"/>
</clipPath>
</defs>
</svg>
