<svg width="23" height="20" viewBox="0 0 23 20" fill="none" xmlns="http://www.w3.org/2000/svg">
<path d="M21.9248 16.6514H21.3383V6.48222C21.3635 6.47113 21.3904 6.46346 21.4184 6.46003C21.8957 6.40202 22.2556 5.99567 22.2556 5.51487V5.01206C22.2556 4.53125 21.8957 4.1249 21.4184 4.06689C21.3101 4.05375 21.2182 3.97916 21.1844 3.877C21.1171 3.67342 21.034 3.47296 20.9375 3.28128C20.8886 3.18424 20.9006 3.06599 20.9679 2.98004C20.9686 2.97906 20.9694 2.97808 20.9702 2.97706C21.2645 2.59869 21.231 2.05858 20.8918 1.71938L20.5363 1.36387C20.1972 1.02475 19.6571 0.991248 19.2788 1.28536C19.2778 1.28616 19.2767 1.28696 19.2757 1.28777C19.1897 1.35514 19.0715 1.36708 18.9744 1.3182C18.7826 1.22165 18.5822 1.13855 18.3787 1.07123C18.2765 1.03741 18.2019 0.945533 18.1888 0.837218C18.1307 0.359892 17.7244 -3.05176e-05 17.2436 -3.05176e-05H16.7408C16.26 -3.05176e-05 15.8537 0.359892 15.7957 0.837218C15.7825 0.945578 15.7079 1.03741 15.6057 1.07123C15.4022 1.13855 15.2018 1.2216 15.01 1.3182C14.913 1.36708 14.7948 1.35514 14.7085 1.28754C14.33 0.991069 13.7882 1.02382 13.4482 1.36382L13.0926 1.71933C12.7527 2.0593 12.7198 2.60114 13.0165 2.97995C13.0839 3.0659 13.0959 3.18415 13.047 3.28115C12.8875 3.59785 12.8141 3.83988 12.7947 3.88978C12.7623 3.87936 12.7278 3.87356 12.692 3.87356H2.96684C2.14385 3.87356 1.47426 4.54311 1.47426 5.36614V16.6512H0.887775C0.39824 16.6514 0 17.0497 0 17.5392C0 18.8961 1.10392 20 2.46077 20H20.3518C21.7087 20 22.8126 18.8961 22.8126 17.5392C22.8126 17.0497 22.4143 16.6514 21.9248 16.6514ZM13.4345 4.08685C13.4916 3.91442 13.562 3.74453 13.6439 3.5819C13.8086 3.25477 13.7689 2.85676 13.5424 2.56768C13.4541 2.45486 13.4638 2.29339 13.5652 2.19203L13.9207 1.83652C14.022 1.73524 14.1835 1.72539 14.2966 1.81406C14.5854 2.04027 14.9834 2.07992 15.3105 1.91525C15.4731 1.83335 15.6431 1.76291 15.8155 1.70588C16.1622 1.59124 16.4149 1.28193 16.4591 0.917953C16.4763 0.775687 16.5974 0.668396 16.7407 0.668396H17.2436C17.3868 0.668396 17.5079 0.775687 17.5252 0.917953C17.5695 1.28193 17.8221 1.59119 18.1688 1.70588C18.3413 1.76295 18.5112 1.8334 18.6738 1.91525C18.9999 2.07948 19.3963 2.04049 19.6849 1.81624C19.6859 1.81544 19.687 1.81464 19.688 1.81379C19.8009 1.72544 19.9623 1.73524 20.0636 1.83652L20.4191 2.19203C20.5205 2.29335 20.5303 2.45482 20.4419 2.56763C20.4411 2.56861 20.4403 2.56959 20.4395 2.57062C20.2152 2.85921 20.1762 3.25571 20.3404 3.58195C20.4223 3.74449 20.4927 3.91438 20.5498 4.0869C20.6644 4.43359 20.9737 4.68617 21.3377 4.73042C21.4799 4.74771 21.5872 4.86881 21.5872 5.0121V5.51491C21.5872 5.6582 21.4799 5.77931 21.3377 5.79659C20.9776 5.84035 20.6651 6.09142 20.5498 6.44011C20.4927 6.61263 20.4223 6.78257 20.3404 6.94511C20.1762 7.27117 20.2151 7.66758 20.4394 7.95617C20.4402 7.95724 20.441 7.95827 20.4418 7.95933C20.5302 8.07215 20.5204 8.23362 20.4191 8.33499L20.0636 8.6905C19.9622 8.79182 19.8007 8.80162 19.6877 8.713C19.3989 8.48679 19.0008 8.44704 18.6737 8.61181C18.5111 8.69366 18.3412 8.7641 18.1688 8.82118C17.8221 8.93582 17.5695 9.24508 17.5252 9.6091C17.5079 9.75133 17.3868 9.85862 17.2435 9.85862H16.7407C16.5974 9.85862 16.4763 9.75133 16.459 9.60906C16.4148 9.24508 16.1622 8.93582 15.8155 8.82118C15.643 8.7641 15.473 8.69366 15.3105 8.61177C15.1763 8.54422 15.0302 8.51103 14.8846 8.51103C14.6752 8.51103 14.4668 8.57964 14.2963 8.71322C14.1835 8.80157 14.0219 8.79182 13.9206 8.6905L13.5651 8.33499C13.4638 8.23367 13.454 8.07215 13.5424 7.95933C13.5431 7.9584 13.5439 7.95746 13.5446 7.95653C13.769 7.66789 13.8081 7.2713 13.6438 6.94511C13.5619 6.78253 13.4915 6.61264 13.4344 6.44016C13.3198 6.09347 13.0105 5.84084 12.6465 5.79664C12.5042 5.77935 12.3969 5.65825 12.3969 5.51496V5.01214C12.3969 4.86885 12.5042 4.74775 12.6465 4.73046C13.0106 4.68613 13.3199 4.43354 13.4345 4.08685ZM2.1426 5.36627C2.1426 4.9118 2.51233 4.54204 2.96684 4.54204H11.854C11.7746 4.68145 11.7287 4.84185 11.7287 5.0121V5.51491C11.7287 5.99571 12.0887 6.40206 12.566 6.46008C12.6744 6.47322 12.7662 6.54781 12.8 6.64997C12.8673 6.8535 12.9504 7.05392 13.047 7.24573C13.0959 7.34273 13.0839 7.46098 13.0165 7.54693C13.0158 7.54791 13.015 7.54889 13.0143 7.54991C12.72 7.92832 12.7534 8.46839 13.0926 8.80759L13.4482 9.1631C13.7881 9.50306 14.33 9.5359 14.7088 9.2392C14.7948 9.17183 14.913 9.15994 15.01 9.20873C15.2018 9.30528 15.4022 9.38842 15.6058 9.45574C15.708 9.48956 15.7825 9.58139 15.7957 9.68975C15.8537 10.167 16.2601 10.527 16.7409 10.527H17.2437C17.7245 10.527 18.1308 10.167 18.1889 9.68971C18.202 9.58139 18.2766 9.48952 18.3788 9.45574C18.5823 9.38842 18.7827 9.30532 18.9745 9.20877C19.0715 9.15994 19.1897 9.17183 19.2761 9.23947C19.6546 9.5359 20.1964 9.50311 20.5364 9.16314L20.6701 9.02943V16.6515H2.1426V5.36627ZM8.18491 17.3197H14.6277V17.6556C14.6277 17.8408 14.477 17.9915 14.2918 17.9915H8.52081C8.33559 17.9915 8.18491 17.8408 8.18491 17.6556V17.3197ZM20.3518 19.3316H2.46077C1.47244 19.3316 0.668338 18.5275 0.668338 17.5392C0.668338 17.4182 0.766761 17.3198 0.887775 17.3198H7.51657V17.6557C7.51657 18.2094 7.96707 18.6599 8.52081 18.6599H14.2918C14.8455 18.6599 15.296 18.2094 15.296 17.6557V17.3198H21.9248C22.0458 17.3198 22.1443 17.4182 22.1443 17.5392C22.1443 18.5275 21.3402 19.3316 20.3518 19.3316Z" fill="#515151"/>
<path d="M19.7698 15.1112V10.5504C19.7698 10.3659 19.6201 10.2162 19.4356 10.2162C19.251 10.2162 19.1014 10.3659 19.1014 10.5504V15.0828H3.71131V6.11065H10.5397C10.7242 6.11065 10.8738 5.96103 10.8738 5.77648C10.8738 5.59193 10.7242 5.44231 10.5397 5.44231H3.68284C3.33 5.44231 3.04297 5.72934 3.04297 6.08218V15.1112C3.04297 15.4641 3.33 15.7511 3.68284 15.7511H19.1299C19.4827 15.7511 19.7698 15.4641 19.7698 15.1112Z" fill="#515151"/>
<path d="M9.86368 7.45936C9.86341 7.45967 9.8631 7.45999 9.86283 7.4603C9.83191 7.49478 9.78277 7.50753 9.73451 7.49367C9.5832 7.45023 9.42752 7.4173 9.27175 7.39587C9.22212 7.38901 9.1826 7.35715 9.16856 7.31264C9.04875 6.93298 8.66312 6.70187 8.27197 6.77494L7.90884 6.8428C7.5175 6.91596 7.24152 7.27071 7.26692 7.66797C7.26991 7.71453 7.24455 7.75855 7.20071 7.78284C7.06326 7.85907 6.92994 7.946 6.80447 8.04117C6.76411 8.07187 6.71327 8.07749 6.67174 8.05588C6.67134 8.05565 6.67094 8.05547 6.67054 8.05525C6.31748 7.87222 5.88217 7.98151 5.65739 8.30958L5.44864 8.61429C5.22359 8.94271 5.27928 9.38872 5.57821 9.65173C5.57848 9.65195 5.57874 9.65222 5.57906 9.65244C5.61359 9.68337 5.62642 9.73247 5.61252 9.78085C5.56903 9.9323 5.5361 10.088 5.51472 10.2436C5.50786 10.2932 5.476 10.3328 5.43153 10.3468C5.05187 10.4666 4.82072 10.8521 4.89383 11.2434L4.96169 11.6065C5.03485 11.9979 5.38987 12.274 5.78686 12.2485C5.8336 12.2456 5.87745 12.2709 5.90173 12.3147C5.97796 12.4522 6.06489 12.5855 6.16006 12.7109C6.19072 12.7513 6.19633 12.8021 6.17477 12.8437C6.17454 12.8441 6.17428 12.8446 6.17406 12.845C5.9912 13.198 6.10049 13.6332 6.42851 13.858L6.73323 14.0668C7.06165 14.2918 7.50766 14.236 7.77062 13.9372C7.77089 13.9369 7.77116 13.9366 7.77143 13.9363C7.80235 13.9018 7.85145 13.889 7.89984 13.9029C8.05124 13.9464 8.20696 13.9793 8.36259 14.0007C8.41218 14.0075 8.45175 14.0394 8.46578 14.0839C8.57076 14.4165 8.87949 14.6351 9.21749 14.6351C9.33654 14.635 9.38559 14.6138 9.72551 14.5538C10.1168 14.4806 10.3928 14.1259 10.3675 13.7285C10.3645 13.682 10.3898 13.638 10.4337 13.6137C10.5711 13.5375 10.7044 13.4506 10.8299 13.3554C10.8703 13.3248 10.9211 13.3191 10.9626 13.3407C10.9636 13.3413 10.9647 13.3418 10.9657 13.3423C11.3185 13.524 11.7526 13.4145 11.977 13.087L12.1858 12.7823C12.4108 12.4538 12.3551 12.0079 12.0562 11.7449C12.0559 11.7446 12.0556 11.7443 12.0553 11.7441C12.0208 11.7132 12.008 11.6641 12.0219 11.6157C12.0653 11.4644 12.0982 11.3087 12.1197 11.1529C12.1265 11.1033 12.1584 11.0638 12.2029 11.0497C12.5825 10.9299 12.8137 10.5445 12.7406 10.1531C12.7406 10.1531 12.7406 10.1531 12.7406 10.1531L12.6727 9.78999C12.5995 9.39861 12.2447 9.12294 11.8475 9.14803C11.8011 9.15119 11.7569 9.12566 11.7327 9.08182C11.6564 8.94436 11.5695 8.81105 11.4743 8.68558C11.4437 8.64522 11.4381 8.59438 11.4596 8.5529C11.4599 8.55241 11.4601 8.55196 11.4604 8.55143C11.6432 8.1985 11.5339 7.76328 11.2059 7.53858L10.9012 7.32979C10.5727 7.10483 10.1267 7.16053 9.86368 7.45936ZM10.5234 7.88117L10.8281 8.08996C10.8781 8.12422 10.8947 8.19061 10.8668 8.24435C10.8665 8.24479 10.8663 8.24528 10.866 8.24577C10.7269 8.51444 10.7566 8.84554 10.9419 9.08962C11.0179 9.18978 11.0873 9.29622 11.1481 9.40596C11.2966 9.67374 11.5879 9.83405 11.8901 9.81503C11.9512 9.81084 12.0046 9.85321 12.0157 9.91278L12.0835 10.2759C12.0947 10.3354 12.0595 10.3941 12.0016 10.4123C11.7129 10.5035 11.4993 10.7584 11.4575 11.0617C11.4404 11.1861 11.4141 11.3104 11.3794 11.4312C11.2947 11.7263 11.3869 12.0463 11.6145 12.2465C11.6148 12.2468 11.615 12.247 11.6153 12.2472C11.6602 12.2874 11.6684 12.3548 11.6343 12.4046L11.4255 12.7093C11.3912 12.7593 11.3249 12.7758 11.2711 12.748C11.27 12.7474 11.2689 12.7468 11.2678 12.7463C10.9995 12.6082 10.6694 12.6383 10.4258 12.8231C10.3256 12.8991 10.2192 12.9685 10.1095 13.0293C9.84171 13.1778 9.68113 13.4691 9.70047 13.7713C9.70435 13.8317 9.66233 13.8858 9.60272 13.8969L9.23963 13.9647C9.1801 13.9758 9.12138 13.9407 9.10316 13.8829C9.01204 13.5941 8.75713 13.3805 8.45375 13.3387C8.32953 13.3217 8.20522 13.2954 8.08434 13.2607C8.01158 13.2398 7.93735 13.2297 7.86375 13.2297C7.63878 13.2297 7.41988 13.3243 7.26901 13.4958C7.26879 13.4961 7.26857 13.4963 7.2683 13.4966C7.2282 13.5415 7.16074 13.5497 7.11098 13.5156L6.80626 13.3068C6.75627 13.2726 6.73965 13.2062 6.76763 13.1524C6.76785 13.152 6.76807 13.1515 6.7683 13.1511C6.90749 12.8824 6.87781 12.5513 6.69246 12.3071C6.61645 12.2069 6.54708 12.1005 6.48626 11.9908C6.33775 11.723 6.04667 11.5626 5.74431 11.5817C5.68327 11.586 5.62985 11.5436 5.61871 11.484L5.55085 11.1209C5.53971 11.0613 5.57491 11.0026 5.6327 10.9844C5.92147 10.8933 6.13507 10.6383 6.17686 10.335C6.19393 10.2108 6.22021 10.0865 6.25492 9.96554C6.33967 9.67049 6.24739 9.35049 6.01985 9.15026C6.01953 9.14999 6.01922 9.14972 6.01891 9.14941C5.97413 9.10931 5.96598 9.0419 6.00002 8.99222L6.20876 8.68745C6.24307 8.63746 6.30937 8.62089 6.36319 8.64882C6.36355 8.649 6.36391 8.64923 6.36426 8.6494C6.63294 8.78869 6.96421 8.75906 7.20846 8.5737C7.30862 8.49769 7.41507 8.42832 7.52481 8.36745C7.79259 8.21895 7.95317 7.92773 7.93388 7.62551C7.93 7.56505 7.97202 7.511 8.03159 7.49991L8.39472 7.43205C8.45411 7.42078 8.51292 7.45611 8.53119 7.5139C8.62231 7.80266 8.87721 8.01627 9.18059 8.05806C9.30495 8.07521 9.42926 8.1015 9.55001 8.13617C9.84501 8.22087 10.1651 8.12864 10.3654 7.90109C10.3656 7.90082 10.3658 7.90055 10.3661 7.90029C10.4061 7.85533 10.4736 7.84709 10.5234 7.88117Z" fill="#515151"/>
<path d="M8.39693 8.79545C7.39652 9.01564 6.735 9.98121 6.8909 10.9937C7.06257 12.1081 8.13467 12.8438 9.2373 12.6012C10.2378 12.381 10.8993 11.4155 10.7434 10.403C10.5726 9.29469 9.50494 8.55159 8.39693 8.79545ZM9.09365 11.9485C8.37367 12.1071 7.66506 11.6292 7.55144 10.8919C7.44905 10.227 7.88356 9.59277 8.54058 9.44815C9.26069 9.28962 9.96922 9.76743 10.0828 10.5047C10.1852 11.1697 9.75071 11.8039 9.09365 11.9485Z" fill="#515151"/>
<path d="M17.0801 7.96018C18.4976 7.91491 19.6435 6.76907 19.6888 5.35152C19.7384 3.79595 18.4706 2.51684 16.904 2.56683C15.4865 2.6121 14.3406 3.75794 14.2954 5.17548C14.2457 6.73066 15.513 8.01026 17.0801 7.96018ZM14.9634 5.19678C14.9974 4.13065 15.8592 3.26881 16.9254 3.23481C18.0934 3.19769 19.0585 4.14825 19.0208 5.33018C18.9867 6.39631 18.1249 7.25816 17.0588 7.29215C15.8903 7.32918 14.9256 6.37831 14.9634 5.19678Z" fill="#515151"/>
</svg>
