<svg width="18" height="20" viewBox="0 0 18 20" fill="none" xmlns="http://www.w3.org/2000/svg">
<path d="M14.7539 0.729523C13.1444 0.259094 11.0262 0 8.78906 0C6.55197 0 4.43375 0.259094 2.82425 0.729523C1.64902 1.073 0 1.74545 0 2.96875V17.0312C0 18.2549 1.65009 18.9273 2.82425 19.2705C4.43375 19.7409 6.55197 20 8.78906 20C11.0262 20 13.1444 19.7409 14.7539 19.2705C15.9291 18.927 17.5781 18.2545 17.5781 17.0312V2.96875C17.5781 1.74591 15.9302 1.0733 14.7539 0.729523ZM8.78906 1.17188C10.9178 1.17188 12.9195 1.41418 14.4252 1.8544C16.0423 2.32697 16.4062 2.8299 16.4062 2.96875C16.4062 3.10593 16.0429 3.60138 14.4286 4.06265C12.9301 4.49081 10.9273 4.72656 8.78906 4.72656C3.87131 4.72656 1.17188 3.52493 1.17188 2.96875C1.17188 2.42767 3.81622 1.17188 8.78906 1.17188ZM14.4252 18.1456C12.9195 18.5858 10.9178 18.8281 8.78906 18.8281C3.84369 18.8281 1.17188 17.579 1.17188 17.0312V16.2492C2.51099 17.0128 4.80133 17.4252 6.99478 17.5621L7.06772 16.3925C5.32074 16.2836 3.74115 16.0071 2.62024 15.614C1.43799 15.1994 1.17188 14.7961 1.17188 14.6875V13.9093C3.07785 14.986 6.586 15.2734 8.78906 15.2734C11.0233 15.2734 14.5139 14.9783 16.4062 13.9093V17.0312C16.4062 17.1701 16.0423 17.673 14.4252 18.1456ZM8.78906 14.1016C3.87131 14.1016 1.17188 12.8999 1.17188 12.3438V11.5617C2.51099 12.3253 4.80133 12.7377 6.99478 12.8746L7.06772 11.705C3.00262 11.4514 1.17188 10.4202 1.17188 10V9.2218C3.07861 10.2988 6.58783 10.5859 8.78906 10.5859C10.9854 10.5859 14.4998 10.2988 16.4062 9.2218V12.3438C16.4062 12.8761 13.7929 14.1016 8.78906 14.1016ZM8.78906 9.41406C3.87131 9.41406 1.17188 8.21243 1.17188 7.65625V6.87424C2.51099 7.63779 4.80133 8.05023 6.99478 8.1871L7.06772 7.01752C3.00262 6.76392 1.17188 5.73273 1.17188 5.3125V4.5343C3.07861 5.61127 6.58783 5.89844 8.78906 5.89844C11.033 5.89844 13.1502 5.64667 14.7505 5.18936C15.4213 4.99771 15.9731 4.77905 16.4062 4.5343V7.65625C16.4062 8.18863 13.7929 9.41406 8.78906 9.41406Z" fill="#515151"/>
<path d="M8.20312 7.07031H9.375V8.24219H8.20312V7.07031Z" fill="#515151"/>
<path d="M8.20312 11.7578H9.375V12.9297H8.20312V11.7578Z" fill="#515151"/>
<path d="M8.20312 16.4453H9.375V17.6172H8.20312V16.4453Z" fill="#515151"/>
</svg>
