<svg width="20" height="20" viewBox="0 0 20 20" fill="none" xmlns="http://www.w3.org/2000/svg">
<g clip-path="url(#clip0_124_396)">
<path d="M17.8125 0.625H12.1875C11.7733 0.625496 11.3761 0.790276 11.0832 1.08319C10.7903 1.37611 10.6255 1.77325 10.625 2.1875V7.1875H9.375V6.875H8.75V7.1875H7.8125C7.39825 7.188 7.00111 7.35278 6.70819 7.64569C6.41528 7.93861 6.2505 8.33575 6.25 8.75H5.97313V9.375H6.25V10.625H1.875V19.375H18.125V10.625H15V9.375H17.8125C18.2267 9.3745 18.6239 9.20972 18.9168 8.91681C19.2097 8.62389 19.3745 8.22675 19.375 7.8125V2.1875C19.3745 1.77325 19.2097 1.37611 18.9168 1.08319C18.6239 0.790276 18.2267 0.625496 17.8125 0.625ZM7.8125 7.8125H13.4375C13.6861 7.8125 13.9246 7.91127 14.1004 8.08709C14.2762 8.2629 14.375 8.50136 14.375 8.75V11.1206L12.8125 9.55813L9.6875 12.6831L8.125 11.1206L6.875 12.3706V8.75C6.875 8.50136 6.97377 8.2629 7.14959 8.08709C7.3254 7.91127 7.56386 7.8125 7.8125 7.8125ZM10.9375 13.75H10.7544L10.1294 13.125L12.8125 10.4419L14.375 12.0044V14.375C14.375 14.6236 14.2762 14.8621 14.1004 15.0379C13.9246 15.2137 13.6861 15.3125 13.4375 15.3125H12.5C12.4995 14.8983 12.3347 14.5011 12.0418 14.2082C11.7489 13.9153 11.3517 13.7505 10.9375 13.75ZM8.75 16.25C8.66712 16.25 8.58763 16.2171 8.52903 16.1585C8.47042 16.0999 8.4375 16.0204 8.4375 15.9375C8.4375 15.8546 8.47042 15.7751 8.52903 15.7165C8.58763 15.6579 8.66712 15.625 8.75 15.625H9.375V15.3125C9.375 15.0639 9.47377 14.8254 9.64959 14.6496C9.8254 14.4738 10.0639 14.375 10.3125 14.375H10.9375C11.1861 14.375 11.4246 14.4738 11.6004 14.6496C11.7762 14.8254 11.875 15.0639 11.875 15.3125V17.1875C11.875 17.2704 11.8421 17.3499 11.7835 17.4085C11.7249 17.4671 11.6454 17.5 11.5625 17.5H9.6875C9.60462 17.5 9.52513 17.4671 9.46653 17.4085C9.40792 17.3499 9.375 17.2704 9.375 17.1875V16.25H8.75ZM8.05625 15.3125H7.8125C7.56386 15.3125 7.3254 15.2137 7.14959 15.0379C6.97377 14.8621 6.875 14.6236 6.875 14.375V13.2544L8.125 12.0044L9.925 13.8047C9.64159 13.8769 9.38415 14.0272 9.18195 14.2386C8.97975 14.4499 8.84092 14.7137 8.78125 15H8.75C8.6189 15.0004 8.48935 15.0285 8.36981 15.0823C8.25028 15.1361 8.14343 15.2146 8.05625 15.3125ZM2.5 11.25H6.25V12.5H2.5V11.25ZM17.5 18.75H2.5V13.125H6.25V14.375C6.2505 14.7892 6.41528 15.1864 6.70819 15.4793C7.00111 15.7722 7.39825 15.937 7.8125 15.9375C7.8125 16.1861 7.91127 16.4246 8.08709 16.6004C8.2629 16.7762 8.50136 16.875 8.75 16.875V17.1875C8.75 17.4361 8.84877 17.6746 9.02459 17.8504C9.2004 18.0262 9.43886 18.125 9.6875 18.125H11.5625C11.8111 18.125 12.0496 18.0262 12.2254 17.8504C12.4012 17.6746 12.5 17.4361 12.5 17.1875V15.9375H13.4375C13.8517 15.937 14.2489 15.7722 14.5418 15.4793C14.8347 15.1864 14.9995 14.7892 15 14.375V13.125H17.5V18.75ZM17.5 11.25V12.5H15V11.25H17.5ZM18.75 7.8125C18.75 8.06114 18.6512 8.2996 18.4754 8.47541C18.2996 8.65123 18.0611 8.75 17.8125 8.75H15C14.9998 8.53472 14.9547 8.32184 14.8675 8.125H15.9375V7.5H15.3125V2.5H16.875V3.125H17.5V1.875H12.5V3.125H13.125V2.5H14.6875V7.5H14.3653C14.098 7.29817 13.7724 7.18851 13.4375 7.1875H11.25V2.1875C11.25 1.93886 11.3488 1.7004 11.5246 1.52459C11.7004 1.34877 11.9389 1.25 12.1875 1.25H17.8125C18.0611 1.25 18.2996 1.34877 18.4754 1.52459C18.6512 1.7004 18.75 1.93886 18.75 2.1875V7.8125Z" fill="#515151"/>
<path d="M2.90312 11.6531C2.84607 11.713 2.81371 11.7923 2.8125 11.875C2.81312 11.9578 2.84556 12.0373 2.90312 12.0969C2.96304 12.1539 3.04227 12.1863 3.125 12.1875C3.14596 12.187 3.16685 12.1849 3.1875 12.1813C3.20708 12.1778 3.22604 12.1715 3.24375 12.1625C3.26296 12.1563 3.28094 12.1468 3.29688 12.1344C3.31563 12.1219 3.33125 12.1094 3.34687 12.0969C3.40444 12.0373 3.43688 11.9578 3.4375 11.875C3.43786 11.8129 3.41973 11.7522 3.38542 11.7004C3.3511 11.6487 3.30216 11.6084 3.24484 11.5846C3.18751 11.5608 3.1244 11.5546 3.06354 11.5668C3.00268 11.579 2.94683 11.6091 2.90312 11.6531Z" fill="#515151"/>
<path d="M3.94375 11.5875C3.90589 11.6034 3.87102 11.6255 3.84062 11.6531C3.78357 11.713 3.75121 11.7923 3.75 11.875C3.75062 11.9578 3.78306 12.0373 3.84062 12.0969C3.87102 12.1245 3.90589 12.1466 3.94375 12.1625C3.98083 12.18 4.02151 12.1886 4.0625 12.1875C4.14523 12.1863 4.22446 12.1539 4.28438 12.0969C4.34194 12.0373 4.37438 11.9578 4.375 11.875C4.37379 11.7923 4.34143 11.713 4.28438 11.6531C4.24043 11.6098 4.18463 11.5804 4.124 11.5687C4.06338 11.557 4.00066 11.5636 3.94375 11.5875Z" fill="#515151"/>
<path d="M5.22188 11.6531C5.17817 11.6091 5.12233 11.579 5.06147 11.5668C5.00061 11.5546 4.93749 11.5608 4.88017 11.5846C4.82284 11.6084 4.7739 11.6487 4.73959 11.7004C4.70528 11.7522 4.68714 11.8129 4.68751 11.875C4.68812 11.9578 4.72057 12.0373 4.77813 12.0969C4.83737 12.155 4.91703 12.1875 5.00001 12.1875C5.08298 12.1875 5.16264 12.155 5.22188 12.0969C5.23532 12.082 5.24784 12.0664 5.25938 12.05C5.27122 12.0326 5.28068 12.0137 5.28751 11.9938C5.29653 11.976 5.30285 11.9571 5.30626 11.9375C5.30988 11.9169 5.31197 11.896 5.31251 11.875C5.31129 11.7923 5.27893 11.713 5.22188 11.6531Z" fill="#515151"/>
<path d="M8.4375 10.3125C8.62292 10.3125 8.80418 10.2575 8.95835 10.1545C9.11252 10.0515 9.23268 9.90507 9.30364 9.73377C9.37459 9.56246 9.39316 9.37396 9.35699 9.1921C9.32081 9.01025 9.23152 8.8432 9.10041 8.71209C8.9693 8.58098 8.80225 8.49169 8.6204 8.45551C8.43854 8.41934 8.25004 8.43791 8.07873 8.50886C7.90743 8.57982 7.76101 8.69998 7.658 8.85415C7.55498 9.00832 7.5 9.18958 7.5 9.375C7.5 9.62364 7.59877 9.8621 7.77459 10.0379C7.9504 10.2137 8.18886 10.3125 8.4375 10.3125ZM8.4375 9.0625C8.49931 9.0625 8.55973 9.08083 8.61112 9.11517C8.66251 9.1495 8.70256 9.19831 8.72621 9.25541C8.74986 9.31251 8.75605 9.37535 8.744 9.43597C8.73194 9.49659 8.70218 9.55227 8.65847 9.59597C8.61477 9.63968 8.55909 9.66944 8.49847 9.6815C8.43785 9.69355 8.37501 9.68737 8.31791 9.66371C8.26081 9.64006 8.212 9.60001 8.17767 9.54862C8.14333 9.49723 8.125 9.43681 8.125 9.375C8.125 9.29212 8.15792 9.21263 8.21653 9.15403C8.27513 9.09542 8.35462 9.0625 8.4375 9.0625Z" fill="#515151"/>
<path d="M7.81238 0.625H6.86426V1.25H7.82676L7.81238 0.625Z" fill="#515151"/>
<path d="M8.46484 1.51437C8.63764 1.68098 8.73969 1.90768 8.74984 2.1475L9.37484 2.12125C9.3582 1.72137 9.18807 1.3433 8.89984 1.06562L8.46484 1.51437Z" fill="#515151"/>
<path d="M5.02479 8.75H4.07666V9.375H5.02479V8.75Z" fill="#515151"/>
<path d="M1.25 2.18375L0.625 2.1875V3.13188H1.25V2.18375Z" fill="#515151"/>
<path d="M5.9159 0.625H4.96777V1.25H5.9159V0.625Z" fill="#515151"/>
<path d="M4.0199 0.625H3.07178V1.25H4.0199V0.625Z" fill="#515151"/>
<path d="M9.375 3.0825H8.75V4.03063H9.375V3.0825Z" fill="#515151"/>
<path d="M9.375 4.97875H8.75V5.92688H9.375V4.97875Z" fill="#515151"/>
<path d="M2.1074 0.627188C1.70795 0.646732 1.33141 0.819553 1.05615 1.10969L1.50865 1.54063C1.67355 1.36628 1.8993 1.26219 2.13896 1.25L2.1074 0.627188Z" fill="#515151"/>
<path d="M2.18018 8.75L2.18736 9.375H3.1283V8.75L2.20674 8.75063L2.18018 8.75Z" fill="#515151"/>
<path d="M0.626953 7.88781C0.645487 8.28738 0.817286 8.66445 1.10664 8.94063L1.53914 8.48938C1.36507 8.32405 1.26152 8.09792 1.25008 7.85813L0.626953 7.88781Z" fill="#515151"/>
<path d="M1.25 5.97656H0.625V6.92469H1.25V5.97656Z" fill="#515151"/>
<path d="M1.25 4.08031H0.625V5.02875H1.25V4.08031Z" fill="#515151"/>
</g>
<defs>
<clipPath id="clip0_124_396">
<rect width="20" height="20" fill="white"/>
</clipPath>
</defs>
</svg>
