<svg width="26" height="20" viewBox="0 0 26 20" fill="none" xmlns="http://www.w3.org/2000/svg">
<path d="M24.6857 20H0.391837C0.174694 20 0 19.8253 0 19.6082C0 19.391 0.174694 19.2163 0.391837 19.2163H24.6857C24.9029 19.2163 25.0775 19.391 25.0775 19.6082C25.0775 19.8253 24.9029 20 24.6857 20Z" fill="#515151"/>
<path d="M22.1535 20H11.4352C10.8066 20 10.2939 19.489 10.2939 18.8588C10.2939 18.2286 10.805 17.7176 11.4352 17.7176H22.1535C22.7821 17.7176 23.2948 18.2286 23.2948 18.8588C23.2948 19.489 22.7837 20 22.1535 20ZM11.4352 18.5029C11.2376 18.5029 11.0776 18.6629 11.0776 18.8604C11.0776 19.058 11.2376 19.218 11.4352 19.218H22.1535C22.3511 19.218 22.5111 19.058 22.5111 18.8604C22.5111 18.6629 22.3511 18.5029 22.1535 18.5029H11.4352Z" fill="#515151"/>
<path d="M22.0639 18.5029H11.5251C11.308 18.5029 11.1333 18.3282 11.1333 18.111V12.0539C11.1333 11.4776 11.6019 11.009 12.1782 11.009H21.4109C21.9872 11.009 22.4557 11.4776 22.4557 12.0539V18.111C22.4557 18.3265 22.2811 18.5029 22.0639 18.5029ZM11.917 17.7192H21.6721V12.0539C21.6721 11.9102 21.5545 11.7927 21.4109 11.7927H12.1782C12.0345 11.7927 11.917 11.9102 11.917 12.0539V17.7192Z" fill="#515151"/>
<path d="M1.34221 20.0001C1.1267 20.0001 0.950374 19.8254 0.950374 19.6099C0.947109 18.7234 0.98466 16.5046 1.38629 15.0728C1.49405 14.6858 1.62629 14.3691 1.80099 14.0768C1.94793 13.8287 2.37568 13.2066 3.13976 12.7773C3.8467 12.3789 4.52262 12.3201 4.96507 12.3413C5.0418 12.3446 5.11527 12.3707 5.17731 12.4164L6.89976 13.6736L8.7218 12.4115C8.78221 12.3691 8.85405 12.3462 8.92752 12.343C9.36997 12.3217 10.0459 12.3822 10.7528 12.7789C11.2655 13.0679 11.623 13.4417 11.832 13.7046C11.9659 13.8744 11.9381 14.1209 11.7683 14.2548C11.5985 14.3887 11.352 14.3609 11.2181 14.1911C11.0532 13.9838 10.7724 13.6883 10.3691 13.4613C9.88425 13.1887 9.41895 13.1217 9.08262 13.1217C9.07935 13.1217 9.07609 13.1217 9.07446 13.1217L7.11854 14.4752C6.98139 14.5699 6.79854 14.5683 6.66466 14.4703L4.8165 13.1201C4.81486 13.1201 4.81323 13.1201 4.81323 13.1201C4.4769 13.1201 4.0116 13.1854 3.5267 13.4597C2.92588 13.7977 2.59282 14.2842 2.4769 14.4785C2.3365 14.7136 2.23364 14.9617 2.14384 15.285C1.75854 16.6597 1.73568 18.9422 1.73731 19.6083C1.73405 19.8238 1.55935 20.0001 1.34221 20.0001Z" fill="#515151"/>
<path d="M3.70482 20.0001C3.48768 20.0001 3.31299 19.8254 3.31299 19.6083V16.4605C3.31299 16.2434 3.48768 16.0687 3.70482 16.0687C3.92197 16.0687 4.09666 16.2434 4.09666 16.4605V19.6083C4.09666 19.8254 3.92034 20.0001 3.70482 20.0001Z" fill="#515151"/>
<path d="M6.96166 12.5128C6.16003 12.5128 5.40901 12.17 4.84738 11.5479C4.29554 10.9357 3.99023 10.1259 3.99023 9.26547V8.05894C3.99023 7.89241 4.09636 7.74384 4.25472 7.68833C4.39513 7.63935 4.81309 7.45486 5.0384 7.2067C5.17717 7.0516 5.40901 7.03037 5.57064 7.16098C5.59187 7.17731 5.89554 7.39772 6.41636 7.50874C7.13636 7.66221 7.91513 7.54629 8.72983 7.16262C8.8833 7.09078 9.06452 7.12507 9.18207 7.24752C9.18534 7.25078 9.48248 7.56262 9.7486 7.72588C9.86452 7.79772 9.93472 7.92343 9.93472 8.05894V9.26547C9.93472 10.1259 9.63105 10.9357 9.07758 11.5479C8.51432 12.17 7.7633 12.5128 6.96166 12.5128ZM4.77554 8.32017V9.26547C4.77554 10.6238 5.75676 11.7291 6.9633 11.7291C8.16983 11.7291 9.15105 10.6238 9.15105 9.26547V8.26466C9.02534 8.16996 8.90779 8.06711 8.81472 7.98221C7.69309 8.44588 6.7837 8.3969 6.20411 8.26302C5.84493 8.18139 5.56738 8.06058 5.37799 7.95935C5.16901 8.12098 4.9437 8.2418 4.77554 8.32017Z" fill="#515151"/>
<path d="M4.38365 8.45073C4.23182 8.45073 4.08814 8.36256 4.02447 8.21399C3.8808 7.88093 3.85794 7.52828 3.83835 7.21807C3.82202 6.96501 3.80243 6.64828 3.87753 6.33644C3.94284 6.06215 4.10284 5.77317 4.36569 5.45154C4.40651 5.40093 4.44896 5.35195 4.49304 5.30624C5.19835 4.55032 6.3559 4.25481 6.5812 4.20256C7.02202 4.10134 7.44488 4.06542 7.83671 4.09481C8.11263 4.11603 8.3461 4.15522 8.55181 4.21236C8.84406 4.29399 9.07263 4.45236 9.21467 4.67113C9.28488 4.77889 9.32733 4.88828 9.36324 4.98297C9.39263 5.05971 9.42039 5.13154 9.45141 5.16909C9.50039 5.22624 9.56733 5.27848 9.64406 5.34052C9.73386 5.41236 9.83671 5.49236 9.92977 5.59848C10.1534 5.85154 10.4065 6.2744 10.4457 6.70379C10.4816 7.10542 10.3249 7.45154 10.1845 7.70787C10.1812 7.7144 10.173 7.73073 10.1616 7.75195C9.92161 8.21399 9.871 8.2842 9.80406 8.34624C9.64406 8.49154 9.3959 8.48175 9.25059 8.32175C9.11508 8.17317 9.11508 7.9495 9.24243 7.80093C9.26365 7.76828 9.31916 7.67358 9.46447 7.39113C9.48079 7.36011 9.49222 7.33889 9.49549 7.33073C9.62447 7.09399 9.67671 6.92256 9.66365 6.77399C9.64569 6.58134 9.51345 6.31195 9.34202 6.11766C9.29467 6.06379 9.231 6.01317 9.15753 5.95603C9.0612 5.8793 8.95182 5.79277 8.85222 5.67521C8.73631 5.53807 8.67753 5.38787 8.63182 5.26542C8.60569 5.19848 8.58284 5.13644 8.55508 5.09562C8.50773 5.02215 8.39998 4.98297 8.33957 4.96501C8.18284 4.92093 7.99835 4.89154 7.77467 4.87521C7.4612 4.85072 7.11835 4.88175 6.7559 4.96501C6.24161 5.08256 5.49059 5.38297 5.06447 5.83848C5.03182 5.87277 5.0008 5.90868 4.97141 5.94624C4.74284 6.22705 4.66447 6.41154 4.63835 6.51766C4.591 6.71522 4.60569 6.95522 4.61875 7.16746C4.63508 7.42705 4.65141 7.69481 4.7412 7.90215C4.82773 8.10134 4.73631 8.33154 4.53712 8.41807C4.48814 8.44093 4.4359 8.45073 4.38365 8.45073Z" fill="#515151"/>
<path d="M5.41063 13.4614C5.35512 13.4614 5.29798 13.45 5.2441 13.4238C5.04818 13.3324 4.96329 13.0989 5.05635 12.903C5.12655 12.7528 5.24737 12.4508 5.25553 12.1243C5.2588 12.0002 5.2441 11.9479 5.21635 11.8451C5.20982 11.8206 5.20329 11.7977 5.19676 11.7716C5.14288 11.5626 5.26696 11.3487 5.47757 11.2932C5.68655 11.2377 5.90043 11.3634 5.95594 11.574C5.96247 11.5953 5.96737 11.6165 5.97227 11.6361C6.00655 11.7618 6.04574 11.9038 6.04084 12.1438C6.02941 12.5896 5.88574 12.983 5.76818 13.2361C5.69961 13.3781 5.55757 13.4614 5.41063 13.4614Z" fill="#515151"/>
<path d="M8.45565 13.4647C8.31361 13.4647 8.17646 13.3863 8.10626 13.2524C7.90871 12.8688 7.80095 12.4671 7.79116 12.0916C7.78626 11.9006 7.81075 11.7733 7.83524 11.6753C7.87442 11.5006 8.03116 11.37 8.21728 11.37C8.43442 11.37 8.60912 11.5447 8.60912 11.7618C8.60912 11.7945 8.60585 11.8271 8.59769 11.8582C8.58463 11.9104 8.5732 11.9659 8.57646 12.072C8.58463 12.3986 8.70544 12.7006 8.80667 12.8949C8.90626 13.0875 8.82952 13.3243 8.63687 13.4222C8.57646 13.45 8.51606 13.4647 8.45565 13.4647Z" fill="#515151"/>
<path d="M10.3315 10.0229H9.54125C9.32411 10.0229 9.14941 9.84823 9.14941 9.63109V8.05884C9.14941 7.8417 9.32411 7.667 9.54125 7.667H10.3315C10.8164 7.667 11.2098 8.06047 11.2098 8.54537V9.14455C11.2098 9.62945 10.8164 10.0229 10.3315 10.0229ZM9.93309 9.23925H10.3315C10.3837 9.23925 10.4261 9.1968 10.4261 9.14455V8.54537C10.4261 8.49313 10.3837 8.45068 10.3315 8.45068H9.93309V9.23925Z" fill="#515151"/>
<path d="M4.3839 10.023H3.5937C3.1088 10.023 2.71533 9.6295 2.71533 9.14461V8.54542C2.71533 8.06053 3.1088 7.66706 3.5937 7.66706H4.3839C4.60105 7.66706 4.77574 7.84175 4.77574 8.05889V9.63114C4.77574 9.84828 4.59941 10.023 4.3839 10.023ZM3.5937 8.45073C3.54145 8.45073 3.49901 8.49318 3.49901 8.54542V9.14461C3.49901 9.19685 3.54145 9.2393 3.5937 9.2393H3.99207V8.45073H3.5937Z" fill="#515151"/>
<path d="M10.3873 11.2768H6.96361C6.74647 11.2768 6.57178 11.1021 6.57178 10.885C6.57178 10.6678 6.74647 10.4931 6.96361 10.4931H9.99708V9.62782C9.99708 9.41068 10.1718 9.23599 10.3889 9.23599C10.6061 9.23599 10.7808 9.41068 10.7808 9.62782V10.885C10.7791 11.1021 10.6044 11.2768 10.3873 11.2768Z" fill="#515151"/>
<path d="M15.319 9.54939C15.2667 9.54939 15.2145 9.53959 15.1639 9.51837C15.0202 9.45633 14.9271 9.31429 14.9271 9.15755V7.5298H13.1965C12.9794 7.5298 12.8047 7.3551 12.8047 7.13796V0.391837C12.8047 0.174694 12.9794 0 13.1965 0H21.6488C21.8659 0 22.0406 0.174694 22.0406 0.391837V7.13796C22.0406 7.3551 21.8659 7.5298 21.6488 7.5298H17.5965L15.5884 9.44163C15.5149 9.51184 15.4169 9.54939 15.319 9.54939ZM13.5884 6.74612H15.319C15.5361 6.74612 15.7108 6.92082 15.7108 7.13796V8.24327L17.1704 6.85388C17.2439 6.78531 17.3402 6.74612 17.4398 6.74612H21.2569V0.783673H13.5884V6.74612Z" fill="#515151"/>
<path d="M17.4233 5.17714C17.2061 5.17714 17.0315 5.00245 17.0315 4.7853V4.03102C17.0315 3.81387 17.2061 3.63918 17.4233 3.63918C17.8527 3.63918 18.2021 3.28979 18.2021 2.86041C18.2021 2.43102 17.8527 2.08163 17.4233 2.08163C16.9939 2.08163 16.6445 2.43102 16.6445 2.86041C16.6445 3.07755 16.4698 3.25224 16.2527 3.25224C16.0355 3.25224 15.8608 3.07755 15.8608 2.86041C15.8608 1.99836 16.5612 1.29796 17.4233 1.29796C18.2853 1.29796 18.9857 1.99836 18.9857 2.86041C18.9857 3.58694 18.4878 4.19918 17.8151 4.37224V4.7853C17.8151 5.00081 17.6388 5.17714 17.4233 5.17714Z" fill="#515151"/>
<path d="M17.4231 6.23019C17.2059 6.23019 17.0312 6.05549 17.0312 5.83835V5.82202C17.0312 5.60488 17.2059 5.43019 17.4231 5.43019C17.6402 5.43019 17.8149 5.60488 17.8149 5.82202V5.83835C17.8149 6.05549 17.6386 6.23019 17.4231 6.23019Z" fill="#515151"/>
</svg>
