<svg width="20" height="20" viewBox="0 0 20 20" fill="none" xmlns="http://www.w3.org/2000/svg">
<path d="M14.4252 11.4511L18.097 7.24785L14.4252 3.04465C14.1284 2.70461 14.163 2.18824 14.5031 1.89125C14.8431 1.59453 15.3592 1.62941 15.6565 1.96918L19.7981 6.71023C20.0673 7.01812 20.0673 7.47781 19.7981 7.7857L15.6564 12.5268C15.4946 12.7115 15.2682 12.8064 15.0404 12.8064C14.8496 12.8064 14.6581 12.7399 14.5031 12.6045C14.163 12.3075 14.1282 11.7911 14.4252 11.4511Z" fill="#FF5B22"/>
<path d="M5.94023 6.43043H19.1826C19.6341 6.43043 20 6.79633 20 7.24785C20 7.69934 19.6341 8.06527 19.1826 8.06527H5.94023C3.56617 8.06527 1.63484 9.99656 1.63484 12.3704C1.63484 14.7442 3.56617 16.6755 5.94023 16.6755H18.0927C18.5441 16.6755 18.9101 17.0414 18.9101 17.4929C18.9101 17.9444 18.5441 18.3104 18.0927 18.3104H5.94023C2.66508 18.3104 0 15.6455 0 12.3704C0 9.09523 2.66481 6.43043 5.94023 6.43043Z" fill="#FF5B22"/>
</svg>
