<svg width="20" height="20" viewBox="0 0 20 20" fill="none" xmlns="http://www.w3.org/2000/svg">
<g clip-path="url(#clip0_124_418)">
<path d="M17.8125 10.7906V4.6625C18.8709 4.51 19.6875 3.59969 19.6875 2.5C19.6875 1.29406 18.7062 0.3125 17.5 0.3125C16.2938 0.3125 15.3125 1.29406 15.3125 2.5H0.3125V15H9.70344C9.86594 17.6112 12.0362 19.6875 14.6875 19.6875C17.4444 19.6875 19.6875 17.4444 19.6875 14.6875C19.6875 13.1128 18.9541 11.7078 17.8125 10.7906ZM17.5 0.9375C18.3616 0.9375 19.0625 1.63844 19.0625 2.5C19.0625 3.36156 18.3616 4.0625 17.5 4.0625C16.6384 4.0625 15.9375 3.36156 15.9375 2.5C15.9375 1.63844 16.6384 0.9375 17.5 0.9375ZM0.9375 3.125H15.4047C15.4794 3.37437 15.5981 3.60406 15.7506 3.80781L13.8394 5.71906C13.7169 5.66031 13.5819 5.625 13.4375 5.625C13.2931 5.625 13.1581 5.66031 13.0359 5.71906L12.4063 5.08937C12.4647 4.96687 12.5 4.83188 12.5 4.6875C12.5 4.17062 12.0794 3.75 11.5625 3.75C11.0456 3.75 10.625 4.17062 10.625 4.6875C10.625 4.83188 10.6603 4.96687 10.7191 5.08906L9.15187 6.65625C9.02937 6.59781 8.89438 6.5625 8.75 6.5625C8.23312 6.5625 7.8125 6.98312 7.8125 7.5C7.8125 8.01688 8.23312 8.4375 8.75 8.4375C9.26688 8.4375 9.6875 8.01688 9.6875 7.5C9.6875 7.35562 9.65219 7.22063 9.59344 7.09844L11.1606 5.53125C11.2831 5.58969 11.4181 5.625 11.5625 5.625C11.7069 5.625 11.8419 5.58969 11.9641 5.53094L12.5937 6.16063C12.5353 6.28313 12.5 6.41812 12.5 6.5625C12.5 7.07938 12.9206 7.5 13.4375 7.5C13.9544 7.5 14.375 7.07938 14.375 6.5625C14.375 6.41812 14.3397 6.28313 14.2809 6.16094L16.1925 4.24969C16.4784 4.46406 16.8178 4.60937 17.1875 4.66281V10.3644C16.4509 9.93656 15.5987 9.6875 14.6875 9.6875C13.1937 9.6875 11.8544 10.3494 10.9375 11.3916V10H9.0625V13.75H9.77875C9.74 13.9541 9.71656 14.1631 9.70344 14.375H0.9375V3.125ZM13.4375 6.25C13.6097 6.25 13.75 6.39 13.75 6.5625C13.75 6.735 13.6097 6.875 13.4375 6.875C13.2653 6.875 13.125 6.735 13.125 6.5625C13.125 6.39 13.2653 6.25 13.4375 6.25ZM11.25 4.6875C11.25 4.515 11.3903 4.375 11.5625 4.375C11.7347 4.375 11.875 4.515 11.875 4.6875C11.875 4.86 11.7347 5 11.5625 5C11.3903 5 11.25 4.86 11.25 4.6875ZM9.0625 7.5C9.0625 7.6725 8.92219 7.8125 8.75 7.8125C8.57781 7.8125 8.4375 7.6725 8.4375 7.5C8.4375 7.3275 8.57781 7.1875 8.75 7.1875C8.92219 7.1875 9.0625 7.3275 9.0625 7.5ZM14.6875 17.1875C13.3091 17.1875 12.1875 16.0659 12.1875 14.6875C12.1875 13.3091 13.3091 12.1875 14.6875 12.1875C16.0659 12.1875 17.1875 13.3091 17.1875 14.6875C17.1875 16.0659 16.0659 17.1875 14.6875 17.1875ZM10.3125 12.2722C10.1628 12.5422 10.0391 12.8275 9.94094 13.125H9.6875V10.625H10.3125V12.2722ZM14.375 10.3284V11.5784C12.7981 11.7359 11.5625 13.07 11.5625 14.6875C11.5625 15.1447 11.6637 15.5781 11.8409 15.97L10.7569 16.5959C10.475 16.0184 10.3125 15.3722 10.3125 14.6875C10.3125 12.3806 12.1084 10.4897 14.375 10.3284ZM14.6875 19.0625C13.1831 19.0625 11.8537 18.2991 11.0662 17.1391L12.1547 16.5106C12.7228 17.2975 13.645 17.8125 14.6875 17.8125C15.73 17.8125 16.6522 17.2975 17.2203 16.5106L18.3088 17.1391C17.5213 18.2991 16.1919 19.0625 14.6875 19.0625ZM18.6181 16.5959L17.5341 15.97C17.7113 15.5781 17.8125 15.1447 17.8125 14.6875C17.8125 13.07 16.5769 11.7356 15 11.5784V10.3284C17.2666 10.4897 19.0625 12.3806 19.0625 14.6875C19.0625 15.3722 18.9 16.0184 18.6181 16.5959Z" fill="#515151"/>
<path d="M14.6875 12.8125C13.6534 12.8125 12.8125 13.6534 12.8125 14.6875C12.8125 15.7216 13.6534 16.5625 14.6875 16.5625C15.7216 16.5625 16.5625 15.7216 16.5625 14.6875C16.5625 13.6534 15.7216 12.8125 14.6875 12.8125ZM14.6875 15.9375C13.9981 15.9375 13.4375 15.3769 13.4375 14.6875C13.4375 13.9981 13.9981 13.4375 14.6875 13.4375C15.3769 13.4375 15.9375 13.9981 15.9375 14.6875C15.9375 15.3769 15.3769 15.9375 14.6875 15.9375Z" fill="#515151"/>
<path d="M1.5625 3.75H2.1875V4.375H1.5625V3.75Z" fill="#515151"/>
<path d="M2.8125 3.75H7.1875V4.375H2.8125V3.75Z" fill="#515151"/>
<path d="M1.5625 5H2.1875V5.625H1.5625V5Z" fill="#515151"/>
<path d="M2.8125 5H7.1875V5.625H2.8125V5Z" fill="#515151"/>
<path d="M1.5625 6.25H2.1875V6.875H1.5625V6.25Z" fill="#515151"/>
<path d="M2.8125 6.25H7.1875V6.875H2.8125V6.25Z" fill="#515151"/>
<path d="M1.5625 7.5H2.1875V8.125H1.5625V7.5Z" fill="#515151"/>
<path d="M2.8125 7.5H7.1875V8.125H2.8125V7.5Z" fill="#515151"/>
<path d="M1.5625 13.75H3.4375V10.625H1.5625V13.75ZM2.1875 11.25H2.8125V13.125H2.1875V11.25Z" fill="#515151"/>
<path d="M4.0625 13.75H5.9375V11.25H4.0625V13.75ZM4.6875 11.875H5.3125V13.125H4.6875V11.875Z" fill="#515151"/>
<path d="M6.5625 13.75H8.4375V8.75H6.5625V13.75ZM7.1875 9.375H7.8125V13.125H7.1875V9.375Z" fill="#515151"/>
</g>
<defs>
<clipPath id="clip0_124_418">
<rect width="20" height="20" fill="white"/>
</clipPath>
</defs>
</svg>
