<svg width="20" height="20" viewBox="0 0 20 20" fill="none" xmlns="http://www.w3.org/2000/svg">
<g clip-path="url(#clip0_124_353)">
<path d="M19.8668 3.76952L16.2305 0.133168C16.1453 0.0479404 16.0299 0 15.9091 0H1.8182C0.815881 0 0 0.815413 0 1.8182V18.1818C0 19.1846 0.815881 20 1.8182 20H18.1818C19.1842 20 20 19.1846 20 18.1818V4.09091C20 3.97019 19.9521 3.85475 19.8668 3.76952ZM4.54547 0.909077H14.5455V6.36363C14.5455 6.86476 14.138 7.2727 13.6364 7.2727H5.45455C4.95294 7.2727 4.54547 6.86476 4.54547 6.36363V0.909077ZM16.3636 19.0909H3.63635V10.9091H16.3636V19.0909ZM19.0909 18.1818C19.0909 18.683 18.6834 19.0909 18.1818 19.0909H17.2728V10.4545C17.2728 10.2033 17.0695 9.99998 16.8182 9.99998H3.18183C2.93058 9.99998 2.72727 10.2033 2.72727 10.4545V19.0909H1.8182C1.31659 19.0909 0.90912 18.683 0.90912 18.1818V1.8182C0.90912 1.31706 1.31663 0.90912 1.8182 0.90912H3.63639V6.36367C3.63635 7.36641 4.45223 8.18182 5.45455 8.18182H13.6364C14.6387 8.18182 15.4546 7.36641 15.4546 6.36363V0.909077H15.7209L19.0909 4.27914V18.1818Z" fill="#515151"/>
<path d="M11.3637 6.36363H13.1819C13.4332 6.36363 13.6365 6.16032 13.6365 5.90907V2.27272C13.6365 2.02147 13.4332 1.81816 13.1819 1.81816H11.3637C11.1125 1.81816 10.9092 2.02147 10.9092 2.27272V5.90907C10.9092 6.16032 11.1125 6.36363 11.3637 6.36363ZM11.8183 2.72728H12.7273V5.45455H11.8183V2.72728Z" fill="#515151"/>
</g>
<defs>
<clipPath id="clip0_124_353">
<rect width="20" height="20" fill="white"/>
</clipPath>
</defs>
</svg>
