<svg width="20" height="20" viewBox="0 0 20 20" fill="none" xmlns="http://www.w3.org/2000/svg">
<g clip-path="url(#clip0_124_509)">
<path d="M12.3333 11.6667H11.9667C11.8287 11.6669 11.7054 11.5809 11.658 11.4513C11.6173 11.3447 11.5737 11.2403 11.5267 11.137C11.4682 11.0113 11.4949 10.8625 11.5933 10.765L11.8547 10.5033C12.2426 10.112 12.2419 9.48079 11.853 9.09033L10.911 8.14833C10.52 7.75967 9.88862 7.75967 9.49767 8.14833L9.23633 8.40933C9.13858 8.50737 8.99004 8.534 8.86433 8.476C8.761 8.429 8.65667 8.38533 8.54967 8.34267C8.41946 8.29562 8.33283 8.17179 8.33333 8.03333V7.66667C8.33333 7.11437 7.88562 6.66667 7.33333 6.66667H6C5.44771 6.66667 5 7.11437 5 7.66667V8.03333C5.00025 8.17125 4.91421 8.29462 4.78467 8.342C4.678 8.38267 4.57367 8.42633 4.47033 8.47333C4.34462 8.53146 4.19604 8.50483 4.09833 8.40667L3.83667 8.14533C3.44575 7.75692 2.81458 7.75692 2.42367 8.14533L1.48167 9.09033C1.093 9.48129 1.093 10.1127 1.48167 10.5037L1.74267 10.765C1.84108 10.8625 1.86775 11.0113 1.80933 11.137C1.76233 11.2403 1.71867 11.3447 1.67767 11.4517C1.62996 11.582 1.50542 11.6681 1.36667 11.6667H1C0.447708 11.6667 0 12.1144 0 12.6667V14C0 14.5523 0.447708 15 1 15H1.36667C1.50458 14.9997 1.62796 15.0858 1.67533 15.2153C1.716 15.322 1.75967 15.4263 1.80667 15.5297C1.86508 15.6553 1.83842 15.8041 1.74 15.9017L1.47867 16.1633C1.09025 16.5542 1.09025 17.1854 1.47867 17.5763L2.42067 18.5183C2.81162 18.907 3.44304 18.907 3.834 18.5183L4.09533 18.2573C4.19308 18.1593 4.34162 18.1327 4.46733 18.1907C4.57067 18.2377 4.675 18.2813 4.782 18.324C4.91287 18.3705 5.00025 18.4945 5 18.6333V19C5 19.5523 5.44771 20 6 20H7.33333C7.88562 20 8.33333 19.5523 8.33333 19V18.6333C8.33308 18.4954 8.41912 18.372 8.54867 18.3247C8.65533 18.284 8.75967 18.2403 8.863 18.1933C8.98871 18.1352 9.13729 18.1618 9.235 18.26L9.49667 18.5213C9.88812 18.9091 10.5191 18.9084 10.9097 18.5197L11.8517 17.5777C12.2403 17.1867 12.2403 16.5553 11.8517 16.1643L11.5907 15.903C11.4922 15.8055 11.4656 15.6567 11.524 15.531C11.571 15.4277 11.6147 15.3233 11.6573 15.2163C11.7044 15.0861 11.8282 14.9995 11.9667 15H12.3333C12.8856 15 13.3333 14.5523 13.3333 14V12.6667C13.3333 12.1144 12.8856 11.6667 12.3333 11.6667ZM12.6667 14C12.6667 14.1841 12.5174 14.3333 12.3333 14.3333H11.9667C11.5523 14.3349 11.1815 14.591 11.0333 14.978C10.998 15.0713 10.9598 15.1632 10.9187 15.2537C10.7473 15.632 10.8268 16.0768 11.1187 16.3723L11.3793 16.6333C11.5096 16.7634 11.5097 16.9745 11.3796 17.1047C11.3795 17.1048 11.3794 17.1049 11.3793 17.105L10.4373 18.047C10.3072 18.1771 10.0962 18.1771 9.966 18.047L9.70467 17.786C9.40929 17.4939 8.96429 17.4143 8.586 17.586C8.49567 17.627 8.40367 17.6653 8.311 17.7007C7.92429 17.8487 7.66833 18.2192 7.66667 18.6333V19C7.66667 19.1841 7.51742 19.3333 7.33333 19.3333H6C5.81592 19.3333 5.66667 19.1841 5.66667 19V18.6333C5.66512 18.219 5.409 17.8481 5.022 17.7C4.92867 17.6647 4.83679 17.6265 4.74633 17.5853C4.368 17.414 3.92321 17.4936 3.62767 17.7853L3.36667 18.046C3.23658 18.1762 3.0255 18.1764 2.89525 18.0462C2.89517 18.0462 2.89508 18.0461 2.895 18.046L1.953 17.105C1.82287 16.9748 1.82287 16.7638 1.953 16.6337L2.214 16.3723C2.50587 16.0768 2.58537 15.632 2.414 15.2537C2.373 15.1633 2.33467 15.0713 2.29933 14.9787C2.15158 14.5915 1.781 14.3352 1.36667 14.3333H1C0.815917 14.3333 0.666667 14.1841 0.666667 14V12.6667C0.666667 12.4826 0.815917 12.3333 1 12.3333H1.36667C1.78104 12.3318 2.15187 12.0757 2.3 11.6887C2.33533 11.5953 2.37354 11.5035 2.41467 11.413C2.58604 11.0347 2.5065 10.5898 2.21467 10.2943L1.95267 10.0333C1.82242 9.90325 1.82229 9.69217 1.95242 9.56192C1.9525 9.56183 1.95258 9.56175 1.95267 9.56167L2.89467 8.61967C3.02483 8.48954 3.23583 8.48954 3.366 8.61967L3.62733 8.88067C3.92271 9.17279 4.36771 9.25233 4.746 9.08067C4.83633 9.03967 4.92833 9.00133 5.021 8.966C5.40825 8.81837 5.66479 8.44775 5.66667 8.03333V7.66667C5.66667 7.48258 5.81592 7.33333 6 7.33333H7.33333C7.51742 7.33333 7.66667 7.48258 7.66667 7.66667V8.03333C7.66821 8.44771 7.92433 8.81854 8.31133 8.96667C8.40467 9.002 8.49654 9.04021 8.587 9.08133C8.96529 9.253 9.41029 9.17346 9.70567 8.88133L9.96667 8.62067C10.0973 8.49142 10.3077 8.49142 10.4383 8.62067L11.3803 9.56267C11.5105 9.69283 11.5105 9.90383 11.3803 10.034L11.1193 10.2953C10.8275 10.5908 10.748 11.0357 10.9193 11.414C10.9603 11.5043 10.9987 11.5963 11.034 11.689C11.1821 12.0757 11.5526 12.3317 11.9667 12.3333H12.3333C12.5174 12.3333 12.6667 12.4826 12.6667 12.6667V14Z" fill="#515151"/>
<path d="M9.6601 13.2C9.65677 13.12 9.6511 13.0403 9.64143 12.961C9.63077 12.8757 9.6181 12.791 9.60043 12.708C9.58877 12.6537 9.57343 12.6 9.55877 12.546C9.5401 12.4773 9.5191 12.4097 9.49577 12.343C9.47943 12.2967 9.46243 12.2507 9.4451 12.205C9.40218 12.0982 9.3531 11.994 9.2981 11.893C9.29377 11.8853 9.2911 11.877 9.28677 11.8693C9.20006 11.715 9.09964 11.5687 8.98677 11.4323C8.9771 11.4203 8.9661 11.409 8.9561 11.3973C8.9101 11.343 8.86277 11.2903 8.8131 11.24C8.7871 11.213 8.75977 11.1877 8.73243 11.1617C8.6991 11.1307 8.66577 11.1 8.63243 11.0707C8.59198 11.0355 8.55077 11.0015 8.50877 10.9687L8.4541 10.928C7.93831 10.5417 7.31118 10.333 6.66677 10.3333C6.63343 10.3333 6.6001 10.3383 6.56677 10.3397C6.49577 10.3417 6.42443 10.3457 6.35277 10.353C6.3151 10.357 6.2771 10.3613 6.23943 10.3667C6.13077 10.381 6.02293 10.4011 5.91643 10.427C4.31139 10.8417 3.34648 12.4792 3.76123 14.0842C4.03456 15.1419 4.86089 15.9675 5.91877 16.24C5.9241 16.24 5.92977 16.2417 5.93543 16.243C6.05056 16.2717 6.16718 16.294 6.28477 16.3097C6.36243 16.3193 6.4401 16.3213 6.5181 16.325C6.5701 16.3277 6.6181 16.3353 6.67243 16.3353C6.76743 16.3353 6.8661 16.329 6.96677 16.319C6.97743 16.319 6.9881 16.316 7.0001 16.3147C7.0811 16.3057 7.1631 16.2937 7.24677 16.277C7.2801 16.2707 7.3111 16.2623 7.3431 16.255C7.40177 16.2413 7.4601 16.227 7.5201 16.2093C7.56677 16.1953 7.6121 16.179 7.65777 16.163C7.70343 16.147 7.75077 16.1297 7.7981 16.1117C7.84543 16.0937 7.8851 16.073 7.9281 16.053C7.9841 16.0273 8.03977 16.002 8.09477 15.972H8.09677C8.40785 15.8055 8.69518 15.598 8.9511 15.355C9.02023 15.2905 9.08035 15.2169 9.12977 15.1363C9.38993 14.7192 9.56085 14.2528 9.63177 13.7663C9.6411 13.702 9.64943 13.6377 9.65443 13.572C9.6591 13.5117 9.66243 13.4517 9.66377 13.3917C9.66377 13.3727 9.66643 13.3547 9.66643 13.3357C9.66677 13.2887 9.6621 13.2453 9.6601 13.2ZM8.99577 13.4183C8.99577 13.446 8.99343 13.4737 8.99177 13.501C8.98577 13.5817 8.97543 13.6623 8.96177 13.7433C8.83718 14.4364 8.40689 15.0364 7.79043 15.3767C7.7491 15.3983 7.70843 15.4187 7.66777 15.4373L7.6401 15.4507C7.44643 15.5386 7.24202 15.6005 7.0321 15.6347C7.01743 15.637 7.00243 15.6397 6.98743 15.6417C6.94577 15.6477 6.90477 15.6527 6.8641 15.6563C6.81043 15.661 6.75643 15.6637 6.70143 15.6647C6.6781 15.6647 6.6551 15.6647 6.63177 15.6647C6.55289 15.6637 6.47414 15.6589 6.39577 15.65L6.35577 15.6453C6.2641 15.6333 6.17318 15.6162 6.08343 15.594C4.83502 15.2745 4.08202 14.0034 4.40152 12.755C4.61264 11.93 5.25639 11.2856 6.0811 11.0737V11.0733C6.2726 11.025 6.46927 11.0004 6.66677 11C6.76206 11.0005 6.85727 11.007 6.95177 11.0193C6.9771 11.0223 7.0021 11.027 7.0271 11.0307C7.0991 11.042 7.17043 11.0563 7.24077 11.0743C7.26377 11.0803 7.28677 11.0857 7.30943 11.092C7.48668 11.1432 7.65731 11.215 7.81777 11.306C7.84343 11.321 7.86843 11.3367 7.89377 11.3523C7.94643 11.3857 7.99743 11.419 8.04777 11.457C8.07477 11.4767 8.1021 11.496 8.1281 11.517C8.19352 11.5692 8.25614 11.6249 8.31577 11.6837C8.33943 11.7077 8.3611 11.734 8.3841 11.759C8.42243 11.8007 8.45977 11.8433 8.49543 11.8883C8.5201 11.9193 8.54377 11.9513 8.5671 11.9837C8.60043 12.0317 8.63377 12.0817 8.66377 12.1323C8.68043 12.16 8.6971 12.187 8.7141 12.2153C8.7571 12.2945 8.79539 12.376 8.82877 12.4597C8.8421 12.493 8.85343 12.5263 8.86543 12.5597C8.8871 12.621 8.90577 12.683 8.9221 12.7457C8.93043 12.779 8.93977 12.8087 8.94677 12.841C8.96623 12.9311 8.98035 13.0222 8.9891 13.114C8.9911 13.1383 8.9911 13.163 8.99277 13.1873C8.99743 13.264 8.99877 13.341 8.99577 13.4183Z" fill="#515151"/>
<path d="M18.9999 7H17.9515C17.8117 7.00142 17.6867 6.91338 17.6409 6.78133C17.5375 6.47171 17.4124 6.16971 17.2665 5.87767C17.2046 5.75154 17.2304 5.59992 17.3305 5.50133L18.0739 4.757C18.464 4.36654 18.464 3.73379 18.0739 3.34333L16.6565 1.92833C16.2661 1.53817 15.6333 1.53817 15.2429 1.92833L14.4999 2.671C14.4014 2.77108 14.25 2.797 14.1239 2.73533C13.8318 2.58871 13.5297 2.46296 13.2199 2.359C13.0873 2.31363 12.9986 2.18846 12.9999 2.04833V1C12.9999 0.447708 12.5521 0 11.9999 0H9.99986C9.44757 0 8.99986 0.447708 8.99986 1V2.04833C9.00127 2.18813 8.91327 2.31317 8.78119 2.359C8.47152 2.46292 8.16952 2.58858 7.87752 2.735C7.7514 2.79713 7.59969 2.77133 7.50119 2.671L6.75686 1.92767C6.36594 1.53863 5.73411 1.53863 5.34319 1.92767L3.92852 3.34233C3.53815 3.73283 3.53815 4.36583 3.92852 4.75633L5.02152 5.85133C5.15373 5.97942 5.36477 5.97608 5.49286 5.84383C5.61782 5.71483 5.61811 5.51 5.49352 5.38067L4.39986 4.286C4.26973 4.15583 4.26973 3.94483 4.39986 3.81467L5.81452 2.4C5.94469 2.26988 6.15569 2.26988 6.28586 2.4L7.03052 3.14333C7.33181 3.44642 7.79348 3.52217 8.17586 3.33133C8.4399 3.19913 8.7129 3.08563 8.99286 2.99167C9.39694 2.85488 9.66827 2.47496 9.66652 2.04833V1C9.66652 0.815917 9.81577 0.666667 9.99986 0.666667H11.9999C12.1839 0.666667 12.3332 0.815917 12.3332 1V2.04833C12.3315 2.47488 12.6028 2.85467 13.0069 2.99133C13.2869 3.08533 13.5601 3.19892 13.8242 3.33133C14.2066 3.52117 14.6677 3.44533 14.9692 3.143L15.7139 2.4C15.844 2.26988 16.055 2.26988 16.1852 2.4L17.5999 3.815C17.7298 3.94513 17.7298 4.15588 17.5999 4.286L16.8565 5.03067C16.5537 5.33213 16.478 5.79358 16.6685 6.176C16.8007 6.44004 16.9142 6.71304 17.0082 6.993C17.1449 7.39717 17.5249 7.6685 17.9515 7.66667H18.9999C19.1839 7.66667 19.3332 7.81592 19.3332 8V10C19.3332 10.1841 19.1839 10.3333 18.9999 10.3333H17.9515C17.525 10.3316 17.1452 10.603 17.0085 11.007C16.9146 11.2871 16.8009 11.5602 16.6685 11.8243C16.4784 12.2068 16.5542 12.668 16.8569 12.9693L17.6002 13.714C17.7303 13.8442 17.7303 14.0552 17.6002 14.1853L16.1849 15.6C16.0547 15.7299 15.844 15.7299 15.7139 15.6L14.6185 14.507C14.4904 14.3748 14.2794 14.3714 14.1472 14.4995C14.0149 14.6276 14.0116 14.8386 14.1397 14.9708C14.1424 14.9736 14.1451 14.9763 14.1479 14.979L15.2429 16.072C15.6333 16.4622 16.2661 16.4622 16.6565 16.072L18.0712 14.6577C18.4616 14.2672 18.4616 13.6342 18.0712 13.2437L17.3289 12.5C17.2289 12.4015 17.203 12.2501 17.2645 12.124C17.4111 11.8319 17.5369 11.5298 17.6409 11.22C17.6862 11.0874 17.8114 10.9988 17.9515 11H18.9999C19.5521 11 19.9999 10.5523 19.9999 10V8C19.9999 7.44771 19.5521 7 18.9999 7Z" fill="#515151"/>
<path d="M14.0638 5.936C12.3706 4.24629 9.62909 4.24629 7.93584 5.936C7.80797 6.06842 7.81163 6.27946 7.94405 6.40733C8.07322 6.53208 8.27801 6.53208 8.40717 6.40733C9.82947 4.96583 12.151 4.95029 13.5925 6.37258C15.034 7.79487 15.0496 10.1164 13.6273 11.5579C13.6158 11.5696 13.6042 11.5812 13.5925 11.5927C13.4601 11.7206 13.4564 11.9316 13.5843 12.064C13.7123 12.1964 13.9233 12.2001 14.0557 12.0722C14.0584 12.0695 14.0612 12.0668 14.0638 12.064C15.7536 10.3707 15.7536 7.62925 14.0638 5.936Z" fill="#515151"/>
</g>
<defs>
<clipPath id="clip0_124_509">
<rect width="20" height="20" fill="white"/>
</clipPath>
</defs>
</svg>
