<svg width="20" height="20" viewBox="0 0 20 20" fill="none" xmlns="http://www.w3.org/2000/svg">
<g clip-path="url(#clip0_125_524)">
<path d="M14.6186 10.4196L15.1095 9.92875C15.1096 9.92859 15.1098 9.92843 15.11 9.92828C15.1101 9.92812 15.1103 9.92796 15.1104 9.92781L16.8421 8.19609C16.8422 8.19597 16.8423 8.19589 16.8425 8.19582C16.8426 8.19574 16.8427 8.19562 16.8427 8.1955L18.5748 6.46347C18.5748 6.46343 18.5748 6.4634 18.5749 6.46336C18.5749 6.46332 18.575 6.46328 18.575 6.46324L19.5264 5.51187C19.8318 5.20648 20 4.80039 20 4.36847C20 3.93656 19.8318 3.53047 19.5264 3.22511L16.775 0.473668C16.4696 0.168278 16.0635 3.54908e-05 15.6316 3.54908e-05C15.1996 3.54908e-05 14.7936 0.168239 14.4882 0.473668L9.58035 5.3814L6.24914 2.05015C5.69148 1.4925 4.99258 1.09554 4.22793 0.902223L0.72957 0.0178871C0.52957 -0.0326989 0.317539 0.0256995 0.171641 0.171676C0.0257031 0.317575 -0.0326953 0.529489 0.0178906 0.729567L0.902266 4.22793C1.09555 4.99254 1.4925 5.69148 2.05016 6.24914L5.38141 9.58035L0.473594 14.4881C0.168203 14.7936 0 15.1996 0 15.6315C0 16.0635 0.168203 16.4695 0.473633 16.7749L3.22508 19.5263C3.53051 19.8318 3.93656 20 4.36852 20C4.80043 20 5.20648 19.8318 5.51188 19.5264L8.19457 16.8437C8.195 16.8433 8.19539 16.8429 8.19582 16.8425C8.19625 16.8421 8.19664 16.8417 8.19703 16.8412L10.4196 14.6186L14.9314 19.1304C15.5102 19.7092 16.2705 19.9987 17.0309 19.9987C17.7912 19.9987 18.5515 19.7093 19.1304 19.1304C20.288 17.9727 20.288 16.0891 19.1304 14.9314L14.6186 10.4196ZM2.03836 3.94074L1.39477 1.3948L3.9407 2.03843C4.50051 2.17992 5.01219 2.47054 5.42047 2.87882L5.88242 3.34078L3.3407 5.8825L2.87875 5.42054C2.47047 5.01222 2.17988 4.50054 2.03836 3.94074ZM4.16934 6.71109L6.71105 4.16937L8.75172 6.21004L6.21 8.75175L4.16934 6.71109ZM4.36852 18.8281C4.24961 18.8281 4.13785 18.7818 4.05375 18.6977L1.30227 15.9463C1.2182 15.8622 1.17191 15.7504 1.17191 15.6315C1.17191 15.5126 1.2182 15.4008 1.30227 15.3167L15.3168 1.30226C15.4008 1.2182 15.5127 1.17187 15.6316 1.17187C15.7505 1.17187 15.8622 1.2182 15.9463 1.30226L18.6978 4.05375C18.7818 4.13777 18.8282 4.24957 18.8282 4.36847C18.8282 4.48738 18.7818 4.59918 18.6978 4.68328L18.1606 5.22043L16.3732 3.433C16.1445 3.20418 15.7735 3.20418 15.5446 3.433C15.3158 3.66179 15.3158 4.03281 15.5446 4.26164L17.332 6.04906L16.4282 6.95289L15.507 6.03175C15.2782 5.80289 14.9072 5.80296 14.6784 6.03175C14.4495 6.26058 14.4495 6.63156 14.6784 6.86039L15.5995 7.78152L14.6957 8.68535L12.9083 6.89793C12.6795 6.6691 12.3085 6.6691 12.0797 6.89793C11.8509 7.12672 11.8509 7.49773 12.0797 7.72656L13.8671 9.51394L12.9632 10.4178L12.0421 9.49664C11.8133 9.26785 11.4423 9.26785 11.2134 9.49664C10.9846 9.72543 10.9846 10.0964 11.2134 10.3253L12.1346 11.2464L11.2464 12.1346L9.45902 10.3472C9.2302 10.1184 8.85922 10.1184 8.63039 10.3472C8.40156 10.576 8.40156 10.947 8.63039 11.1758L10.4178 12.9632L9.51395 13.867L8.59281 12.9459C8.36402 12.7171 7.99301 12.7171 7.76418 12.9459C7.53535 13.1747 7.53535 13.5457 7.76418 13.7745L8.68531 14.6957L7.78148 15.5995L5.99414 13.8121C5.76535 13.5834 5.39434 13.5834 5.16551 13.8121C4.93668 14.0409 4.93668 14.4119 5.16551 14.6408L6.95285 16.4281L6.04902 17.3319L5.12789 16.4108C4.8991 16.182 4.52809 16.182 4.29926 16.4108C4.07043 16.6396 4.07043 17.0106 4.29926 17.2394L5.22039 18.1606L4.68324 18.6977C4.59918 18.7818 4.48738 18.8281 4.36852 18.8281ZM11.6584 13.3799C11.6592 13.3791 11.66 13.3784 11.6608 13.3775C11.6616 13.3767 11.6624 13.3759 11.6632 13.3751L13.3769 11.6614C13.3771 11.6611 13.3774 11.6609 13.3776 11.6607C13.3778 11.6605 13.378 11.6603 13.3782 11.66L13.79 11.2483L16.2729 13.7312L13.7312 16.2729L11.2483 13.79L11.6584 13.3799ZM18.3017 18.3017C17.601 19.0025 16.4607 19.0025 15.76 18.3017L14.5598 17.1015L17.1015 14.5598L18.3018 15.76C19.0025 16.4608 19.0025 17.601 18.3017 18.3017Z" fill="#515151"/>
</g>
<defs>
<clipPath id="clip0_125_524">
<rect width="20" height="20" fill="white"/>
</clipPath>
</defs>
</svg>
